<svg width="16" height="19" viewBox="0 0 16 19" fill="none" xmlns="http://www.w3.org/2000/svg">
<path d="M12.7774 10.0964C12.7865 9.38755 12.9748 8.69255 13.3247 8.07604C13.6746 7.45953 14.1748 6.94154 14.7787 6.57028C14.3951 6.02238 13.889 5.57148 13.3006 5.2534C12.7122 4.93531 12.0578 4.7588 11.3893 4.73789C9.96317 4.58819 8.58065 5.59123 7.85393 5.59123C7.11316 5.59123 5.99429 4.75275 4.78944 4.77754C4.01011 4.80271 3.2506 5.02934 2.5849 5.43532C1.9192 5.84131 1.37001 6.41282 0.990854 7.09416C-0.651539 9.93777 0.573541 14.1169 2.14684 16.4155C2.93401 17.5411 3.85396 18.7983 5.05773 18.7537C6.23568 18.7049 6.67562 18.0026 8.0975 18.0026C9.50619 18.0026 9.91894 18.7537 11.1471 18.7254C12.4111 18.7049 13.2075 17.5948 13.9671 16.4586C14.5326 15.6566 14.9678 14.7703 15.2566 13.8323C14.5222 13.5218 13.8955 13.0019 13.4547 12.3375C13.0138 11.6731 12.7783 10.8937 12.7774 10.0964Z" fill="#3A3A3B"/>
<path d="M10.4583 3.2261C11.1475 2.39877 11.487 1.33536 11.4048 0.261719C10.3519 0.372307 9.37926 0.875532 8.68077 1.67113C8.33925 2.0598 8.07769 2.51196 7.91103 3.00178C7.74437 3.4916 7.67588 4.00946 7.70948 4.52576C8.23613 4.53118 8.75714 4.41703 9.23327 4.19191C9.70941 3.96679 10.1283 3.63656 10.4583 3.2261Z" fill="#3A3A3B"/>
</svg>
