<svg width="183" height="35" viewBox="0 0 183 35" fill="none" xmlns="http://www.w3.org/2000/svg">
<g opacity="0.6">
<path d="M165.284 0.797852L165.31 0.796875C165.522 0.796875 165.694 0.968996 165.694 1.18132C165.694 1.82479 166.392 2.50636 167.867 3.17592C168.029 3.2502 168.295 3.39422 168.634 3.61284C169.194 3.97441 169.753 4.41818 170.276 4.94865C171.682 6.37522 172.564 8.15003 172.67 10.2865C174.839 10.3754 176.638 11.262 178.081 12.6843C178.612 13.2071 179.056 13.7666 179.417 14.3267C179.636 14.6654 179.78 14.932 179.854 15.0932C180.524 16.5691 181.205 17.2664 181.849 17.2664C182.061 17.2664 182.233 17.4385 182.233 17.6508C182.233 17.6601 182.233 17.6693 182.232 17.6784L182.233 17.7041C182.233 17.9164 182.061 18.0886 181.849 18.0886C181.205 18.0886 180.524 18.7858 179.854 20.2617C179.78 20.4229 179.636 20.6896 179.417 21.0282C179.056 21.5883 178.612 22.1478 178.081 22.6706C176.639 24.0921 174.841 24.9785 172.673 25.0677C172.582 27.2311 171.696 29.0266 170.276 30.4671C169.753 30.9976 169.194 31.4413 168.634 31.8029C168.295 32.0215 168.029 32.1655 167.867 32.2398C166.603 32.8136 165.91 33.3963 165.737 33.9562C165.753 34.0477 165.761 34.1404 165.761 34.2344C165.761 34.4467 165.589 34.6189 165.376 34.6189L165.342 34.6158L165.31 34.6189C165.124 34.6189 164.969 34.4871 164.933 34.3119L164.925 34.2344C164.925 34.1411 164.933 34.049 164.947 33.9581C164.778 33.3976 164.085 32.8143 162.819 32.2398C162.658 32.1655 162.391 32.0215 162.052 31.8029C161.492 31.4413 160.933 30.9976 160.41 30.4671C158.991 29.0273 158.105 27.2328 158.014 25.0697C155.828 24.9898 154.015 24.1012 152.564 22.6706C152.033 22.1478 151.59 21.5883 151.228 21.0282C151.009 20.6896 150.865 20.4229 150.791 20.2617C150.217 18.9969 149.635 18.3039 149.075 18.1316C148.983 18.1477 148.891 18.1551 148.797 18.1551C148.584 18.1551 148.412 17.983 148.412 17.7707L148.415 17.7366L148.412 17.7041C148.412 17.5183 148.544 17.3633 148.719 17.3275L148.797 17.3197C148.89 17.3197 148.982 17.3271 149.073 17.3417C149.633 17.1725 150.217 16.4794 150.791 15.2131C150.865 15.0519 151.009 14.7853 151.228 14.4466C151.59 13.8865 152.033 13.327 152.564 12.8042C153.988 11.4007 155.759 10.5188 157.891 10.4109L157.89 10.4327L157.891 10.4064C157.969 8.21633 158.858 6.40182 160.29 4.94865C160.813 4.41818 161.372 3.97441 161.933 3.61284C162.271 3.39422 162.538 3.2502 162.699 3.17592C164.175 2.50636 164.872 1.82479 164.872 1.18132C164.872 0.968996 165.044 0.796875 165.257 0.796875C165.266 0.796875 165.275 0.797204 165.284 0.797852ZM165.282 2.2537C164.873 2.84332 164.111 3.37962 163.019 3.87516C162.99 3.88837 162.93 3.91822 162.843 3.96508C162.695 4.04513 162.529 4.14294 162.35 4.25883C161.834 4.59137 161.319 5.00049 160.838 5.48836C159.503 6.84255 158.694 8.52557 158.656 10.5717C158.698 10.6328 158.721 10.7057 158.721 10.7841C158.721 10.9965 158.549 11.1686 158.337 11.1686C156.223 11.1686 154.491 11.9848 153.103 13.3519C152.616 13.8326 152.206 14.3484 151.874 14.8636C151.758 15.0431 151.66 15.2092 151.58 15.3575C151.533 15.4442 151.504 15.5042 151.49 15.5329C151.018 16.5742 150.508 17.3156 149.951 17.7387C150.508 18.1592 151.018 18.9006 151.49 19.9419C151.504 19.9706 151.533 20.0306 151.58 20.1173C151.66 20.2656 151.758 20.4317 151.874 20.6112C152.206 21.1264 152.616 21.6422 153.103 22.123C154.491 23.49 156.223 24.3062 158.337 24.3062L158.383 24.3095C158.385 24.3095 158.388 24.3095 158.39 24.3095C158.602 24.3095 158.774 24.4816 158.774 24.6939C158.774 26.808 159.591 28.5402 160.958 29.9274C161.438 30.4153 161.954 30.8244 162.469 31.1569C162.649 31.2728 162.815 31.3706 162.963 31.4507C163.05 31.4975 163.11 31.5274 163.139 31.5406C164.18 32.013 164.921 32.5225 165.344 33.0798C165.765 32.5225 166.506 32.013 167.548 31.5406C167.576 31.5274 167.636 31.4975 167.723 31.4507C167.871 31.3706 168.037 31.2728 168.217 31.1569C168.732 30.8244 169.248 30.4153 169.729 29.9274C171.096 28.5402 171.912 26.808 171.912 24.6939C171.912 24.5078 172.044 24.3526 172.22 24.3171C172.248 24.3098 172.278 24.3062 172.308 24.3062C174.423 24.3062 176.155 23.49 177.542 22.123C178.03 21.6422 178.439 21.1264 178.771 20.6112C178.887 20.4317 178.985 20.2656 179.065 20.1173C179.112 20.0306 179.142 19.9706 179.155 19.9419C179.65 18.8496 180.187 18.0873 180.776 17.6762C180.187 17.2676 179.65 16.5053 179.155 15.413C179.142 15.3843 179.112 15.3243 179.065 15.2376C178.985 15.0894 178.887 14.9232 178.771 14.7437C178.439 14.2285 178.03 13.7128 177.542 13.232C176.195 11.9044 174.522 11.0964 172.491 11.0507C172.434 11.087 172.367 11.1063 172.296 11.1063C172.084 11.1063 171.912 10.9341 171.912 10.7218C171.912 8.6077 171.096 6.87551 169.729 5.48836C169.248 5.00049 168.732 4.59137 168.217 4.25883C168.037 4.14294 167.871 4.04513 167.723 3.96508C167.636 3.91822 167.576 3.88837 167.548 3.87516C166.455 3.37962 165.693 2.84332 165.282 2.2537Z" fill="white"/>
</g>
<path opacity="0.55" d="M177.181 6.07724L177.2 6.0946C177.349 6.2438 177.349 6.48571 177.2 6.63491C176.747 7.08709 176.759 8.05604 177.325 9.56368C177.386 9.72912 177.472 10.0177 177.557 10.4094C177.696 11.057 177.778 11.762 177.772 12.5022C177.757 14.5146 177.117 16.4012 175.656 17.9875C177.112 19.5722 177.751 21.4563 177.766 23.466C177.771 24.2062 177.69 24.9112 177.55 25.5589C177.466 25.9505 177.38 26.2391 177.319 26.4045C176.833 27.6981 176.755 28.5951 177.029 29.1093C177.105 29.1614 177.175 29.221 177.24 29.2865C177.389 29.4357 177.389 29.6776 177.24 29.8268L177.214 29.8486L177.193 29.8736C177.063 30.0042 176.861 30.0205 176.713 29.9226L176.653 29.8736C176.587 29.8076 176.527 29.7372 176.473 29.6624C175.959 29.3892 175.063 29.4667 173.771 29.9523C173.606 30.0133 173.317 30.0995 172.925 30.1839C172.278 30.3234 171.573 30.4047 170.833 30.3993C168.824 30.3847 166.941 29.7461 165.356 28.2908C163.764 29.7707 161.866 30.4197 159.84 30.4345C159.1 30.4399 158.395 30.3586 157.748 30.2191C157.356 30.1347 157.067 30.0485 156.902 29.9875C155.608 29.5013 154.711 29.4242 154.197 29.6976C154.145 29.7734 154.086 29.8432 154.02 29.9088C153.871 30.058 153.629 30.058 153.48 29.9088L153.458 29.8827L153.433 29.862C153.302 29.7314 153.286 29.5299 153.384 29.3816L153.433 29.3217C153.499 29.2557 153.569 29.1958 153.644 29.1419C153.917 28.6282 153.84 27.7318 153.354 26.4397C153.293 26.2743 153.207 25.9857 153.123 25.594C152.983 24.9463 152.902 24.2413 152.907 23.5012C152.922 21.5139 153.547 19.6493 154.969 18.0754L155.184 18.2979C153.545 16.6592 152.832 14.6754 152.817 12.5513C152.811 11.8111 152.893 11.1061 153.032 10.4584C153.116 10.0668 153.203 9.7782 153.264 9.61275C153.83 8.10511 153.841 7.13617 153.389 6.68398C153.24 6.53478 153.24 6.29287 153.389 6.14367C153.396 6.13714 153.402 6.1309 153.409 6.12494L153.427 6.10621C153.576 5.957 153.818 5.957 153.967 6.10621C154.419 6.55839 155.388 6.54735 156.896 5.98074C157.061 5.91968 157.35 5.83349 157.741 5.74913C158.389 5.6096 159.094 5.5283 159.834 5.5337C161.824 5.54822 163.691 6.17522 165.267 7.60226C166.854 6.14092 168.741 5.49932 170.755 5.48463C171.495 5.47923 172.2 5.56053 172.848 5.70005C173.239 5.78442 173.528 5.87061 173.693 5.93167C175.201 6.49828 176.17 6.50932 176.622 6.05714C176.771 5.90793 177.013 5.90793 177.162 6.05714C177.169 6.06366 177.175 6.07037 177.181 6.07724ZM176.156 7.09913C175.513 7.21533 174.693 7.09151 173.701 6.74712L173.427 6.64774L173.358 6.62415C173.326 6.614 173.287 6.6017 173.24 6.58768C173.08 6.53977 172.894 6.49176 172.687 6.44704C172.091 6.31871 171.441 6.24376 170.76 6.24872C168.881 6.26244 167.137 6.86998 165.678 8.26592C165.663 8.33123 165.63 8.3914 165.58 8.44123C165.431 8.59043 165.189 8.59043 165.04 8.44123C163.555 6.9556 161.764 6.31192 159.828 6.2978C159.148 6.29283 158.498 6.36779 157.902 6.49611C157.695 6.54083 157.509 6.58884 157.349 6.63675C157.302 6.65077 157.262 6.66307 157.231 6.67322L157.162 6.69681C156.047 7.11609 155.134 7.27496 154.431 7.14961C154.547 7.79287 154.423 8.61319 154.079 9.60475L153.98 9.87941L153.956 9.94845C153.946 9.97965 153.934 10.0189 153.92 10.0658C153.872 10.2263 153.824 10.4117 153.779 10.6193C153.651 11.215 153.576 11.865 153.581 12.5457C153.595 14.435 154.208 16.1865 155.619 17.6508C155.692 17.6647 155.76 17.6995 155.815 17.7546C155.964 17.9038 155.964 18.1457 155.815 18.2949C154.329 19.7805 153.685 21.5713 153.671 23.5068C153.666 24.1875 153.741 24.8374 153.87 25.4331C153.914 25.6407 153.962 25.8262 154.01 25.9866C154.038 26.0805 154.059 26.1436 154.07 26.173C154.47 27.2368 154.633 28.1158 154.539 28.8048C155.226 28.7086 156.105 28.8716 157.169 29.2714C157.198 29.2822 157.261 29.3034 157.355 29.3315C157.515 29.3794 157.701 29.4274 157.908 29.4721C158.504 29.6004 159.154 29.6754 159.835 29.6704C161.77 29.6563 163.561 29.0126 165.046 27.527L165.077 27.501C165.08 27.4979 165.083 27.4948 165.086 27.4918C165.235 27.3426 165.477 27.3426 165.627 27.4918C167.112 28.9774 168.903 29.6211 170.838 29.6352C171.519 29.6402 172.169 29.5652 172.765 29.4369C172.972 29.3922 173.158 29.3442 173.318 29.2963C173.412 29.2682 173.475 29.2471 173.504 29.2362C174.568 28.8364 175.447 28.6734 176.136 28.7678C176.04 28.0806 176.203 27.2016 176.603 26.1379C176.614 26.1084 176.635 26.0453 176.663 25.9514C176.711 25.791 176.759 25.6055 176.803 25.3979C176.932 24.8022 177.007 24.1523 177.002 23.4716C176.988 21.5362 176.344 19.7453 174.858 18.2597C174.727 18.128 174.711 17.924 174.812 17.7754C174.826 17.7516 174.844 17.7292 174.865 17.7085C176.35 16.2229 176.994 14.432 177.008 12.4966C177.013 11.8159 176.938 11.166 176.81 10.5703C176.765 10.3627 176.717 10.1772 176.669 10.0168C176.655 9.96983 176.643 9.93057 176.633 9.89938L176.609 9.83034C176.19 8.71473 176.031 7.80228 176.156 7.09913Z" fill="white"/>
<path d="M172.734 10.6891C172.883 10.8383 172.883 11.0802 172.734 11.2294C172.599 11.3646 172.466 11.4648 172.304 11.5405C172.187 11.802 172.145 12.2419 172.106 13.1499C172.065 14.1358 171.99 14.651 171.745 15.1424C171.373 15.888 170.527 16.7757 169.2 17.8269C170.745 19.0419 171.728 20.053 172.155 20.8852C172.422 21.4076 172.511 21.9561 172.575 23.004C172.655 24.3318 172.726 24.7294 172.996 24.9992C173.127 25.1298 173.143 25.3313 173.045 25.4796L172.996 25.5395L172.936 25.5885C172.788 25.6864 172.586 25.6701 172.456 25.5395C172.186 25.2697 171.788 25.1982 170.461 25.118C169.413 25.0547 168.864 24.9657 168.342 24.6979C167.508 24.2704 166.494 23.2839 165.277 21.732C164.192 23.1119 163.281 23.9889 162.519 24.3693C162.027 24.6145 161.512 24.6889 160.526 24.7304C159.296 24.7822 158.925 24.8424 158.688 25.0797C158.538 25.229 158.297 25.229 158.147 25.0797C158.133 25.0658 158.121 25.051 158.109 25.0355L158.066 24.9979C157.916 24.8487 157.916 24.6068 158.066 24.4576C158.303 24.2202 158.363 23.8494 158.415 22.6189C158.456 21.633 158.531 21.1178 158.776 20.6265C159.153 19.8702 160.019 18.9676 161.379 17.8964C159.997 16.7819 159.109 15.8449 158.709 15.0651C158.442 14.5426 158.353 13.9941 158.289 12.9462C158.209 11.6184 158.138 11.2208 157.868 10.951C157.737 10.8205 157.721 10.6189 157.819 10.4706L157.868 10.4107C158.017 10.2615 158.259 10.2615 158.408 10.4107C158.678 10.6806 159.075 10.7521 160.403 10.8322C161.451 10.8955 162 10.9846 162.522 11.2523C163.342 11.6725 164.335 12.6327 165.525 14.1392C166.644 12.7007 167.581 11.7894 168.363 11.3995C168.854 11.1544 169.369 11.0799 170.355 11.0384C171.094 11.0073 171.523 10.9732 171.799 10.8996C171.834 10.8558 171.873 10.8135 171.915 10.7709C172 10.6862 172.115 10.6496 172.225 10.6611C172.375 10.5406 172.595 10.5498 172.734 10.6891ZM171.451 11.7336C171.172 11.7644 170.826 11.7834 170.387 11.8019C169.51 11.8388 169.065 11.9031 168.704 12.0833C168.006 12.4317 167.068 13.3661 165.921 14.8793C165.903 14.9646 165.856 15.0424 165.782 15.0987C165.614 15.2267 165.375 15.1945 165.247 15.0268C163.974 13.3592 162.94 12.3251 162.173 11.9323C161.778 11.7296 161.299 11.6518 160.357 11.595C159.714 11.5562 159.259 11.5198 158.914 11.4584C158.977 11.8024 159.013 12.2573 159.052 12.9002C159.109 13.8419 159.187 14.321 159.389 14.7166C159.749 15.4175 160.644 16.3424 162.07 17.469C162.185 17.47 162.296 17.5223 162.37 17.6196C162.4 17.6602 162.422 17.7049 162.434 17.7512L162.484 17.7897C162.651 17.9178 162.684 18.1575 162.556 18.3252C162.428 18.493 162.188 18.5252 162.02 18.3972L162 18.3811C160.637 19.4392 159.788 20.3096 159.46 20.9676C159.28 21.3287 159.215 21.7739 159.178 22.6511C159.151 23.3043 159.122 23.7513 159.061 24.0846C159.394 24.023 159.841 23.9945 160.494 23.967C161.371 23.93 161.816 23.8657 162.178 23.6856C162.882 23.3342 163.83 22.3865 164.99 20.85C165.118 20.6816 165.357 20.6483 165.525 20.7755C165.596 20.8289 165.643 20.9021 165.664 20.9816L165.617 20.9235C166.89 22.591 167.924 23.6252 168.69 24.0179C169.086 24.2206 169.565 24.2984 170.507 24.3553C171.15 24.3941 171.604 24.4305 171.948 24.4929C171.887 24.1478 171.851 23.6929 171.812 23.0501C171.755 22.1083 171.677 21.6292 171.475 21.2337C171.082 20.4674 170.048 19.4332 168.38 18.1605L168.548 18.2901C168.404 18.3253 168.246 18.2748 168.152 18.1493C168.024 17.9809 168.058 17.7413 168.226 17.6141C169.763 16.4533 170.71 15.5056 171.062 14.8012C171.242 14.4402 171.306 13.995 171.343 13.1178C171.369 12.4962 171.396 12.0614 171.451 11.7336Z" fill="#3A3A3B"/>
<path d="M165.198 7.54883C165.407 7.54883 165.576 7.72145 165.576 7.9344C165.576 8.12772 165.553 8.29438 165.492 8.46437C165.595 8.73439 165.874 9.07878 166.482 9.75283C167.143 10.486 167.452 10.9068 167.625 11.4323C167.888 12.2332 167.915 13.478 167.72 15.1861C169.656 14.9612 171.057 14.9837 171.945 15.2647C172.509 15.4431 172.964 15.765 173.757 16.4548C174.761 17.3288 175.096 17.5572 175.481 17.5572C175.694 17.5572 175.867 17.7267 175.867 17.9357V17.9827C175.867 18.1918 175.694 18.3612 175.481 18.3612C175.096 18.3612 174.761 18.5897 173.757 19.4637C172.964 20.1535 172.509 20.4753 171.945 20.6537C171.055 20.9354 169.649 20.9573 167.707 20.731C167.917 22.4994 167.893 23.7823 167.625 24.6012C167.452 25.1267 167.143 25.5475 166.482 26.2807C165.656 27.1957 165.439 27.5032 165.439 27.842C165.439 28.055 165.269 28.2276 165.06 28.2276C165.041 28.2276 165.021 28.2261 165.003 28.2232L164.945 28.2276C164.736 28.2276 164.567 28.055 164.567 27.842C164.567 27.5032 164.349 27.1957 163.524 26.2807C162.862 25.5475 162.553 25.1267 162.381 24.6012C162.114 23.7886 162.089 22.5191 162.294 20.7724C160.543 20.9534 159.26 20.9171 158.428 20.6537C157.864 20.4753 157.409 20.1535 156.616 19.4637C155.611 18.5897 155.277 18.3612 154.891 18.3612C154.678 18.3612 154.506 18.1918 154.506 17.9827L154.507 17.9593C154.506 17.9515 154.506 17.9436 154.506 17.9357C154.506 17.7267 154.678 17.5572 154.891 17.5572C155.277 17.5572 155.611 17.3288 156.616 16.4548C157.409 15.765 157.864 15.4431 158.428 15.2647C159.303 14.9878 160.676 14.962 162.567 15.176C162.34 13.3407 162.358 12.0143 162.633 11.1753C162.806 10.6497 163.114 10.229 163.776 9.49578C164.271 8.94659 164.548 8.61625 164.69 8.36663C164.684 8.31044 164.682 8.25226 164.682 8.19145C164.682 8.07029 164.736 7.96218 164.822 7.8915C164.842 7.69904 165.003 7.54883 165.198 7.54883ZM165.03 9.20918C164.857 9.4302 164.628 9.69076 164.333 10.0176C163.745 10.67 163.478 11.0336 163.351 11.4198C163.118 12.1289 163.105 13.3687 163.323 15.1168L163.356 15.3666L163.352 15.3248C163.457 15.4046 163.518 15.5362 163.499 15.6753C163.47 15.8825 163.276 16.0279 163.065 16.0001C160.967 15.7235 159.491 15.7235 158.664 15.9852C158.237 16.1203 157.84 16.4014 157.127 17.0213C156.621 17.4614 156.263 17.7609 155.966 17.9599C156.263 18.1575 156.621 18.457 157.127 18.8971C157.84 19.517 158.237 19.7981 158.664 19.9332C159.413 20.1701 160.693 20.1926 162.485 19.9897C162.565 19.9135 162.676 19.8743 162.792 19.8908C162.84 19.8976 162.884 19.9131 162.924 19.9355L163.065 19.9183C163.276 19.8905 163.47 20.0359 163.499 20.2431C163.527 20.4503 163.379 20.6408 163.168 20.6686L163.067 20.6818C162.852 22.4179 162.867 23.6505 163.099 24.3567C163.225 24.7429 163.492 25.1065 164.081 25.7588C164.519 26.2447 164.812 26.584 165.003 26.8653C165.193 26.584 165.486 26.2447 165.925 25.7588C166.513 25.1065 166.78 24.7429 166.907 24.3567C167.148 23.6203 167.154 22.3117 166.908 20.456C166.876 20.3911 166.863 20.3182 166.874 20.2431C166.882 20.1798 166.906 20.1223 166.942 20.0738C166.998 19.9779 167.096 19.9075 167.213 19.8908C167.298 19.8788 167.38 19.8963 167.449 19.9354L167.307 19.9183C169.405 20.1949 170.881 20.1949 171.708 19.9332C172.135 19.7981 172.533 19.517 173.245 18.8971C173.751 18.457 174.11 18.1575 174.407 17.9586C174.11 17.7609 173.751 17.4614 173.245 17.0213C172.533 16.4014 172.135 16.1203 171.708 15.9852C170.918 15.7353 169.537 15.7241 167.587 15.9644C167.51 16.0899 167.366 16.1643 167.213 16.1427C167.017 16.1148 166.877 15.9385 166.888 15.7406C166.882 15.7197 166.877 15.6979 166.874 15.6753C166.862 15.5867 166.882 15.5011 166.925 15.43L166.891 15.7076C167.154 13.7828 167.154 12.4303 166.907 11.6768C166.78 11.2906 166.513 10.927 165.925 10.2747C165.507 9.81221 165.222 9.48248 165.03 9.20918Z" fill="white"/>
<path fill-rule="evenodd" clip-rule="evenodd" d="M12.0899 28.3117L7.81991 20.9916H4.66828V28.3117H0.5V7.23242H8.93823C10.8699 7.23242 12.5304 7.91021 13.9198 9.26579C15.2754 10.6214 15.9532 12.282 15.9532 14.2137C15.9532 15.5015 15.5804 16.7215 14.8348 17.8398C14.0893 18.9582 13.1065 19.8054 11.8865 20.3477L16.5631 28.2778H12.0899V28.3117ZM4.66828 11.1297V17.3654H8.93823C9.71767 17.3654 10.3954 17.0604 10.9715 16.4504C11.5476 15.8404 11.8188 15.0948 11.8188 14.2475C11.8188 13.4003 11.5476 12.6547 10.9715 12.0447C10.3954 11.4347 9.75156 11.1297 8.93823 11.1297H4.66828ZM21.3383 22.3791C21.8466 24.2769 23.2699 25.1919 25.5743 25.1919C27.0654 25.1919 28.1837 24.6836 28.9293 23.7008L32.047 25.4969C30.5559 27.632 28.3871 28.7164 25.4727 28.7164C22.9988 28.7164 20.9994 27.9709 19.4744 26.4458C17.9833 24.9547 17.2039 23.0569 17.2039 20.7524C17.2039 18.4818 17.9494 16.584 19.4405 15.0929C20.9316 13.5678 22.8293 12.8223 25.1677 12.8223C27.3704 12.8223 29.2004 13.6017 30.6237 15.1268C32.047 16.6518 32.7926 18.5496 32.7926 20.7863C32.7926 21.2946 32.7587 21.803 32.657 22.3791H21.3383ZM21.3044 19.3629H28.9632C28.726 18.3463 28.2854 17.5668 27.6076 17.0585C26.9299 16.5501 26.1165 16.3129 25.2354 16.3129C24.1849 16.3129 23.3377 16.584 22.6599 17.1262C21.9482 17.6346 21.5077 18.414 21.3044 19.3629ZM48.0117 14.4829C46.9612 13.3645 45.6057 12.8223 43.9451 12.8223C41.8779 12.8223 40.3868 13.5339 39.438 14.9573V13.2628H35.5408V28.3098H39.438V20.1763C39.438 18.9224 39.743 17.9735 40.3529 17.3635C40.9629 16.7196 41.7424 16.4146 42.759 16.4146C43.674 16.4146 44.3857 16.6857 44.9279 17.2279C45.4701 17.7701 45.7412 18.5157 45.7412 19.5324V28.3098H49.6384V19.0579C49.6384 17.1262 49.0962 15.6012 48.0117 14.4829ZM56.2155 22.3791C56.7238 24.2769 58.1471 25.1919 60.4515 25.1919C61.9426 25.1919 63.0609 24.6836 63.8065 23.7008L66.9242 25.4969C65.4331 27.632 63.2643 28.7164 60.3499 28.7164C57.876 28.7164 55.8766 27.9709 54.3516 26.4458C52.8605 24.9547 52.0811 23.0569 52.0811 20.7524C52.0811 18.4818 52.8266 16.584 54.3177 15.0929C55.8088 13.5678 57.7065 12.8223 60.0449 12.8223C62.2476 12.8223 64.0776 13.6017 65.5009 15.1268C66.9242 16.6518 67.6698 18.5496 67.6698 20.7863C67.6698 21.2946 67.6359 21.803 67.5342 22.3791H56.2155ZM56.1477 19.3629H63.8065C63.5693 18.3463 63.1287 17.5668 62.4509 17.0585C61.7732 16.5501 60.9598 16.3129 60.0787 16.3129C59.0282 16.3129 58.181 16.584 57.5032 17.1262C56.8254 17.6346 56.3849 18.414 56.1477 19.3629ZM90.4741 13.2597H86.7464L84.2048 22.5454L81.4598 13.2597H77.7998L75.0549 22.5115L72.4793 13.2597H68.3788L72.8182 28.3066H76.6137L79.4604 19.1903L82.307 28.3066H86.0686L90.4741 13.2597Z" fill="white"/>
<path fill-rule="evenodd" clip-rule="evenodd" d="M114.278 6.89648H114.617V7.23538V28.3485V28.6874H114.278H110.144H109.805V28.3485V15.8772L104.485 24.6207L104.383 24.7901H104.214H103.739H103.536L103.434 24.6207L98.1136 15.9111V28.3147V28.6535H97.7748H93.6065H93.2676V28.3147V7.23538V6.89648H93.6065H97.8764H98.0797L98.1814 7.06593L103.942 16.5211L109.67 7.06593L109.771 6.89648H109.975H114.278ZM119.196 14.8616C120.755 13.3027 122.755 12.4893 125.161 12.4893C127.465 12.4893 129.397 13.3027 130.888 14.9294C132.379 16.5222 133.125 18.4878 133.125 20.8262C133.125 21.3345 133.057 21.9106 132.955 22.4867L132.921 22.7579H132.65H121.772C122.314 24.1812 123.568 24.8929 125.534 24.8929C126.923 24.8929 127.94 24.4523 128.651 23.5373L128.821 23.3001L129.092 23.4357L132.21 25.2318L132.515 25.4012L132.311 25.7063C130.752 27.943 128.448 29.0613 125.466 29.0613C122.89 29.0613 120.789 28.248 119.23 26.689C117.637 25.1301 116.858 23.1307 116.858 20.7584C116.858 18.42 117.638 16.4205 119.196 14.8616ZM122.789 17.4033C122.28 17.81 121.907 18.3522 121.67 19.03H128.448C128.245 18.3183 127.872 17.7422 127.33 17.3694C126.686 16.9289 125.974 16.6916 125.161 16.6916C124.212 16.6916 123.399 16.9289 122.789 17.4033Z" fill="#A6A6A6"/>
<g opacity="0.65">
<path d="M137.567 7.23047V7.7727H136.787V10.1789H136.211V7.7727H135.432V7.23047H137.567Z" fill="white"/>
<path d="M140.787 7.23047V10.1789H140.211V8.28104L139.363 9.63662H139.296L138.482 8.28104V10.1789H137.906V7.23047H138.516L139.363 8.61994L140.211 7.23047H140.787Z" fill="white"/>
</g>
</svg>
