<svg width="45" height="45" viewBox="0 0 45 45" fill="none" xmlns="http://www.w3.org/2000/svg">
<path fill-rule="evenodd" clip-rule="evenodd" d="M22.2903 0C9.97965 0 0 10.0201 0 22.3798C0 34.7397 9.97989 44.7597 22.2903 44.7597C34.6004 44.7597 44.5805 34.7397 44.5805 22.3798C44.5805 10.0201 34.6004 0 22.2903 0V0ZM11.3424 28.8635V27.0111C10.4046 28.0781 9.33584 28.7891 7.76161 28.7805C4.03679 28.7602 1.01679 25.7483 1.01679 22.0084C1.01679 18.2686 4.03679 15.2368 7.76161 15.2368C11.4867 15.2368 14.727 18.2449 14.727 21.9852L14.7308 28.8399L11.3424 28.8635V28.8635ZM22.4582 28.97C18.7332 28.97 15.4928 25.962 15.4928 22.2216L15.489 10.8275H18.8724L18.877 17.1955C19.8153 16.1287 20.8837 15.4175 22.4582 15.4261C26.1823 15.4469 29.2028 18.4583 29.2028 22.1982C29.2028 25.9383 26.1823 28.97 22.4582 28.97V28.97ZM36.9611 28.8109C33.236 28.8109 30.216 25.7792 30.216 22.0393C30.216 18.2994 33.236 15.2677 36.9611 15.2677C40.2119 15.2677 42.9357 17.6506 43.574 20.7246L40.182 20.7134C39.6624 19.4801 38.441 18.6468 37.0228 18.6468C35.1323 18.6468 33.5994 20.1852 33.5994 22.0833C33.5994 23.9817 35.132 25.5208 37.0228 25.5208C38.441 25.5208 39.6775 24.6966 40.1971 23.4628L43.5886 23.447C42.9594 26.5326 40.2203 28.8109 36.9611 28.8109V28.8109Z" fill="#868688"/>
<path fill-rule="evenodd" clip-rule="evenodd" d="M22.3724 18.5801C20.4818 18.5801 18.9488 20.1189 18.9488 22.0171C18.9488 23.9153 20.4818 25.4546 22.3724 25.4546C24.2629 25.4546 25.796 23.9153 25.796 22.0171C25.796 20.1189 24.2629 18.5801 22.3724 18.5801ZM7.80446 18.5801C5.91394 18.5801 4.38086 20.1189 4.38086 22.0171C4.38086 23.9153 5.91394 25.4546 7.80446 25.4546C9.69498 25.4546 11.2281 23.9153 11.2281 22.0171C11.2281 20.1189 9.69498 18.5801 7.80446 18.5801Z" fill="#868688"/>
</svg>
