<svg width="111" height="42" viewBox="0 0 111 42" fill="none" xmlns="http://www.w3.org/2000/svg">
<path d="M20.3757 0.00208027C9.03737 0.00208027 0 9.25998 0 20.5567C0 31.9678 9.02593 41.2382 20.3757 41.2382C31.7868 41.2382 40.691 31.9803 40.691 20.5588C40.6931 9.27038 31.7868 0 20.3757 0V0.00208027ZM20.3757 8.72739C29.6336 8.72739 36.4324 14.6129 39.3013 20.5608C36.4324 26.6003 29.6429 32.5233 20.3757 32.5233C11.0481 32.5233 4.3148 26.6076 1.44694 20.5608C4.31376 14.6139 11.0502 8.7305 20.3757 8.7305V8.72739ZM20.3757 9.66358C14.3383 9.66358 9.41601 14.5505 9.41601 20.5588C9.41601 26.6575 14.3383 31.5184 20.3757 31.5184C26.4131 31.5184 31.2698 26.6555 31.2698 20.5598C31.2708 19.1286 30.9897 17.7113 30.4425 16.3888C29.8953 15.0663 29.0929 13.8647 28.081 12.8525C27.0692 11.8404 25.8677 11.0376 24.5454 10.49C23.2231 9.94249 21.8058 9.66095 20.3746 9.6615L20.3757 9.66358ZM58.6618 8.1948C51.2825 8.1948 46.1418 13.7963 46.1418 20.6087V20.6919C46.1418 27.5885 51.3896 33.0455 58.4756 33.0455C63.0941 33.0455 65.8548 31.3936 68.3212 28.739L64.955 25.3583C63.0827 27.0695 61.3663 28.1814 58.641 28.1814C54.5238 28.1814 51.6715 24.73 51.6715 20.6139V20.5515C51.6715 16.4343 54.5976 13.0672 58.641 13.0672C61.0334 13.0672 62.9266 14.0918 64.7865 15.7852L68.1527 11.8969C65.9162 9.71247 63.1992 8.2 58.6638 8.2L58.6618 8.1948ZM70.3121 8.61088V32.6231H81.7545C87.1657 32.6231 90.7398 30.4314 90.7398 26.0428V25.9575C90.7398 22.739 89.0287 21.1278 86.2461 20.0647C87.9604 19.1045 89.4032 17.5994 89.4032 14.8823V14.8199C89.4032 13.1556 88.8602 11.8293 87.7638 10.7215C86.3866 9.36296 84.2333 8.60984 81.4934 8.60984L70.3121 8.61088ZM75.4508 13.2294H80.6779C82.9143 13.2294 84.1449 14.1282 84.1449 15.6947V15.78C84.1449 17.5567 82.6616 18.3077 80.3221 18.3077H75.4518V13.2263L75.4508 13.2294ZM75.4508 22.6995H81.5881C84.2926 22.6995 85.4826 23.7044 85.4826 25.3136V25.3968C85.4826 27.1735 84.0627 27.9973 81.7441 27.9973L75.4508 27.9994V22.6995ZM101.09 8.25825C96.201 8.25825 92.6902 11.1417 92.6902 15.5085V15.573C92.6902 20.3393 95.8234 21.6791 100.652 22.9117C104.664 23.9551 105.499 24.6229 105.499 25.9595V26.0448C105.499 27.4439 104.181 28.3021 102.029 28.3021C99.2706 28.3021 97.0134 27.1714 94.8601 25.3947L91.726 29.1353C94.6105 31.7046 98.2876 32.9612 101.924 32.9612V32.9591C107.108 32.9591 110.742 30.2816 110.742 25.5216V25.4592C110.742 21.2588 107.975 19.53 103.113 18.2464C98.9752 17.1802 97.9288 16.658 97.9288 15.0893V15.0269C97.9288 13.8567 98.995 12.9153 101.024 12.9153C103.054 12.9153 105.144 13.8119 107.274 15.2932L110.01 11.2957C107.586 9.35255 104.599 8.24473 101.087 8.24473L101.09 8.25825Z" fill="#868688"/>
</svg>
