<svg width="72" height="33" viewBox="0 0 72 33" fill="none" xmlns="http://www.w3.org/2000/svg">
<g clip-path="url(#clip0_76_144)">
<path d="M22.5949 0.0167647C22.5949 0.00195312 16.4588 0.0167647 16.4588 0.0167647C7.37601 0.0167647 0.0126953 7.36531 0.0126953 16.4299C0.0126953 25.4945 7.37601 32.843 16.4588 32.843L27.9961 32.8334C30.8946 32.8334 33.2443 30.5067 33.2443 27.6139L33.2504 17.6032L41.2249 30.1557C42.3033 31.7847 44.1546 32.8593 46.2574 32.8593C49.5863 32.8593 52.2851 30.166 52.2851 26.8437L52.2834 17.6031L60.2578 30.1556C61.3363 31.7846 63.1876 32.8592 65.2904 32.8592C68.6193 32.8592 71.3181 30.1659 71.3181 26.8436L71.3163 0.00195312H67.2131V26.8439C67.2131 27.9036 66.3523 28.7627 65.2905 28.7627C64.6268 28.7627 64.0417 28.4273 63.6963 27.9168L49.5025 5.60441C49.4146 5.47673 49.288 5.38049 49.1413 5.32975C48.9946 5.27901 48.8355 5.27644 48.6873 5.32241C48.539 5.36839 48.4094 5.4605 48.3173 5.58527C48.2253 5.71005 48.1756 5.86094 48.1757 6.01588L48.1802 26.844C48.1802 27.9037 47.3194 28.7628 46.2576 28.7628C45.5939 28.7628 45.0089 28.4274 44.6633 27.9169L30.4696 5.60441C30.3816 5.47676 30.255 5.38053 30.1083 5.32981C29.9617 5.27909 29.8025 5.27652 29.6543 5.32249C29.506 5.36846 29.3764 5.46056 29.2843 5.58532C29.1923 5.71007 29.1426 5.86095 29.1426 6.01588L29.1395 27.6141C29.1395 28.2443 28.6277 28.7549 27.9963 28.7549L16.4589 28.7463C9.64316 28.7462 4.11775 23.2319 4.11775 16.4299C4.11775 9.62792 9.64316 4.11348 16.4588 4.11348L22.5949 4.10897V0.0167647Z" fill="#868688"/>
<path d="M23.2563 23.4852C23.4113 23.4852 23.56 23.4237 23.6696 23.3143C23.7793 23.2049 23.8409 23.0565 23.8409 22.9018L23.8424 6.0155C23.8423 2.6934 26.5411 0 29.8699 0C31.9803 0 33.8374 1.0824 34.9142 2.72124L42.861 15.1624L42.8753 6.01561C42.8753 2.6934 45.5739 0 48.9029 0C51.0132 0 52.8703 1.0824 53.9472 2.72124L61.8938 15.1624V0.0017858H66.0252L66.0178 26.8438C66.0178 26.9961 65.9697 27.1446 65.8804 27.2682C65.7911 27.3918 65.6651 27.4842 65.5203 27.5324C65.3755 27.5806 65.2191 27.582 65.0734 27.5366C64.9276 27.4912 64.7999 27.4012 64.7083 27.2793L50.4971 4.94277C50.1517 4.43245 49.5665 4.09683 48.9029 4.09683C47.841 4.09683 46.9802 4.9559 46.9802 6.01561L46.9849 26.8438C46.9848 26.9961 46.9367 27.1446 46.8474 27.2682C46.7581 27.3917 46.6321 27.4842 46.4873 27.5323C46.3424 27.5805 46.1861 27.582 46.0403 27.5366C45.8946 27.4912 45.7669 27.4011 45.6753 27.2793L31.4643 4.94277C31.1187 4.43245 30.5337 4.09683 29.8699 4.09683C28.8082 4.09683 27.9474 4.9559 27.9474 6.01561L27.956 27.0088C27.956 27.1635 27.8944 27.3119 27.7848 27.4213C27.6752 27.5308 27.5265 27.5922 27.3714 27.5922L16.4587 27.59C10.303 27.59 5.31274 22.5731 5.31274 16.4298C5.31274 10.2865 10.303 5.26946 16.4587 5.26946C16.4587 5.26946 22.5948 5.24562 22.5948 5.26946V9.40757L16.4587 9.40295C12.5702 9.40295 9.4178 12.549 9.4178 16.4298C9.4178 20.3105 12.5702 23.4932 16.4587 23.4932L23.2563 23.4852Z" fill="#868688"/>
</g>
<defs>
<clipPath id="clip0_76_144">
<rect width="71.3289" height="32.8594" fill="white"/>
</clipPath>
</defs>
</svg>
