<svg width="73" height="32" viewBox="0 0 73 32" fill="none" xmlns="http://www.w3.org/2000/svg">
<g clip-path="url(#clip0_76_147)">
<path d="M72.8163 31.1479H62.86C62.7684 31.1479 62.6012 30.7486 62.5535 30.6657C61.184 28.2108 59.8145 25.7442 58.4531 23.2933C56.996 25.9023 55.5789 28.5548 54.1258 31.1677C50.8654 31.1756 47.6329 31.1519 44.4004 31.1598C44.7666 30.4799 45.1568 29.8158 45.5469 29.1477C48.2659 24.4832 50.945 19.7554 53.668 15.0869C50.7739 10.0666 47.8359 5.08578 44.9258 0.0773294C44.9179 0.0773294 44.898 0.0457054 44.9179 0.0496584H54.922C56.1521 2.27125 57.3504 4.5205 58.5605 6.7579C59.8186 4.54027 61.0327 2.27915 62.2787 0.0496584H71.9484C71.9564 0.0891884 71.9285 0.132671 71.9086 0.164295C69.0861 5.08974 66.196 10.031 63.3774 14.9643C66.5105 20.3641 69.7032 25.76 72.8163 31.1479Z" fill="#868688"/>
<path d="M48.6446 12.1189C48.8993 13.1467 49.0466 14.2772 49.0466 15.4671C49.0466 19.1789 47.9639 21.9302 46.459 24.1676C46.2043 24.5472 45.9455 24.9108 45.6669 25.2587C44.8508 26.2865 43.8635 27.2233 42.7608 28.002C42.0203 28.5238 41.248 28.9982 40.3921 29.3975C38.6883 30.192 36.6301 30.8126 34.2575 30.8126C30.5473 30.8126 27.8083 29.69 25.591 28.1483C23.3736 26.6027 21.6458 24.559 20.4715 21.9816C19.6832 20.2542 19.1657 18.2619 19.106 15.8347C19.0781 14.633 19.2294 13.4471 19.4484 12.4193C20.0057 9.82614 21.1005 7.7943 22.4859 6.04312C23.8712 4.29589 25.6268 2.92815 27.7486 1.89642C28.5806 1.49321 29.5122 1.1493 30.5274 0.900261C31.5425 0.651222 32.6651 0.481243 33.8793 0.481243H33.8992C35.0855 0.425901 36.3435 0.615645 37.3307 0.83306C38.3578 1.05838 39.3093 1.40229 40.1572 1.78178C42.7846 2.95978 44.7432 4.72282 46.3197 6.92464C47.3587 8.36748 48.139 10.0989 48.6446 12.1189ZM36.7018 22.4204C36.7973 22.0409 36.7694 21.5547 36.7694 21.0527V9.62849C36.7694 9.13832 36.7137 8.75883 36.5704 8.40306C36.439 8.07891 36.236 7.78244 35.9971 7.54131C35.5314 7.0709 34.8307 6.64793 33.951 6.71513C33.525 6.74675 33.1707 6.88115 32.8602 7.07485C32.283 7.43853 31.8451 7.9959 31.6659 8.73511C31.5743 9.11065 31.5783 9.58896 31.5783 10.0831V21.5073C31.5783 21.7524 31.5664 21.9895 31.5982 22.199C31.6819 22.7999 31.9525 23.2822 32.3068 23.6419C32.7646 24.1044 33.4733 24.4918 34.3889 24.393C35.5712 24.2665 36.4391 23.4877 36.7018 22.4204ZM19.5121 8.53351H8.93472C8.89092 9.838 8.92675 11.2808 8.91481 12.5932C11.7731 12.617 14.6752 12.5972 17.5534 12.6011V21.112C14.6553 21.1199 11.7333 21.1001 8.85112 21.1199C8.8551 24.4957 8.87102 27.8084 8.87102 31.1842C8.87102 31.1961 8.867 31.2 8.86306 31.204H0.0452815C0.0293578 31.208 0.0293578 31.1961 0.017415 31.1961C-0.00248973 20.8313 -0.00248973 10.3993 0.0134738 0.0306007C0.0134738 0.0187417 0.0134738 0.00292969 0.0213959 0.00292969H18.9109C18.9229 0.00292969 18.9269 0.00292969 18.9308 0.0108357C19.1299 2.84909 19.321 5.6913 19.5121 8.53351Z" fill="#868688"/>
</g>
<defs>
<clipPath id="clip0_76_147">
<rect width="72.8149" height="31.2064" fill="white"/>
</clipPath>
</defs>
</svg>
