<svg width="116" height="28" viewBox="0 0 116 28" fill="none" xmlns="http://www.w3.org/2000/svg">
<path fill-rule="evenodd" clip-rule="evenodd" d="M52.2227 0.00124428L68.4159 15.2695V0.973558H73.6559V27.4552L57.4976 11.8869V26.5837H52.2227V0V0.00124428ZM76.5916 1.04328H87.6456C89.335 1.04328 94.1368 2.32807 94.3061 7.49965C94.4418 11.3516 91.2659 13.1456 91.2659 13.1456C92.989 13.9573 95.6258 15.9505 95.6258 20.0066C95.6258 23.963 92.1449 26.8688 89.1669 26.8688H76.5916V1.04079V1.04328ZM81.8988 11.4549H85.9226C87.5111 11.2507 88.7275 10.0344 88.7275 8.31137C88.7275 6.48501 87.1376 5.47285 85.8205 5.36952H81.8988V11.4549ZM81.9312 22.7131H86.5973C87.7813 22.6085 89.8068 21.5976 89.8068 19.2646C89.8068 16.9987 87.8124 15.9168 86.7305 15.882H81.93V22.7119H81.9312V22.7131ZM115.636 6.57091C110.092 2.88582 102.588 6.63814 102.113 13.4655C101.909 21.7507 110.09 25.1644 115.636 21.5802V26.8887C105.832 30.5389 96.8396 23.6431 96.806 13.6361C96.8396 5.15165 106.204 -2.35299 115.636 1.39809V6.57091Z" fill="#868688"/>
<path fill-rule="evenodd" clip-rule="evenodd" d="M38.3697 16.1571L25.249 24.9304L29.6686 14.4266L31.7639 9.53515C32.613 7.95404 34.2128 6.94563 35.9582 6.91699C37.6289 6.91699 39.1104 7.72124 40.0516 9.16415C41.019 10.6071 41.0737 12.9663 40.1064 14.4254C39.6529 15.1148 39.0626 15.7038 38.3722 16.1559H38.3697V16.1571Z" fill="#868688"/>
<path fill-rule="evenodd" clip-rule="evenodd" d="M31.8372 7.87333L25.3484 23.2125L25.0596 21.5393L23.1087 8.96516C23.0637 8.60984 23.1193 8.24901 23.2691 7.92372C23.419 7.59842 23.6572 7.32173 23.9565 7.12511L24.889 6.5711C24.9438 6.37813 24.6724 6.31215 24.5454 6.24616L22.7203 6.22873C22.6033 4.41482 23.3976 2.77146 24.9338 1.78047C26.1265 1.00362 27.9429 0.80069 29.2725 1.4294C30.9968 2.1328 32.1994 3.97161 32.2281 5.84902C32.2194 6.54246 32.1011 7.25458 31.8397 7.87457V7.87333H31.8372Z" fill="#868688"/>
<path fill-rule="evenodd" clip-rule="evenodd" d="M19.3779 23.2674L12.99 7.88964C12.304 6.24255 12.5929 4.07881 13.7681 2.74919C15.0243 1.35234 16.7959 0.760983 18.6197 1.23158C20.1647 1.61129 21.6101 3.09031 21.9911 4.67141C22.1704 5.26402 22.1442 5.97613 22.1094 6.62226L19.3804 23.2674H19.3779Z" fill="#868688"/>
<path fill-rule="evenodd" clip-rule="evenodd" d="M5.72122 15.6029C4.41027 14.465 3.82514 12.9474 4.01313 11.192C4.20361 9.41667 5.60419 7.67745 7.27493 7.14337C8.99174 6.60679 10.8617 7.03132 12.1091 8.31861C12.632 8.81784 12.9569 9.41044 13.2283 10.0205L19.4034 24.9625L5.72122 15.6054V15.6029Z" fill="#868688"/>
<path fill-rule="evenodd" clip-rule="evenodd" d="M4.31925 26.5187C2.61116 26.327 1.29648 25.4045 0.493478 23.8396C-0.319483 22.2585 -0.109085 20.0175 0.985238 18.617C2.17542 17.1902 3.89845 16.4719 5.63518 16.823C6.34231 16.9375 6.93492 17.2413 7.49391 17.5936L20.7764 26.525L4.31925 26.5187Z" fill="#868688"/>
<path fill-rule="evenodd" clip-rule="evenodd" d="M40.3793 26.5187C42.0874 26.327 43.4021 25.4045 44.2051 23.8396C45.018 22.2585 44.8052 20.0175 43.7133 18.617C42.5231 17.1902 40.8001 16.4719 39.0634 16.823C38.3562 16.9375 37.7636 17.2413 37.2047 17.5936L23.9209 26.525L40.3768 26.52H40.3793V26.5187Z" fill="#868688"/>
</svg>
