<svg width="80" height="48" viewBox="0 0 80 48" fill="none" xmlns="http://www.w3.org/2000/svg">
<path d="M34.4705 1.06406C34.4705 0.308949 33.9784 0 33.3569 0H29.4385C27.8845 0 26.7762 0.780177 26.7762 2.68028V36.2848C26.7762 37.0296 27.2709 37.3514 27.8975 37.3514H31.808C33.3655 37.3514 34.4703 36.5712 34.4703 34.6675V1.06406H34.4705ZM79.2543 12.3992C79.2543 11.7693 78.7897 11.4577 78.1545 11.4577H73.3992C72.4469 11.4577 72.0244 11.7943 71.6711 12.5666L64.9679 27.4645L55.6196 12.7228C55.049 11.8064 54.4327 11.4577 53.0467 11.4577H47.3959C46.2256 11.4577 45.593 11.7693 44.8964 12.5182L34.9439 23.2233L43.8664 36.2513C44.3846 36.9995 44.8154 37.3507 45.593 37.3507H50.9136C51.71 37.3507 52.1737 37.0297 52.1737 36.3601C52.1737 35.9545 51.9788 35.6886 51.71 35.3098L43.8665 23.6832L49.8146 17.2672L61.572 34.6678L56.3824 45.6601C56.2402 45.9872 56.0653 46.2987 56.0653 46.6103C56.0653 47.2471 56.5316 47.5526 57.1677 47.5526H61.8857C62.8442 47.5526 63.2597 47.222 63.6113 46.448L78.9432 13.352C79.0922 13.0248 79.2543 12.7227 79.2543 12.3992ZM9.57418 20.4147C8.01155 20.0626 7.5263 19.6199 7.5263 18.8313C7.5263 18.2177 8.01155 17.7284 9.42168 17.7284H20.83C22.7313 17.7284 23.4993 16.6169 23.4993 15.0643V12.5757C23.4993 11.9492 23.1865 11.4572 22.4383 11.4572H9.07605C3.12096 11.4572 0 14.9133 0 19.3084C0 23.2236 2.40052 25.6062 7.2057 26.6763L14.8723 28.3936C16.4317 28.7388 16.9152 29.1875 16.9152 29.9858C16.9152 30.5906 16.4317 31.08 15.0283 31.08H3.13412C1.23273 31.08 0.463795 32.1836 0.463795 33.7456V36.2292C0.463795 36.8462 0.770655 37.3511 1.51885 37.3511H14.5648C21.605 37.3511 24.4441 33.8984 24.4441 29.808C24.4441 25.5821 22.0118 23.1986 17.2402 22.1329L9.57418 20.4147Z" fill="#868688"/>
</svg>
