<svg width="56" height="57" viewBox="0 0 56 57" fill="none" xmlns="http://www.w3.org/2000/svg">
<path d="M39.6491 25.752L39.9206 25.3321L39.9102 25.3254L39.8996 25.3192L32.0064 20.7512L32.0055 20.7507L24.1668 16.2371L24.1668 16.2371L24.1652 16.2362C23.2939 15.7388 22.2847 15.6065 21.3849 15.8633C20.5209 16.1099 19.7062 16.6658 19.1973 17.5391C19.0843 17.6972 19.0149 17.8617 18.964 17.9997C18.9343 18.0804 18.9147 18.1386 18.8972 18.1909C18.8756 18.2552 18.857 18.3106 18.8261 18.3879L18.8206 18.4015L18.816 18.4155C18.7722 18.5468 18.7536 18.6863 18.741 18.7803L18.7402 18.7863L18.739 18.7954C18.725 18.9006 18.7148 18.9767 18.6964 19.0505L18.6814 19.1103V19.1719V19.1722V19.1725V19.1729V19.1732V19.1735V19.1738V19.1742V19.1745V19.1748V19.1752V19.1755V19.1758V19.1762V19.1765V19.1768V19.1772V19.1775V19.1778V19.1782V19.1785V19.1789V19.1792V19.1796V19.1799V19.1803V19.1806V19.1809V19.1813V19.1817V19.182V19.1824V19.1827V19.1831V19.1834V19.1838V19.1841V19.1845V19.1849V19.1852V19.1856V19.186V19.1863V19.1867V19.1871V19.1874V19.1878V19.1882V19.1885V19.1889V19.1893V19.1897V19.19V19.1904V19.1908V19.1912V19.1916V19.1919V19.1923V19.1927V19.1931V19.1935V19.1939V19.1942V19.1946V19.195V19.1954V19.1958V19.1962V19.1966V19.197V19.1974V19.1978V19.1982V19.1986V19.199V19.1994V19.1998V19.2002V19.2006V19.201V19.2014V19.2018V19.2022V19.2026V19.203V19.2034V19.2038V19.2042V19.2046V19.205V19.2054V19.2059V19.2063V19.2067V19.2071V19.2075V19.2079V19.2083V19.2088V19.2092V19.2096V19.21V19.2104V19.2109V19.2113V19.2117V19.2121V19.2126V19.213V19.2134V19.2138V19.2143V19.2147V19.2151V19.2155V19.216V19.2164V19.2168V19.2173V19.2177V19.2181V19.2186V19.219V19.2194V19.2199V19.2203V19.2208V19.2212V19.2216V19.2221V19.2225V19.2229V19.2234V19.2238V19.2243V19.2247V19.2252V19.2256V19.226V19.2265V19.2269V19.2274V19.2278V19.2283V19.2287V19.2292V19.2296V19.2301V19.2305V19.231V19.2314V19.2319V19.2323V19.2328V19.2332V19.2337V19.2341V19.2346V19.235V19.2355V19.236V19.2364V19.2369V19.2373V19.2378V19.2382V19.2387V19.2392V19.2396V19.2401V19.2405V19.241V19.2415V19.2419V19.2424V19.2428V19.2433V19.2438V19.2442V19.2447V19.2452V19.2456V19.2461V19.2466V19.247V19.2475V19.248V19.2484V19.2489V19.2494V19.2498V19.2503V19.2508V19.2512V19.2517V19.2522V19.2526V19.2531V19.2536V19.254V19.2545V19.255V19.2555V19.2559V19.2564V19.2569V19.2573V19.2578V19.2583V19.2588V19.2592V19.2597V19.2602V19.2607V19.2611V19.2616V19.2621V19.2626V19.263V19.2635V19.264V19.2645V19.2649V19.2654V19.2659V19.2664V19.2668V19.2673V19.2678V19.2683V19.2687V19.2692V19.2697V19.2702V19.2706V19.2711V19.2716V19.2721V19.2725V19.273V19.2735V19.274V19.2745V19.2749V19.2754V19.2759V19.2764V19.2768V19.2773V19.2778V19.2783V19.2788V19.2792V19.2797V19.2802V19.2807V19.2811V19.2816V19.2821V19.2826V19.2831V19.2835V19.284V19.2845V19.285V19.2854V19.2859V19.2864V19.2869V19.2874V19.2878V19.2883V19.2888V19.2893V19.2897V19.2902V19.2907V19.2912V19.2917V19.2921V19.2926V19.2931V19.2936V19.294V19.2945V19.295V19.2955V19.2959V19.2964V19.2969V19.2974V19.2978V19.2983V19.2988V19.2993V19.2997V19.3002V19.3007V19.3012V19.3016V19.3021V19.3026V19.303V19.3035V19.304V19.3045V19.3049V19.3054V19.3059V19.3064V19.3068V19.3073V19.3078V19.3082V19.3087V19.3092V19.3096V19.3101V19.3106V19.311V19.3115V19.312V19.3124V19.3129V19.3134V19.3138V19.3143V19.3148V19.3152V19.3157V19.3162V19.3166V19.3171V19.3176V19.318V19.3185V19.319V19.3194V19.3199V19.3203V19.3208V19.3213V19.3217V19.3222V19.3226V19.3231V19.3236V19.324V19.3245V19.3249V19.3254V19.3258V19.3263V19.3267V19.3272V19.3277V19.3281V19.3286V19.329V19.3295V19.3299V19.3304V19.3308V19.3313V19.3317V19.3322V19.3326V19.3331V19.3335V19.334V19.3344V19.3348V19.3353V19.3357V19.3362V19.3366V19.3371V19.3375V19.3379V19.3384V19.3388V19.3393V19.3397V19.3401V19.3406V19.341V19.3415V19.3419V19.3423V19.3428V19.3432V19.3436V19.3441V19.3445V19.3449V19.3454V19.3458V19.3462V19.3466V19.3471V19.3475V19.3479V19.3484V19.3488V19.3492V19.3496V19.35V19.3505V19.3509V19.3513V19.3517V19.3522V19.3526V19.353V19.3534V19.3538V19.3542V19.3547V19.3551V19.3555V19.3559V19.3563V19.3567V19.3571V19.3575V19.3579V19.3583V19.3588V19.3592V19.3596V19.36V19.3604V19.3608V19.3612V19.3616V19.362V19.3624V19.3628V19.3632V19.3636V19.364V19.3644V19.3647V19.3651V19.3655V19.3659V19.3663V19.3667V19.3671V19.3675V19.3679V19.3682V19.3686V19.369V19.3694V19.3698V19.3702V19.3705V19.3709V19.3713V19.3717V19.372V19.3724V19.3728V19.3732V19.3735V19.3739V19.3743V19.3746V19.375V19.3754V19.3757V19.3761V19.3765V19.3768V19.3772V19.3775V19.3779V19.3783V19.3786V19.379V19.3793V19.3797V19.38V19.3804V19.3807V19.3811V19.3814V19.3818V19.3821V19.3825V19.3828V19.3832V19.3835V19.3838V19.3842V19.3845V19.3848V19.3852V19.3855V19.3859V19.3862V19.3865V19.3868V19.3872V19.3875V19.3878V19.3881V19.3885V19.3888V19.3891V19.3894V28.6341V37.8789C18.6814 38.8904 19.1216 39.831 19.7534 40.4622C20.4443 41.1524 21.3328 41.5329 22.3387 41.5329C22.6818 41.5329 23.1384 41.393 23.4899 41.2647C23.8526 41.1323 24.2107 40.9715 24.3881 40.866L31.9987 36.4755H32.1262L32.2727 36.3293L32.2807 36.3213L40.2236 31.733C40.224 31.7328 40.2245 31.7326 40.2249 31.7323C41.1118 31.2255 41.6755 30.4061 41.9251 29.483C42.0007 29.2438 42.0003 28.9624 42 28.7758C42 28.7645 41.9999 28.7535 41.9999 28.7429C41.9999 27.6714 41.4496 26.8094 40.9492 26.2433C40.6951 25.9559 40.4421 25.7312 40.2526 25.578C40.1574 25.5012 40.0773 25.4415 40.0197 25.4003C39.9908 25.3796 39.9675 25.3635 39.9507 25.3521L39.9305 25.3385L39.9242 25.3344L39.922 25.333L39.9212 25.3325L39.9209 25.3323C39.9207 25.3322 39.9206 25.3321 39.6491 25.752ZM38.337 28.5131L38.3356 28.5139L38.337 28.5131ZM38.2825 28.5376C38.2827 28.5377 38.2845 28.5386 38.2877 28.5406L30.4814 33.0583C30.4007 33.0845 30.3427 33.1212 30.3153 33.1394C30.2986 33.1506 30.2837 33.1615 30.2708 33.1715L22.5787 37.6089L22.5217 37.6418L22.5115 37.652C22.4972 37.6587 22.4788 37.6667 22.4576 37.675V28.5798V19.4348L22.4699 19.4419L30.1591 23.8777C30.229 23.9328 30.3011 23.9682 30.3664 23.9899C30.4024 24.0019 30.4357 24.0096 30.4648 24.0144L38.2555 28.5231L38.2688 28.5308L38.2825 28.5376C38.2825 28.5376 38.2825 28.5376 38.2825 28.5376ZM22.175 19.335L22.0664 19.2263C22.1082 19.2681 22.1441 19.3041 22.175 19.335C22.1952 19.3552 22.2133 19.3733 22.2294 19.3894C22.303 19.4631 22.3368 19.4969 22.3523 19.5124C22.3523 19.5124 22.3523 19.5124 22.3523 19.5125L22.2293 19.3894L22.175 19.335Z" fill="#3A3A3B" stroke="#3A3A3B"/>
<path d="M8.59421 9.0842L8.5924 9.08602C3.21765 14.5107 0.5 21.5443 0.5 28.5799C0.5 35.6125 3.16118 42.6481 8.53977 48.0213C13.9183 53.3944 20.9608 56.0527 28 56.0527C35.0392 56.0527 42.0817 53.3944 47.4602 48.0213C52.8388 42.6481 55.5 35.6125 55.5 28.5799C55.5 21.5477 52.8391 14.5126 47.4611 9.1395C42.1379 3.76668 35.0954 1.05273 28.0544 1.05273C21.0152 1.05273 13.9728 3.71105 8.59421 9.0842ZM44.8503 45.3541L44.8482 45.3561C40.2089 49.9908 34.1315 52.3337 28.0544 52.3337C21.9773 52.3337 15.9 49.9908 11.2606 45.3561L11.2586 45.3541C6.56855 40.722 4.27621 34.653 4.27621 28.5799C4.27621 22.5094 6.6213 16.4384 11.2606 11.8037C15.9 7.16906 21.9773 4.82615 28.0544 4.82615C34.1315 4.82615 40.2089 7.16906 44.8482 11.8037C49.4876 16.4384 51.8327 22.5094 51.8327 28.5799C51.8327 34.653 49.5403 40.722 44.8503 45.3541Z" fill="#3A3A3B" stroke="#3A3A3B"/>
</svg>
