<svg viewBox="0 0 37 33" fill="none" xmlns="http://www.w3.org/2000/svg">
<g filter="url(#filter0_d_453_525)">
<circle cx="18.5" cy="17.4999" r="15.84" fill="#9AC17E"/>
</g>
<path d="M25.988 25.3635H20.3254C21.3368 24.8389 21.9728 24.0381 21.9728 23.1252C21.9728 22.3002 21.4505 21.566 20.6023 21.0452C21.1594 21.0307 21.7131 20.9521 22.2523 20.8111C23.3327 20.5123 23.9842 19.9662 24.0871 19.2737C24.2054 18.4766 23.5643 17.6521 22.3278 17.0122C22.2901 16.9903 22.2483 16.9763 22.2049 16.971C22.1616 16.9657 22.1177 16.9693 22.0758 16.9815C22.0339 16.9938 21.9949 17.0144 21.9612 17.0421C21.9275 17.0698 21.8998 17.1041 21.8797 17.1429C21.8597 17.1816 21.8477 17.2241 21.8446 17.2676C21.8414 17.3111 21.8471 17.3549 21.8614 17.3961C21.8756 17.4374 21.8981 17.4753 21.9274 17.5076C21.9568 17.5399 21.9924 17.5659 22.0321 17.584C22.9801 18.0739 23.5235 18.6857 23.4501 19.1784C23.3879 19.5973 22.8888 19.9657 22.0808 20.1892C21.001 20.4468 19.8802 20.4839 18.7857 20.2983C16.1921 19.9134 14.5233 18.7107 14.6478 17.8718C14.7723 17.0328 16.7186 16.3669 19.3122 16.7516C19.8597 16.8315 20.3995 16.9572 20.9261 17.1272C21.0073 17.1537 21.0958 17.1468 21.172 17.1081C21.2482 17.0694 21.3059 17.002 21.3324 16.9207C21.3589 16.8394 21.352 16.751 21.3133 16.6748C21.2745 16.5986 21.2071 16.5409 21.1259 16.5144C20.565 16.3332 19.99 16.1993 19.4068 16.114C19.316 16.1006 19.2263 16.0916 19.1374 16.0805C19.9737 15.6729 20.5071 15.0273 20.5071 14.2851C20.5071 13.4431 19.8216 12.7248 18.7844 12.3386C19.5424 11.9887 20.0596 11.4105 20.0596 10.7832C20.0596 9.77774 18.8563 8.99219 17.32 8.99219C15.7837 8.99219 14.5805 9.77877 14.5805 10.7832C14.5846 11.0752 14.6842 11.3578 14.8641 11.5878C14.8895 11.6217 14.9213 11.6502 14.9577 11.6718C14.9942 11.6933 15.0345 11.7075 15.0764 11.7135C15.1183 11.7195 15.1609 11.7172 15.2019 11.7067C15.2429 11.6962 15.2814 11.6777 15.3153 11.6523C15.3492 11.6269 15.3777 11.5951 15.3992 11.5587C15.4208 11.5223 15.435 11.482 15.441 11.4401C15.4469 11.3982 15.4446 11.3555 15.4341 11.3145C15.4236 11.2735 15.4051 11.235 15.3797 11.2011C15.284 11.083 15.2301 10.9365 15.2263 10.7845C15.2263 10.1629 16.1857 9.63801 17.3213 9.63801C18.457 9.63801 19.4163 10.1629 19.4163 10.7845C19.4163 11.3494 18.3851 12.039 17.1819 12.039C17.1785 12.039 17.1759 12.0408 17.1726 12.0408C17.1192 12.0393 17.0669 12.0359 17.013 12.0359C15.0536 12.0359 13.5173 13.0244 13.5173 14.2864C13.5173 15.2132 14.3472 15.9908 15.5638 16.3393C14.686 16.6451 14.1062 17.1416 14.0118 17.7782C13.8715 18.7225 14.8345 19.6829 16.3896 20.3197C14.3683 20.6133 12.9017 21.7395 12.9017 23.1255C12.9117 23.4467 12.9904 23.7621 13.1326 24.0503C13.2748 24.3385 13.4771 24.5929 13.7259 24.7964C13.7572 24.8256 13.794 24.8483 13.8342 24.8632C13.8743 24.878 13.9171 24.8848 13.9599 24.8829C14.0027 24.8811 14.0447 24.8707 14.0834 24.8524C14.1221 24.8342 14.1569 24.8083 14.1855 24.7765C14.2142 24.7447 14.2362 24.7074 14.2503 24.667C14.2644 24.6265 14.2703 24.5837 14.2676 24.5409C14.2649 24.4982 14.2538 24.4564 14.2348 24.418C14.2158 24.3796 14.1893 24.3454 14.1569 24.3173C13.9775 24.1722 13.8302 23.9912 13.7247 23.786C13.6192 23.5807 13.5577 23.3556 13.5441 23.1252C13.5441 21.9117 15.3264 20.8866 17.4371 20.8866C19.5478 20.8866 21.3301 21.9117 21.3301 23.1252C21.3301 24.3387 19.546 25.3635 17.4361 25.3635H11.0121C10.9267 25.3635 10.8447 25.3975 10.7843 25.4579C10.7238 25.5184 10.6899 25.6003 10.6899 25.6858C10.6899 25.7713 10.7238 25.8532 10.7843 25.9137C10.8447 25.9741 10.9267 26.0081 11.0121 26.0081H25.988C26.0734 26.0081 26.1554 25.9741 26.2158 25.9137C26.2763 25.8532 26.3102 25.7713 26.3102 25.6858C26.3102 25.6003 26.2763 25.5184 26.2158 25.4579C26.1554 25.3975 26.0734 25.3635 25.988 25.3635ZM14.1598 14.2856C14.1598 13.4152 15.4653 12.6797 17.0109 12.6797C18.5565 12.6797 19.8621 13.415 19.8621 14.2856C19.8621 15.1562 18.5563 15.8915 17.0109 15.8915C15.4656 15.8915 14.1598 15.156 14.1598 14.2856Z" fill="white"/>
<defs>
<filter id="filter0_d_453_525" x="0.0200036" y="0.339912" width="36.96" height="36.9599" filterUnits="userSpaceOnUse" color-interpolation-filters="sRGB">
<feFlood flood-opacity="0" result="BackgroundImageFix"/>
<feColorMatrix in="SourceAlpha" type="matrix" values="0 0 0 0 0 0 0 0 0 0 0 0 0 0 0 0 0 0 127 0" result="hardAlpha"/>
<feOffset dy="1.32"/>
<feGaussianBlur stdDeviation="1.32"/>
<feComposite in2="hardAlpha" operator="out"/>
<feColorMatrix type="matrix" values="0 0 0 0 0 0 0 0 0 0 0 0 0 0 0 0 0 0 0.12 0"/>
<feBlend mode="normal" in2="BackgroundImageFix" result="effect1_dropShadow_453_525"/>
<feBlend mode="normal" in="SourceGraphic" in2="effect1_dropShadow_453_525" result="shape"/>
</filter>
</defs>
</svg>
