<svg width="32" height="32" viewBox="0 0 32 32" fill="none" xmlns="http://www.w3.org/2000/svg">
<circle cx="16" cy="16" r="16" fill="#B38DB2"/>
<g clip-path="url(#clip0_453_562)">
<path d="M20.912 9.62304H20.7883V9.29632C20.7864 8.58118 20.2072 8.00194 19.492 8C18.7769 8.00194 18.1977 8.58118 18.1957 9.29632V9.62304H13.1429V9.29632C13.1414 8.95489 13.0049 8.62794 12.7632 8.38678C12.5208 8.14376 12.1916 8.00715 11.8484 8.00706C11.1332 8.00508 10.5508 8.58118 10.545 9.29632V9.62304H10.4213C9.16446 9.62596 8.14741 10.6462 8.14838 11.9031V22.3955C8.15226 23.6489 9.1679 24.6638 10.4213 24.6667H20.912C22.1661 24.6638 23.182 23.6478 23.1849 22.3937V11.9031C23.1859 10.6462 22.1689 9.62596 20.912 9.62304ZM18.6832 9.87736V9.29632C18.6851 8.85333 19.0437 8.49468 19.4867 8.49274C19.9297 8.49468 20.2884 8.85333 20.2903 9.29632V10.4584C20.2884 10.9014 19.9297 11.26 19.4867 11.262C19.0433 11.261 18.6841 10.9018 18.6832 10.4584V9.87736ZM11.0448 9.88266V9.29632C11.0467 8.85333 11.4054 8.49468 11.8484 8.49274C12.2913 8.49468 12.65 8.85333 12.6519 9.29632V10.4584C12.65 10.9014 12.2913 11.26 11.8484 11.262C11.405 11.261 11.0457 10.9018 11.0448 10.4584V9.88266ZM8.64112 11.9031C8.645 10.9218 9.44006 10.1275 10.4213 10.1246H10.545V10.4584C10.5469 11.1735 11.1262 11.7528 11.8413 11.7547C12.5564 11.7528 13.1357 11.1735 13.1376 10.4584V10.1246L18.1904 10.1228V10.4566C18.1924 11.1718 18.7716 11.751 19.4867 11.753C20.2032 11.7539 20.7854 11.1749 20.7883 10.4584V10.1246H20.919C21.901 10.1275 22.6963 10.9228 22.6993 11.9048V14.0948H8.64112V11.9031ZM20.912 24.1757H10.4213C9.43935 24.1728 8.64403 23.3775 8.64112 22.3955V14.5875H22.6922L22.701 22.4008C22.6952 23.3841 21.8953 24.1776 20.912 24.1757Z" fill="white"/>
<path d="M18.3195 15.9605C17.3531 15.699 16.3223 16.0137 15.6666 16.7703C14.7233 15.6815 13.0759 15.5636 11.987 16.507C11.2303 17.1626 10.9157 18.1934 11.1772 19.1599C11.3892 20.0835 11.9455 20.8341 12.7314 21.4681C13.5173 22.1022 14.4798 22.5914 15.573 23.0417C15.633 23.0665 15.7003 23.0665 15.7603 23.0417C16.8535 22.5914 17.8372 22.0845 18.6019 21.4681C19.3666 20.8518 19.9459 20.0835 20.1561 19.1599C20.5324 17.7692 19.7101 16.3368 18.3195 15.9605ZM19.7357 18.7643C19.7231 18.8572 19.7042 18.9493 19.6792 19.0398V19.0504C19.5026 19.8557 18.9993 20.518 18.2964 21.0849C17.4915 21.6918 16.6065 22.1845 15.6666 22.549C14.728 22.1842 13.8443 21.6915 13.0405 21.0849C12.334 20.518 11.8413 19.8486 11.6576 19.0504V19.0256C11.6346 18.9403 11.6169 18.8536 11.6046 18.766C11.5925 18.6723 11.5866 18.5779 11.587 18.4834C11.5851 17.9228 11.8055 17.3843 12.1998 16.9858L12.2016 16.9893C13.03 16.1625 14.3719 16.1638 15.1987 16.9923C15.2974 17.0912 15.3861 17.1997 15.4635 17.3161C15.5375 17.4297 15.6896 17.4618 15.8032 17.3879C15.8319 17.3692 15.8564 17.3448 15.875 17.3161C16.0691 17.0254 16.3318 16.787 16.6398 16.622C17.6734 16.0728 18.9565 16.4655 19.5057 17.4992C19.6665 17.8019 19.7515 18.139 19.7534 18.4817C19.7537 18.5762 19.7479 18.6706 19.7357 18.7643Z" fill="white"/>
</g>
<defs>
<clipPath id="clip0_453_562">
<rect width="16.6667" height="16.6667" fill="white" transform="translate(7.33331 8)"/>
</clipPath>
</defs>
</svg>
