<svg  viewBox="0 0 38 34" fill="none" xmlns="http://www.w3.org/2000/svg">
<g filter="url(#filter0_d_453_657)">
<circle cx="19" cy="18" r="16" fill="#00C0C5"/>
</g>
<path d="M26.312 22.4476C26.4485 22.1911 26.52 21.9049 26.5203 21.6143C26.5203 21.528 26.486 21.4452 26.4249 21.3841C26.3639 21.3231 26.2811 21.2888 26.1948 21.2888H23.4271V18.3937C23.4259 17.5673 23.1337 16.7677 22.6016 16.1353C22.0696 15.5029 21.3317 15.0782 20.5177 14.9357C20.7762 14.6994 20.9757 14.4058 21.1 14.0785C21.2244 13.7511 21.2702 13.3991 21.2337 13.0508C21.1972 12.7025 21.0795 12.3676 20.89 12.0731C20.7005 11.7786 20.4445 11.5327 20.1427 11.3552C20.2531 11.1615 20.3119 10.9427 20.3133 10.7198C20.3137 10.519 20.2682 10.3208 20.1801 10.1404C20.092 9.95999 19.9637 9.8022 19.8051 9.67914C19.6464 9.55608 19.4617 9.47103 19.265 9.43054C19.0684 9.39005 18.8651 9.3952 18.6707 9.44558C18.4764 9.49596 18.2962 9.59024 18.144 9.72116C17.9918 9.85209 17.8716 10.0162 17.7928 10.2008C17.7139 10.3854 17.6784 10.5857 17.6891 10.7862C17.6997 10.9867 17.7562 11.182 17.8541 11.3573C17.5529 11.5352 17.2976 11.7812 17.1086 12.0757C16.9197 12.3702 16.8025 12.7048 16.7664 13.0528C16.7302 13.4008 16.7762 13.7524 16.9006 14.0794C17.0249 14.4064 17.2243 14.6997 17.4825 14.9357C16.6684 15.0781 15.9305 15.5028 15.3984 16.1352C14.8663 16.7676 14.5741 17.5673 14.5729 18.3937V20.3437C14.5729 20.4301 14.6072 20.5129 14.6682 20.5739C14.7293 20.635 14.8121 20.6693 14.8984 20.6693C14.9847 20.6693 15.0675 20.635 15.1286 20.5739C15.1896 20.5129 15.2239 20.4301 15.2239 20.3437V18.3937C15.2248 17.6347 15.5268 16.907 16.0635 16.3704C16.6002 15.8337 17.3279 15.5318 18.087 15.531H19.913C20.672 15.5318 21.3997 15.8337 21.9365 16.3704C22.4732 16.907 22.7751 17.6347 22.776 18.3937V22.4901L19 22.8367L15.2239 22.4901V21.6133C15.2239 21.5269 15.1896 21.4441 15.1286 21.3831C15.0675 21.322 14.9847 21.2877 14.8984 21.2877H11.806C11.7196 21.2877 11.6368 21.322 11.5758 21.3831C11.5147 21.4441 11.4804 21.5269 11.4804 21.6133C11.4803 21.9038 11.5513 22.1899 11.6872 22.4466C11.2345 22.6499 10.8653 23.0023 10.641 23.445C10.4168 23.8877 10.3512 24.3938 10.4551 24.8791C10.559 25.3643 10.8261 25.7992 11.212 26.1113C11.5978 26.4233 12.079 26.5936 12.5752 26.5937H22.0804C22.1668 26.5937 22.2496 26.5594 22.3106 26.4984C22.3717 26.4373 22.406 26.3545 22.406 26.2682V23.4466C22.4054 23.3964 22.393 23.347 22.3698 23.3024C22.3466 23.2578 22.3132 23.2194 22.2724 23.1901L22.7883 23.1427C22.8022 23.2155 22.841 23.2813 22.898 23.3288C22.9549 23.3762 23.0266 23.4025 23.1008 23.4031H24.7291C25.1507 23.4033 25.5586 23.254 25.8804 22.9818C26.227 23.0894 26.5233 23.3179 26.7155 23.6256C26.9078 23.9334 26.9832 24.2999 26.928 24.6585C26.8728 25.0171 26.6907 25.344 26.4148 25.5797C26.1389 25.8154 25.7876 25.9442 25.4247 25.9427H23.5357C23.4493 25.9427 23.3665 25.977 23.3055 26.038C23.2444 26.0991 23.2101 26.1819 23.2101 26.2682C23.2101 26.3545 23.2444 26.4373 23.3055 26.4984C23.3665 26.5594 23.4493 26.5937 23.5357 26.5937H25.4247C25.9211 26.5942 26.4026 26.4242 26.7887 26.1123C27.1749 25.8003 27.4422 25.3653 27.5461 24.8799C27.65 24.3945 27.5841 23.8881 27.3594 23.4455C27.1348 23.0028 26.765 22.6507 26.312 22.4479V22.4476ZM18.338 10.7195C18.338 10.5439 18.4077 10.3756 18.5319 10.2514C18.656 10.1273 18.8244 10.0575 19 10.0575C19.1755 10.0575 19.3439 10.1273 19.4681 10.2514C19.5922 10.3756 19.662 10.5439 19.662 10.7195C19.6617 10.8587 19.6171 10.9941 19.5346 11.1062C19.1835 11.0167 18.8156 11.0167 18.4646 11.1062C18.3827 10.9939 18.3384 10.8585 18.338 10.7195V10.7195ZM17.4052 13.2851C17.4052 12.9697 17.4987 12.6614 17.674 12.3991C17.8492 12.1369 18.0983 11.9325 18.3897 11.8117C18.6811 11.691 19.0017 11.6595 19.3111 11.721C19.6205 11.7825 19.9046 11.9344 20.1277 12.1575C20.3507 12.3805 20.5026 12.6647 20.5641 12.974C20.6257 13.2834 20.5941 13.604 20.4734 13.8954C20.3527 14.1868 20.1483 14.4359 19.886 14.6112C19.6237 14.7864 19.3154 14.8799 19 14.8799C18.5772 14.8794 18.1718 14.7113 17.8728 14.4123C17.5738 14.1133 17.4057 13.708 17.4052 13.2851V13.2851ZM14.5729 21.9388V22.7526H13.2708C13.0255 22.7523 12.7868 22.673 12.5901 22.5264C12.3935 22.3798 12.2492 22.1738 12.1789 21.9388H14.5729ZM21.756 25.9427H12.5752C12.2128 25.9436 11.8621 25.8145 11.5868 25.5789C11.3114 25.3433 11.1297 25.0168 11.0745 24.6586C11.0194 24.3004 11.0945 23.9343 11.2862 23.6268C11.478 23.3193 11.7736 23.0907 12.1195 22.9825C12.4414 23.2547 12.8493 23.4039 13.2708 23.4036H14.8984C14.9726 23.403 15.0442 23.3768 15.1012 23.3293C15.1582 23.2818 15.197 23.216 15.2109 23.1432L21.756 23.744V25.9427ZM23.4271 22.7526V21.9388H25.8211C25.7507 22.1738 25.6065 22.3798 25.4098 22.5264C25.2131 22.673 24.9744 22.7523 24.7291 22.7526H23.4271Z" fill="white"/>
<defs>
<filter id="filter0_d_453_657" x="0.333333" y="0.666667" width="37.3333" height="37.3333" filterUnits="userSpaceOnUse" color-interpolation-filters="sRGB">
<feFlood flood-opacity="0" result="BackgroundImageFix"/>
<feColorMatrix in="SourceAlpha" type="matrix" values="0 0 0 0 0 0 0 0 0 0 0 0 0 0 0 0 0 0 127 0" result="hardAlpha"/>
<feOffset dy="1.33333"/>
<feGaussianBlur stdDeviation="1.33333"/>
<feComposite in2="hardAlpha" operator="out"/>
<feColorMatrix type="matrix" values="0 0 0 0 0 0 0 0 0 0 0 0 0 0 0 0 0 0 0.12 0"/>
<feBlend mode="normal" in2="BackgroundImageFix" result="effect1_dropShadow_453_657"/>
<feBlend mode="normal" in="SourceGraphic" in2="effect1_dropShadow_453_657" result="shape"/>
</filter>
</defs>
</svg>
