<svg width="32" height="32" viewBox="0 0 32 32" fill="none" xmlns="http://www.w3.org/2000/svg">
<circle cx="16" cy="15.9999" r="15.36" fill="#F07F57"/>
<path d="M26.119 11.8955C25.5413 11.251 24.8344 10.7353 24.0443 10.3821C23.2541 10.0289 22.3985 9.84606 21.533 9.84546H10.604C7.25399 9.84546 4.43274 12.5057 4.31649 15.776C4.27014 17.0434 4.6165 18.2942 5.30819 19.3573C5.99988 20.4204 7.00311 21.2438 8.18065 21.715C9.35819 22.1861 10.6525 22.2819 11.8866 21.9894C13.1207 21.6968 14.2343 21.0301 15.075 20.0805C15.1913 19.9487 15.3342 19.8432 15.4943 19.7707C15.6544 19.6983 15.828 19.6606 16.0037 19.6602C16.1775 19.6595 16.3494 19.6962 16.5078 19.7678C16.6662 19.8394 16.8072 19.9442 16.9215 20.0752C17.7092 20.9676 18.7388 21.6124 19.8855 21.9315C21.0322 22.2506 22.2469 22.2303 23.3823 21.8731C24.5177 21.5159 25.5252 20.8371 26.2827 19.9189C27.0401 19.0007 27.5151 17.8826 27.65 16.7C27.7517 15.8363 27.6677 14.9608 27.4037 14.1323C27.1397 13.3037 26.7017 12.541 26.119 11.8955ZM26.7792 16.603C26.663 17.6171 26.2552 18.5758 25.6053 19.3629C24.9554 20.1501 24.0913 20.7319 23.1175 21.038C22.1437 21.3441 21.102 21.3614 20.1186 21.0876C19.1353 20.8139 18.2523 20.2609 17.5767 19.4957C17.3797 19.2728 17.1377 19.0942 16.8666 18.9717C16.5955 18.8492 16.3015 18.7857 16.004 18.7852C15.7043 18.7855 15.4082 18.8493 15.135 18.9725C14.8619 19.0957 14.618 19.2755 14.4195 19.5C13.6982 20.3144 12.743 20.8862 11.6844 21.1371C10.6258 21.3879 9.51552 21.3057 8.50547 20.9015C7.49542 20.4973 6.6349 19.7909 6.04161 18.879C5.44833 17.9671 5.15124 16.8942 5.19099 15.807C5.29099 13.0022 7.71899 10.7205 10.604 10.7205H21.533C22.2772 10.7206 23.013 10.8781 23.6921 11.1825C24.3712 11.4868 24.9783 11.9313 25.4736 12.4867C25.9689 13.0421 26.3413 13.6959 26.5663 14.4053C26.7913 15.1147 26.8639 15.8636 26.7792 16.603Z" fill="white"/>
<path d="M13.7466 15.2176L13.0133 14.7941C12.9172 14.7388 12.8037 14.7221 12.6957 14.7476C12.5878 14.773 12.4936 14.8387 12.4323 14.9311C12.0292 15.3124 11.4954 15.5248 10.9405 15.5248C10.3856 15.5248 9.85176 15.3124 9.4486 14.9311C9.38734 14.8387 9.29317 14.773 9.18525 14.7475C9.07733 14.722 8.96375 14.7386 8.8676 14.7938L8.13435 15.2173C8.08419 15.2459 8.04017 15.284 8.00482 15.3296C7.96947 15.3752 7.94349 15.4274 7.92837 15.483C7.91325 15.5387 7.9093 15.5968 7.91674 15.6541C7.92417 15.7113 7.94285 15.7665 7.9717 15.8164C8.00055 15.8664 8.039 15.9102 8.08483 15.9452C8.13067 15.9803 8.18298 16.0059 8.23876 16.0206C8.29454 16.0354 8.35269 16.039 8.40985 16.0311C8.46702 16.0233 8.52207 16.0043 8.57185 15.9751L9.0166 15.7183C9.0916 15.7801 9.17035 15.8368 9.25035 15.8903L9.02935 16.3366C9.00386 16.3881 8.98875 16.4441 8.98491 16.5014C8.98106 16.5588 8.98855 16.6163 9.00693 16.6707C9.02532 16.7252 9.05425 16.7755 9.09207 16.8187C9.12989 16.862 9.17585 16.8974 9.22735 16.9228C9.27884 16.9483 9.33486 16.9634 9.39219 16.9673C9.44952 16.9711 9.50704 16.9636 9.56148 16.9453C9.61592 16.9269 9.6662 16.8979 9.70946 16.8601C9.75272 16.8223 9.78811 16.7763 9.8136 16.7248L10.0413 16.2648C10.1862 16.3089 10.3342 16.3419 10.4841 16.3636V16.8263C10.4841 16.9424 10.5302 17.0537 10.6122 17.1357C10.6943 17.2178 10.8056 17.2638 10.9216 17.2638C11.0376 17.2638 11.1489 17.2178 11.231 17.1357C11.313 17.0537 11.3591 16.9424 11.3591 16.8263V16.3693C11.5218 16.3477 11.6825 16.3128 11.8396 16.2651L12.0673 16.7251C12.0922 16.7776 12.1273 16.8246 12.1705 16.8634C12.2138 16.9022 12.2643 16.932 12.3192 16.9511C12.3741 16.9701 12.4322 16.9781 12.4902 16.9744C12.5481 16.9708 12.6048 16.9556 12.6569 16.9298C12.7089 16.9041 12.7553 16.8682 12.7934 16.8243C12.8314 16.7804 12.8603 16.7293 12.8784 16.6741C12.8965 16.6189 12.9035 16.5607 12.8988 16.5028C12.8942 16.4449 12.878 16.3884 12.8513 16.3368L12.6303 15.8906C12.7103 15.8371 12.7886 15.7803 12.8643 15.7186L13.3091 15.9748C13.4095 16.0319 13.5285 16.047 13.64 16.0167C13.7515 15.9865 13.8465 15.9133 13.9042 15.8133C13.962 15.7132 13.9778 15.5944 13.9483 15.4827C13.9188 15.371 13.8463 15.2755 13.7466 15.2171V15.2176Z" fill="white"/>
<path d="M23.8657 15.2179L23.1325 14.7944C23.0363 14.7391 22.9227 14.7225 22.8147 14.748C22.7068 14.7735 22.6125 14.8392 22.5512 14.9316C22.1481 15.3129 21.6143 15.5253 21.0595 15.5253C20.5046 15.5253 19.9709 15.3129 19.5677 14.9316C19.5064 14.8392 19.4123 14.7736 19.3043 14.7482C19.1964 14.7227 19.0829 14.7393 18.9867 14.7946L18.2535 15.2181C18.2033 15.2466 18.1593 15.2848 18.124 15.3304C18.0886 15.376 18.0626 15.4281 18.0475 15.4838C18.0324 15.5395 18.0284 15.5976 18.0359 15.6548C18.0433 15.712 18.062 15.7672 18.0908 15.8172C18.1197 15.8672 18.1581 15.9109 18.204 15.946C18.2498 15.981 18.3021 16.0067 18.3579 16.0214C18.4137 16.0361 18.4718 16.0397 18.529 16.0319C18.5862 16.0241 18.6412 16.005 18.691 15.9759L19.1357 15.7191C19.2107 15.7809 19.2897 15.8376 19.3697 15.8911L19.15 16.3371C19.1206 16.3889 19.1021 16.4461 19.0956 16.5052C19.0891 16.5644 19.0948 16.6242 19.1122 16.6811C19.1296 16.738 19.1585 16.7908 19.197 16.8361C19.2355 16.8815 19.2829 16.9185 19.3362 16.945C19.3895 16.9714 19.4477 16.9867 19.5071 16.9898C19.5665 16.993 19.626 16.9841 19.6818 16.9635C19.7377 16.9429 19.7887 16.9111 19.8319 16.8702C19.875 16.8292 19.9093 16.7798 19.9327 16.7251L20.1605 16.2654C20.3055 16.3092 20.4536 16.3421 20.6035 16.3639V16.8266C20.6035 16.9426 20.6496 17.0539 20.7316 17.136C20.8137 17.218 20.925 17.2641 21.041 17.2641C21.157 17.2641 21.2683 17.218 21.3503 17.136C21.4324 17.0539 21.4785 16.9426 21.4785 16.8266V16.3696C21.6411 16.3478 21.8017 16.313 21.9587 16.2654L22.1865 16.7254C22.238 16.8294 22.3287 16.9086 22.4386 16.9458C22.5486 16.9829 22.6687 16.9748 22.7727 16.9234C22.8767 16.8719 22.956 16.7812 22.9932 16.6712C23.0303 16.5613 23.0222 16.4411 22.9707 16.3371L22.75 15.8909C22.83 15.8374 22.9082 15.7806 22.9837 15.7189L23.4282 15.9751C23.478 16.0043 23.5331 16.0233 23.5902 16.0311C23.6474 16.039 23.7055 16.0354 23.7613 16.0206C23.8171 16.0059 23.8694 15.9803 23.9153 15.9452C23.9611 15.9102 23.9995 15.8664 24.0284 15.8164C24.0572 15.7665 24.0759 15.7113 24.0834 15.6541C24.0908 15.5969 24.0868 15.5387 24.0717 15.4831C24.0566 15.4274 24.0306 15.3752 23.9953 15.3296C23.9599 15.284 23.9159 15.2459 23.8657 15.2174V15.2179Z" fill="white"/>
</svg>
