<svg  viewBox="0 0 40 34" fill="none" xmlns="http://www.w3.org/2000/svg">
<g filter="url(#filter0_d_453_1162)">
<circle cx="20" cy="18" r="16" fill="#F07E59"/>
</g>
<path d="M24.0208 13.5397C23.8249 13.5411 23.6323 13.5906 23.4599 13.6837V12.7723C23.4608 12.5212 23.3939 12.2745 23.2663 12.0582C23.1387 11.8419 22.9552 11.6641 22.735 11.5434C22.5148 11.4227 22.2661 11.3636 22.0152 11.3724C21.7642 11.3812 21.5203 11.4575 21.3091 11.5933V10.8074C21.3106 10.4519 21.1766 10.1093 20.9344 9.84912C20.6921 9.58898 20.3598 9.43094 20.0051 9.40718C19.6505 9.38342 19.3001 9.49572 19.0253 9.72122C18.7505 9.94671 18.5719 10.2685 18.526 10.621C18.3422 10.5143 18.1336 10.4575 17.9211 10.4561H17.5945C17.2666 10.4565 16.9521 10.5869 16.7202 10.8188C16.4883 11.0507 16.3579 11.3651 16.3575 11.6931V17.2189C16.3575 17.3052 16.3918 17.388 16.4529 17.449C16.5139 17.5101 16.5967 17.5444 16.6831 17.5444C16.7694 17.5444 16.8522 17.5101 16.9132 17.449C16.9743 17.388 17.0086 17.3052 17.0086 17.2189V11.6934C17.0088 11.538 17.0706 11.3891 17.1804 11.2793C17.2903 11.1694 17.4392 11.1076 17.5945 11.1074H17.9221C18.0775 11.1076 18.2264 11.1694 18.3362 11.2793C18.4461 11.3891 18.5079 11.538 18.5081 11.6934V18.1954C18.5081 18.2818 18.5424 18.3646 18.6034 18.4256C18.6645 18.4867 18.7473 18.521 18.8336 18.521C18.9199 18.521 19.0027 18.4867 19.0638 18.4256C19.1248 18.3646 19.1591 18.2818 19.1591 18.1954V10.8074C19.1591 10.709 19.1785 10.6115 19.2162 10.5205C19.2539 10.4295 19.3091 10.3469 19.3787 10.2773C19.4483 10.2076 19.531 10.1524 19.6219 10.1147C19.7129 10.0771 19.8104 10.0577 19.9088 10.0577C20.0073 10.0577 20.1048 10.0771 20.1958 10.1147C20.2867 10.1524 20.3694 10.2076 20.439 10.2773C20.5086 10.3469 20.5638 10.4295 20.6015 10.5205C20.6392 10.6115 20.6586 10.709 20.6586 10.8074V17.3165C20.6586 17.4029 20.6929 17.4857 20.7539 17.5467C20.815 17.6078 20.8978 17.642 20.9841 17.642C21.0704 17.642 21.1532 17.6078 21.2143 17.5467C21.2753 17.4857 21.3096 17.4029 21.3096 17.3165V12.7712C21.3096 12.5723 21.3886 12.3816 21.5293 12.241C21.6699 12.1003 21.8606 12.0213 22.0595 12.0213C22.2584 12.0213 22.4491 12.1003 22.5897 12.241C22.7304 12.3816 22.8094 12.5723 22.8094 12.7712V18.0001C22.8094 18.0865 22.8437 18.1693 22.9047 18.2303C22.9658 18.2913 23.0486 18.3256 23.1349 18.3256C23.2212 18.3256 23.304 18.2913 23.3651 18.2303C23.4261 18.1693 23.4604 18.0865 23.4604 18.0001V14.7517C23.4604 14.6029 23.5195 14.4602 23.6247 14.3549C23.73 14.2497 23.8727 14.1906 24.0215 14.1906C24.1703 14.1906 24.313 14.2497 24.4182 14.3549C24.5234 14.4602 24.5825 14.6029 24.5825 14.7517V20.9949C24.5825 21.0812 24.6168 21.164 24.6779 21.2251C24.7389 21.2861 24.8217 21.3204 24.9081 21.3204C24.9944 21.3204 25.0772 21.2861 25.1382 21.2251C25.1993 21.164 25.2336 21.0812 25.2336 20.9949V14.7517C25.2332 14.4302 25.1052 14.1221 24.8779 13.8949C24.6505 13.6676 24.3423 13.5399 24.0208 13.5397Z" fill="white"/>
<path d="M24.9081 22.1451C24.8218 22.1451 24.739 22.1794 24.6779 22.2405C24.6169 22.3015 24.5826 22.3843 24.5826 22.4706V23.2141C24.5818 23.9375 24.2942 24.631 23.7827 25.1426C23.2713 25.6541 22.5778 25.9419 21.8545 25.9428H19.3219C18.7086 25.9421 18.1206 25.6982 17.6869 25.2645C17.2533 24.8308 17.0093 24.2428 17.0086 23.6295C17.0102 23.0982 16.8902 22.5736 16.6578 22.0959C16.4254 21.6182 16.0867 21.1999 15.6677 20.8733L14.4354 19.9063C14.3388 19.8323 14.2578 19.7399 14.1973 19.6343C14.1367 19.5287 14.0977 19.4122 14.0826 19.2914C14.0675 19.1706 14.0765 19.048 14.1092 18.9308C14.1419 18.8136 14.1976 18.704 14.2731 18.6085C14.3485 18.513 14.4422 18.4334 14.5486 18.3744C14.6551 18.3154 14.7723 18.2782 14.8932 18.2649C15.0142 18.2517 15.1367 18.2626 15.2534 18.297C15.3701 18.3315 15.4788 18.3888 15.5732 18.4657L17.2276 19.7157C17.2618 19.7415 17.3008 19.7603 17.3422 19.771C17.3837 19.7818 17.4269 19.7842 17.4693 19.7783C17.5117 19.7723 17.5525 19.7581 17.5894 19.7364C17.6263 19.7146 17.6586 19.6858 17.6844 19.6516C17.7102 19.6174 17.729 19.5785 17.7397 19.537C17.7505 19.4956 17.7529 19.4524 17.747 19.41C17.741 19.3676 17.7268 19.3267 17.7051 19.2898C17.6833 19.2529 17.6545 19.2207 17.6203 19.1949L15.9706 17.9488C15.6432 17.6919 15.2272 17.5757 14.8141 17.6256C14.401 17.6755 14.0247 17.8874 13.7679 18.2148C13.511 18.5422 13.3948 18.9582 13.4447 19.3713C13.4946 19.7843 13.7065 20.1607 14.0339 20.4175L15.2659 21.3855C15.607 21.6515 15.8827 21.9921 16.0719 22.3811C16.2611 22.7701 16.3588 23.1972 16.3576 23.6298C16.3588 24.4155 16.6715 25.1688 17.2272 25.7244C17.7829 26.28 18.5361 26.5927 19.3219 26.5938H21.8545C22.7504 26.5928 23.6094 26.2364 24.2429 25.6028C24.8764 24.9692 25.2327 24.1101 25.2336 23.2141V22.4706C25.2336 22.3843 25.1993 22.3015 25.1383 22.2405C25.0772 22.1794 24.9944 22.1451 24.9081 22.1451Z" fill="white"/>
<path d="M20.7013 23.7661C20.7441 23.7662 20.7864 23.7578 20.8259 23.7414C20.8654 23.7251 20.9013 23.7011 20.9315 23.6708L22.9628 21.6396C23.1024 21.5038 23.2135 21.3416 23.2899 21.1625C23.3663 20.9833 23.4063 20.7908 23.4076 20.5961C23.4089 20.4014 23.3716 20.2083 23.2977 20.0282C23.2238 19.848 23.1148 19.6843 22.9771 19.5466C22.8394 19.4089 22.6758 19.2999 22.4956 19.226C22.3155 19.1521 22.1224 19.1147 21.9277 19.116C21.733 19.1173 21.5404 19.1573 21.3613 19.2336C21.1822 19.31 21.02 19.4211 20.8841 19.5607L20.7019 19.743L20.5196 19.5607C20.3834 19.4224 20.2213 19.3125 20.0425 19.2373C19.8637 19.162 19.6718 19.1228 19.4778 19.1221C19.2838 19.1214 19.0915 19.159 18.9122 19.2329C18.7328 19.3068 18.5698 19.4155 18.4326 19.5527C18.2955 19.6898 18.1868 19.8528 18.1129 20.0322C18.039 20.2116 18.0013 20.4038 18.0021 20.5978C18.0028 20.7918 18.042 20.9837 18.1172 21.1625C18.1925 21.3413 18.3024 21.5035 18.4407 21.6396L20.4719 23.6708C20.5328 23.7317 20.6153 23.7659 20.7013 23.7661ZM18.8998 20.0206C19.0535 19.8673 19.2618 19.7812 19.4789 19.7812C19.6961 19.7812 19.9043 19.8673 20.0581 20.0206L20.4711 20.4336C20.5014 20.4638 20.5372 20.4878 20.5767 20.5042C20.6162 20.5205 20.6586 20.529 20.7013 20.529C20.7441 20.529 20.7864 20.5205 20.8259 20.5042C20.8654 20.4878 20.9013 20.4638 20.9315 20.4336L21.3446 20.0206C21.5006 19.8717 21.708 19.7887 21.9236 19.7887C22.1393 19.7887 22.3466 19.8717 22.5026 20.0206C22.5788 20.0966 22.6392 20.1869 22.6804 20.2862C22.7216 20.3856 22.7428 20.4922 22.7428 20.5997C22.7428 20.7073 22.7216 20.8138 22.6804 20.9132C22.6392 21.0126 22.5788 21.1029 22.5026 21.1789L20.7013 22.9802L18.8998 21.1789C18.7465 21.0251 18.6604 20.8169 18.6604 20.5997C18.6604 20.3826 18.7465 20.1743 18.8998 20.0206Z" fill="white"/>
<defs>
<filter id="filter0_d_453_1162" x="0" y="0" width="40" height="40" filterUnits="userSpaceOnUse" color-interpolation-filters="sRGB">
<feFlood flood-opacity="0" result="BackgroundImageFix"/>
<feColorMatrix in="SourceAlpha" type="matrix" values="0 0 0 0 0 0 0 0 0 0 0 0 0 0 0 0 0 0 127 0" result="hardAlpha"/>
<feOffset dy="2"/>
<feGaussianBlur stdDeviation="2"/>
<feComposite in2="hardAlpha" operator="out"/>
<feColorMatrix type="matrix" values="0 0 0 0 0 0 0 0 0 0 0 0 0 0 0 0 0 0 0.12 0"/>
<feBlend mode="normal" in2="BackgroundImageFix" result="effect1_dropShadow_453_1162"/>
<feBlend mode="normal" in="SourceGraphic" in2="effect1_dropShadow_453_1162" result="shape"/>
</filter>
</defs>
</svg>
