<svg width="32" height="32" viewBox="0 0 32 32" fill="none" xmlns="http://www.w3.org/2000/svg">
<circle cx="16" cy="16" r="16" fill="#539ED8"/>
<path d="M14.6468 17.1314C14.6055 17.1314 14.5647 17.1219 14.5276 17.1039C14.4905 17.0858 14.4579 17.0596 14.4323 17.0271C14.4068 16.9947 14.3889 16.9569 14.38 16.9166C14.3712 16.8762 14.3716 16.8344 14.3812 16.7942L14.9482 14.4278H13.5376C13.4871 14.4278 13.4377 14.4139 13.3947 14.3875C13.3517 14.3612 13.3169 14.3235 13.294 14.2786C13.2711 14.2337 13.2611 14.1833 13.265 14.133C13.2689 14.0828 13.2867 14.0346 13.3163 13.9938L15.9388 10.3811C15.976 10.3299 16.0297 10.2932 16.0909 10.2772C16.1522 10.2612 16.217 10.2669 16.2745 10.2934C16.3319 10.3198 16.3785 10.3654 16.4061 10.4223C16.4337 10.4792 16.4407 10.544 16.426 10.6055L15.8593 12.9719H17.2696C17.32 12.9719 17.3695 12.9858 17.4125 13.0122C17.4555 13.0386 17.4904 13.0763 17.5133 13.1213C17.5362 13.1663 17.5462 13.2167 17.5422 13.267C17.5382 13.3173 17.5204 13.3655 17.4907 13.4063L14.8682 17.0186C14.8428 17.0536 14.8095 17.082 14.771 17.1016C14.7325 17.1212 14.69 17.1314 14.6468 17.1314ZM14.074 13.8814H15.2946C15.3359 13.8815 15.3766 13.8909 15.4138 13.909C15.4509 13.927 15.4835 13.9533 15.509 13.9857C15.5346 14.0182 15.5525 14.056 15.5613 14.0963C15.5702 14.1366 15.5698 14.1785 15.5602 14.2186L15.2321 15.5855L16.7321 13.5192H15.5124C15.4711 13.5192 15.4304 13.5098 15.3932 13.4917C15.3561 13.4736 15.3235 13.4474 15.298 13.415C15.2724 13.3825 15.2545 13.3447 15.2457 13.3044C15.2368 13.264 15.2372 13.2222 15.2468 13.1821L15.5749 11.815L14.074 13.8814Z" fill="white"/>
<path d="M17.521 25.288C17.4485 25.288 17.3789 25.2591 17.3277 25.2079C17.2764 25.1566 17.2476 25.087 17.2476 25.0145V21.55C17.2475 21.5075 17.2574 21.4656 17.2764 21.4276C17.2954 21.3896 17.3229 21.3566 17.3569 21.3311C17.3909 21.3056 17.4304 21.2884 17.4722 21.2808C17.514 21.2733 17.557 21.2755 17.5977 21.2875L20.5963 22.1634C20.672 22.1856 20.7518 22.1898 20.8295 22.1757C20.9071 22.1616 20.9803 22.1296 21.0434 22.0823C21.1065 22.035 21.1578 21.9737 21.193 21.9031C21.2283 21.8326 21.2467 21.7548 21.2466 21.6759V18.3097C21.2466 18.2372 21.2754 18.1676 21.3267 18.1163C21.378 18.065 21.4476 18.0362 21.5201 18.0362H22.7635C22.8061 18.0363 22.8482 18.0263 22.8863 18.0072C22.9244 17.9881 22.9575 17.9603 22.9829 17.9261C23.0084 17.8919 23.0255 17.8523 23.0329 17.8103C23.0403 17.7683 23.0378 17.7252 23.0255 17.6844L21.856 13.7781C21.8484 13.7528 21.8445 13.7265 21.8445 13.7C21.8361 11.9972 21.1538 10.3671 19.9467 9.16597C18.7397 7.96489 17.1062 7.29062 15.4034 7.29062C13.7006 7.29062 12.0671 7.96489 10.8601 9.16597C9.65311 10.3671 8.97081 11.9972 8.96242 13.7C8.96242 15.8486 9.91773 18.573 10.4871 20.0058C10.8651 20.9548 11.0587 21.9671 11.0576 22.9886V25.0147C11.0576 25.0872 11.0288 25.1567 10.9775 25.208C10.9262 25.2593 10.8567 25.2881 10.7841 25.2881C10.7116 25.2881 10.6421 25.2593 10.5908 25.208C10.5395 25.1567 10.5107 25.0872 10.5107 25.0147V22.9884C10.5119 22.036 10.3316 21.0921 9.97945 20.2072C9.39555 18.7384 8.41602 15.9391 8.41602 13.6994C8.41757 11.8506 9.15172 10.0777 10.4577 8.76909C11.7636 7.46045 13.535 6.72267 15.3837 6.71731C17.2325 6.71196 19.0081 7.43947 20.3216 8.74053C21.6351 10.0416 22.3795 11.8101 22.3918 13.6589L23.5498 17.527C23.5864 17.6495 23.594 17.7788 23.5718 17.9047C23.5496 18.0306 23.4983 18.1496 23.422 18.2521C23.3456 18.3547 23.2464 18.438 23.1321 18.4954C23.0179 18.5527 22.8918 18.5826 22.764 18.5826H21.794V21.6755C21.794 21.8392 21.7558 22.0008 21.6825 22.1472C21.6092 22.2937 21.5029 22.4211 21.3718 22.5193C21.2407 22.6176 21.0886 22.6839 20.9275 22.7132C20.7663 22.7424 20.6006 22.7337 20.4434 22.6878L17.7949 21.9142V25.0141C17.795 25.05 17.788 25.0857 17.7742 25.119C17.7605 25.1522 17.7403 25.1825 17.7149 25.2079C17.6894 25.2334 17.6592 25.2535 17.6259 25.2673C17.5927 25.281 17.557 25.288 17.521 25.288Z" fill="white"/>
<path d="M15.4034 18.8667C14.3815 18.8667 13.3826 18.5637 12.5329 17.9959C11.6832 17.4282 11.0209 16.6212 10.6299 15.6771C10.2388 14.733 10.1365 13.6941 10.3359 12.6918C10.5352 11.6896 11.0273 10.7689 11.7499 10.0463C12.4725 9.3237 13.3932 8.83161 14.3954 8.63224C15.3977 8.43288 16.4366 8.5352 17.3807 8.92627C18.3249 9.31733 19.1318 9.97959 19.6995 10.8293C20.2673 11.679 20.5703 12.6779 20.5703 13.6998C20.5688 15.0697 20.0239 16.383 19.0553 17.3517C18.0866 18.3203 16.7733 18.8652 15.4034 18.8667ZM15.4034 9.07984C14.4897 9.07984 13.5965 9.35079 12.8367 9.85845C12.077 10.3661 11.4848 11.0876 11.1351 11.9318C10.7854 12.776 10.694 13.705 10.8722 14.6012C11.0505 15.4973 11.4905 16.3206 12.1366 16.9667C12.7827 17.6128 13.6059 18.0528 14.5021 18.2311C15.3983 18.4093 16.3273 18.3178 17.1714 17.9682C18.0156 17.6185 18.7372 17.0263 19.2448 16.2666C19.7525 15.5068 20.0234 14.6136 20.0234 13.6998C20.0221 12.4749 19.535 11.3006 18.6688 10.4345C17.8027 9.56833 16.6283 9.08116 15.4034 9.07984Z" fill="white"/>
</svg>
