<svg width="208" height="155" viewBox="0 0 208 155" fill="none" xmlns="http://www.w3.org/2000/svg">
<path d="M47.8947 92.883C45.5997 92.883 43.3972 92.5331 41.2051 92.214C41.9152 94.6017 42.646 97.0305 43.8192 99.2123C44.9925 102.382 46.8244 105.13 48.646 107.899C50.1692 110.893 52.8553 112.921 54.8313 115.483C56.8999 117.974 59.7198 119.631 61.9531 121.7C64.1452 123.861 67.0166 124.942 69.3014 126.465C71.689 127.833 73.7679 129.346 75.9909 130.067L81.5382 132.352L86.4164 134.379L81.425 154.324L75.2808 152.842C73.3151 152.348 70.9172 151.772 68.1899 151.082C65.4008 150.568 62.4265 149.158 59.1126 147.871C55.8399 146.41 52.0525 145.422 48.5328 143.075C44.9925 140.832 40.9067 138.959 37.3046 135.954C33.8157 132.856 29.6064 130.17 26.4983 126.228C23.1021 122.544 19.747 118.674 17.1432 114.269C14.1277 110.07 12.0797 105.459 9.91845 100.9C7.96303 96.341 6.38841 91.6788 5.10195 87.1505C2.66282 78.0733 1.5719 69.4488 1.14995 62.0697C0.800028 54.6803 1.00586 48.5362 1.43811 44.0902C1.59249 41.9907 1.88065 39.9529 2.08649 38.543L2.34378 36.814L2.61136 36.8757C4.44185 28.3251 8.65569 20.4674 14.7654 14.2116C20.8752 7.95582 28.6312 3.55755 37.1362 1.52565C45.6412 -0.506275 54.5477 -0.0888414 62.8254 2.72967C71.1031 5.54818 78.4136 10.6526 83.9115 17.4524C89.4093 24.2523 92.8698 32.4696 93.8924 41.154C94.9151 49.8383 93.4583 58.6348 89.6905 66.5258C85.9227 74.4168 79.9979 81.0798 72.6014 85.7442C65.2049 90.4085 56.6391 92.8835 47.8947 92.883ZM161.103 92.883C158.808 92.883 156.606 92.533 154.413 92.214C155.124 94.6017 155.854 97.0305 157.028 99.2123C158.201 102.382 160.033 105.13 161.854 107.898C163.377 110.893 166.064 112.921 168.04 115.483C170.108 117.974 172.928 119.631 175.161 121.7C177.354 123.861 180.225 124.941 182.51 126.465C184.897 127.833 186.976 129.346 189.199 130.067L194.746 132.351L199.625 134.379L194.633 154.324L188.489 152.842C186.523 152.348 184.126 151.772 181.398 151.082C178.609 150.568 175.635 149.158 172.321 147.871C169.059 146.4 165.261 145.422 161.741 143.065C158.201 140.822 154.115 138.948 150.513 135.943C147.024 132.845 142.815 130.159 139.707 126.228C136.31 122.544 132.955 118.674 130.352 114.269C127.336 110.07 125.288 105.459 123.127 100.9C121.171 96.341 119.597 91.6788 118.31 87.1505C115.871 78.0732 114.78 69.4488 114.358 62.0697C114.008 54.6803 114.214 48.5362 114.646 44.0902C114.801 41.9907 115.089 39.9529 115.295 38.543L115.552 36.814L115.82 36.8757C117.65 28.3251 121.864 20.4674 127.974 14.2116C134.084 7.95581 141.84 3.55754 150.345 1.52564C158.85 -0.506285 167.756 -0.0888513 176.034 2.72966C184.311 5.54817 191.622 10.6526 197.12 17.4524C202.618 24.2523 206.078 32.4696 207.101 41.154C208.123 49.8383 206.667 58.6348 202.899 66.5258C199.131 74.4168 193.206 81.0798 185.81 85.7442C178.413 90.4085 169.847 92.8835 161.103 92.883Z" fill="#F7F7F7"/>
</svg>
