<svg width="208" height="155" viewBox="0 0 208 155" fill="none" xmlns="http://www.w3.org/2000/svg">
<path d="M47.8947 93.0851C45.5997 93.0851 43.3972 92.7352 41.2051 92.4162C41.9152 94.8038 42.646 97.2327 43.8192 99.4145C44.9925 102.584 46.8244 105.332 48.646 108.101C50.1692 111.096 52.8553 113.123 54.8313 115.686C56.8999 118.176 59.7198 119.833 61.9531 121.902C64.1452 124.063 67.0166 125.144 69.3014 126.667C71.689 128.036 73.7679 129.548 75.9909 130.269L81.5382 132.554L86.4164 134.581L81.425 154.526L75.2808 153.044C73.3151 152.55 70.9172 151.974 68.1899 151.284C65.4008 150.77 62.4265 149.36 59.1126 148.073C55.8399 146.612 52.0525 145.624 48.5328 143.278C44.9925 141.034 40.9067 139.161 37.3046 136.156C33.8157 133.058 29.6064 130.372 26.4983 126.43C23.1021 122.746 19.747 118.876 17.1432 114.471C14.1277 110.272 12.0797 105.662 9.91845 101.102C7.96303 96.5431 6.38841 91.881 5.10195 87.3527C2.66282 78.2754 1.5719 69.651 1.14995 62.2719C0.800028 54.8824 1.00586 48.7383 1.43811 44.2923C1.59249 42.1928 1.88065 40.1551 2.08649 38.7451L2.34378 37.0161L2.61136 37.0779C4.44185 28.5272 8.65569 20.6696 14.7654 14.4138C20.8752 8.15797 28.6312 3.7597 37.1362 1.7278C45.6412 -0.304127 54.5477 0.113307 62.8254 2.93182C71.1031 5.75033 78.4136 10.8547 83.9115 17.6546C89.4093 24.4544 92.8698 32.6718 93.8924 41.3561C94.9151 50.0405 93.4583 58.837 89.6905 66.7279C85.9227 74.6189 79.9979 81.282 72.6014 85.9463C65.2049 90.6107 56.6391 93.0857 47.8947 93.0851ZM161.103 93.0851C158.808 93.0851 156.606 92.7352 154.413 92.4162C155.124 94.8038 155.854 97.2326 157.028 99.4145C158.201 102.584 160.033 105.332 161.854 108.101C163.377 111.096 166.064 113.123 168.04 115.686C170.108 118.176 172.928 119.833 175.161 121.902C177.354 124.063 180.225 125.144 182.51 126.667C184.897 128.036 186.976 129.548 189.199 130.269L194.746 132.554L199.625 134.581L194.633 154.526L188.489 153.044C186.523 152.55 184.126 151.974 181.398 151.284C178.609 150.77 175.635 149.36 172.321 148.073C169.059 146.602 165.261 145.624 161.741 143.267C158.201 141.024 154.115 139.151 150.513 136.145C147.024 133.048 142.815 130.362 139.707 126.43C136.31 122.746 132.955 118.876 130.352 114.471C127.336 110.272 125.288 105.662 123.127 101.102C121.171 96.5431 119.597 91.881 118.31 87.3526C115.871 78.2754 114.78 69.651 114.358 62.2718C114.008 54.8824 114.214 48.7383 114.646 44.2923C114.801 42.1928 115.089 40.1551 115.295 38.7451L115.552 37.0161L115.82 37.0778C117.65 28.5272 121.864 20.6695 127.974 14.4137C134.084 8.15796 141.84 3.75969 150.345 1.72779C158.85 -0.304137 167.756 0.113297 176.034 2.93181C184.311 5.75032 191.622 10.8547 197.12 17.6546C202.618 24.4544 206.078 32.6718 207.101 41.3561C208.123 50.0405 206.667 58.8369 202.899 66.7279C199.131 74.6189 193.206 81.282 185.81 85.9463C178.413 90.6106 169.847 93.0857 161.103 93.0851Z" fill="white"/>
</svg>
