<svg width="44" height="45" viewBox="0 0 44 45" fill="none" xmlns="http://www.w3.org/2000/svg">
<g clip-path="url(#clip0_2845_25087)">
<path d="M34.375 17.3359H33V11.8359C33 5.76929 28.0667 0.835938 22 0.835938C15.9333 0.835938 11 5.76929 11 11.8359V17.3359H9.625C7.35168 17.3359 5.5 19.1856 5.5 21.4609V40.7109C5.5 42.9863 7.35168 44.8359 9.625 44.8359H34.375C36.6483 44.8359 38.5 42.9863 38.5 40.7109V21.4609C38.5 19.1856 36.6483 17.3359 34.375 17.3359ZM14.6668 11.8359C14.6668 7.7915 17.9556 4.50272 22 4.50272C26.0444 4.50272 29.3332 7.7915 29.3332 11.8359V17.3359H14.6668V11.8359Z" fill="white"/>
</g>
<defs>
<clipPath id="clip0_2845_25087">
<rect width="44" height="44" fill="white" transform="translate(0 0.835938)"/>
</clipPath>
</defs>
</svg>
