<svg width="45" height="46" viewBox="0 0 45 46" fill="none" xmlns="http://www.w3.org/2000/svg">
<rect y="0.5" width="45" height="45" rx="10" fill="url(#paint0_linear_2593_25582)"/>
<path d="M22.4999 31.4042L28.1644 34.3814C29.3849 35.0234 30.8107 33.9871 30.5781 32.6277L29.4966 26.3198L34.0794 21.8517C35.0675 20.8895 34.5221 19.2128 33.1582 19.0135L26.8246 18.0935L23.9923 12.3536C23.3821 11.1165 21.6193 11.1165 21.0091 12.3536L18.1769 18.0935L11.8432 19.0135C10.4792 19.2114 9.93387 20.8879 10.9217 21.8517L15.5047 26.3198L14.4231 32.6277C14.1905 33.9872 15.6164 35.0234 16.8368 34.3814L22.4999 31.4042Z" fill="white"/>
<defs>
<linearGradient id="paint0_linear_2593_25582" x1="22.5" y1="0.5" x2="22.5" y2="45.5" gradientUnits="userSpaceOnUse">
<stop stop-color="#FF8400"/>
<stop offset="1" stop-color="#FFCC00"/>
</linearGradient>
</defs>
</svg>
