<svg width="47" height="46" viewBox="0 0 47 46" fill="none" xmlns="http://www.w3.org/2000/svg">
<path d="M45.0625 23C45.0625 24.84 42.802 26.3566 42.3492 28.0528C41.882 29.8066 43.0644 32.2503 42.1767 33.7848C41.2747 35.3445 38.5614 35.5314 37.2964 36.7964C36.0314 38.0614 35.8445 40.7747 34.2848 41.6767C32.7503 42.5644 30.3066 41.382 28.5528 41.8492C26.8566 42.302 25.34 44.5625 23.5 44.5625C21.66 44.5625 20.1434 42.302 18.4472 41.8492C16.6934 41.382 14.2497 42.5644 12.7152 41.6767C11.1555 40.7747 10.9686 38.0614 9.70359 36.7964C8.43859 35.5314 5.72531 35.3445 4.82328 33.7848C3.93562 32.2503 5.11797 29.8066 4.65078 28.0528C4.19797 26.3566 1.9375 24.84 1.9375 23C1.9375 21.16 4.19797 19.6434 4.65078 17.9472C5.11797 16.1934 3.93562 13.7497 4.82328 12.2152C5.72531 10.6555 8.43859 10.4686 9.70359 9.20359C10.9686 7.93859 11.1555 5.22531 12.7152 4.32328C14.2497 3.43562 16.6934 4.61797 18.4472 4.15078C20.1434 3.69797 21.66 1.4375 23.5 1.4375C25.34 1.4375 26.8566 3.69797 28.5528 4.15078C30.3066 4.61797 32.7503 3.43562 34.2848 4.32328C35.8445 5.22531 36.0314 7.93859 37.2964 9.20359C38.5614 10.4686 41.2747 10.6555 42.1767 12.2152C43.0644 13.7497 41.882 16.1934 42.3492 17.9472C42.802 19.6434 45.0625 21.16 45.0625 23Z" fill="#A850B2"/>
<path d="M29.7321 16.5736L21.5239 24.7817L17.2689 20.5303C16.3454 19.6067 14.8468 19.6067 13.9232 20.5303C12.9996 21.4539 12.9996 22.9525 13.9232 23.8761L19.8924 29.8453C20.7908 30.7437 22.2499 30.7437 23.1483 29.8453L33.0743 19.9193C33.9979 18.9957 33.9979 17.4971 33.0743 16.5736C32.1507 15.65 30.6557 15.65 29.7321 16.5736Z" fill="#FFFCEE"/>
</svg>
