<svg width="54" height="54" viewBox="0 0 54 54" fill="none" xmlns="http://www.w3.org/2000/svg">
<circle cx="27" cy="27" r="25.5" stroke="#C3DEF2" stroke-width="3"/>
<g clip-path="url(#clip0_2646_23008)">
<path d="M38.8561 25.5949C38.8554 25.5943 38.8548 25.5936 38.8543 25.593L28.8729 15.6121C28.4475 15.1864 27.8819 14.9521 27.2802 14.9521C26.6785 14.9521 26.1129 15.1864 25.6872 15.6121L15.7111 25.588C15.7078 25.5913 15.7042 25.5949 15.701 25.5983C14.8274 26.477 14.8289 27.9027 15.7053 28.7791C16.1058 29.1798 16.6344 29.4116 17.1999 29.4361C17.2231 29.4383 17.2462 29.4394 17.2695 29.4394H17.6672V36.7846C17.6672 38.2383 18.85 39.4209 20.3037 39.4209H24.2087C24.6046 39.4209 24.9256 39.0999 24.9256 38.7041V32.9453C24.9256 32.282 25.4653 31.7425 26.1285 31.7425H28.4318C29.0951 31.7425 29.6346 32.282 29.6346 32.9453V38.7041C29.6346 39.0999 29.9555 39.4209 30.3515 39.4209H34.2565C35.7104 39.4209 36.893 38.2383 36.893 36.7846V29.4394H37.2619C37.8634 29.4394 38.429 29.2051 38.8548 28.7793C39.7322 27.9015 39.7326 26.4732 38.8561 25.5949ZM37.841 27.7656C37.6862 27.9204 37.4805 28.0057 37.2619 28.0057H36.1761C35.7802 28.0057 35.4593 28.3266 35.4593 28.7226V36.7846C35.4593 37.4477 34.9198 37.9872 34.2565 37.9872H31.0683V32.9453C31.0683 31.4916 29.8857 30.3088 28.4318 30.3088H26.1285C24.6747 30.3088 23.4918 31.4916 23.4918 32.9453V37.9872H20.3037C19.6406 37.9872 19.1009 37.4477 19.1009 36.7846V28.7226C19.1009 28.3266 18.78 28.0057 18.384 28.0057H17.317C17.3058 28.005 17.2947 28.0044 17.2834 28.0042C17.0698 28.0005 16.8695 27.9157 16.7194 27.7654C16.4002 27.4462 16.4002 26.9267 16.7194 26.6073C16.7196 26.6073 16.7196 26.6071 16.7198 26.6069L16.7203 26.6063L26.7013 16.6258C26.8558 16.471 27.0614 16.3859 27.2802 16.3859C27.4988 16.3859 27.7043 16.471 27.8591 16.6258L37.8378 26.6043C37.8393 26.6058 37.841 26.6073 37.8425 26.6088C38.16 26.9286 38.1595 27.447 37.841 27.7656Z" fill="white"/>
</g>
<defs>
<clipPath id="clip0_2646_23008">
<rect width="24.4688" height="24.4688" fill="white" transform="translate(15 15)"/>
</clipPath>
</defs>
</svg>
