<svg width="54" height="54" viewBox="0 0 54 54" fill="none" xmlns="http://www.w3.org/2000/svg">
<circle cx="27" cy="27" r="25.5" stroke="#C3DEF2" stroke-width="3"/>
<g clip-path="url(#clip0_2646_23073)">
<g clip-path="url(#clip1_2646_23073)">
<path d="M31.2617 32.2656V34.0625C31.2617 36.0442 29.6496 37.6562 27.668 37.6562H18.6387C16.657 37.6562 15.0449 36.0442 15.0449 34.0625V18.25C15.0449 16.2683 16.657 14.6562 18.6387 14.6562H27.668C29.6496 14.6562 31.2617 16.2683 31.2617 18.25V20.0469C31.2617 20.5431 30.8595 20.9453 30.3633 20.9453C29.867 20.9453 29.4648 20.5431 29.4648 20.0469V18.25C29.4648 17.2593 28.6587 16.4531 27.668 16.4531H18.6387C17.6479 16.4531 16.8418 17.2593 16.8418 18.25V34.0625C16.8418 35.0532 17.6479 35.8594 18.6387 35.8594H27.668C28.6587 35.8594 29.4648 35.0532 29.4648 34.0625V32.2656C29.4648 31.7694 29.867 31.3672 30.3633 31.3672C30.8595 31.3672 31.2617 31.7694 31.2617 32.2656ZM37.3871 24.6129L35.3752 22.6011C35.0243 22.2502 34.4554 22.2502 34.1046 22.6011C33.7537 22.9519 33.7537 23.5208 34.1046 23.8716L35.5356 25.3027H24.748C24.2518 25.3027 23.8496 25.7049 23.8496 26.2012C23.8496 26.6974 24.2518 27.0996 24.748 27.0996H35.5356L34.1046 28.5308C33.7537 28.8816 33.7537 29.4505 34.1046 29.8012C34.2801 29.9767 34.51 30.0645 34.7398 30.0645C34.9699 30.0645 35.1998 29.9767 35.3752 29.8012L37.3871 27.7894C38.2629 26.9136 38.2629 25.4887 37.3871 24.6129Z" fill="white"/>
</g>
</g>
<defs>
<clipPath id="clip0_2646_23073">
<rect width="24.4688" height="24.4688" fill="white" transform="translate(15 15)"/>
</clipPath>
<clipPath id="clip1_2646_23073">
<rect width="23" height="23" fill="white" transform="translate(15 14.6562)"/>
</clipPath>
</defs>
</svg>
