<svg width="194" height="36" viewBox="0 0 194 36" fill="none" xmlns="http://www.w3.org/2000/svg">
<g opacity="0.6">
<path d="M175.644 0.00104024L175.672 0C175.898 0 176.081 0.183205 176.081 0.4092C176.081 1.09411 176.825 1.81957 178.398 2.53225C178.569 2.61131 178.854 2.7646 179.215 2.9973C179.812 3.38215 180.408 3.85451 180.965 4.41914C182.464 5.93757 183.404 7.82667 183.517 10.1007C185.828 10.1953 187.747 11.139 189.285 12.653C189.85 13.2094 190.323 13.8049 190.709 14.4011C190.942 14.7616 191.095 15.0454 191.174 15.217C191.888 16.7879 192.615 17.5301 193.3 17.5301C193.527 17.5301 193.71 17.7133 193.71 17.9393C193.71 17.9491 193.71 17.959 193.709 17.9687L193.71 17.996C193.71 18.222 193.527 18.4052 193.3 18.4052C192.615 18.4052 191.888 19.1474 191.174 20.7183C191.095 20.8898 190.942 21.1737 190.709 21.5342C190.323 22.1304 189.85 22.7259 189.285 23.2823C187.748 24.7953 185.831 25.7388 183.52 25.8337C183.423 28.1365 182.478 30.0477 180.965 31.5809C180.408 32.1455 179.812 32.6178 179.215 33.0027C178.854 33.2354 178.569 33.3887 178.398 33.4678C177.05 34.0785 176.311 34.6987 176.127 35.2946C176.144 35.3921 176.152 35.4908 176.152 35.5908C176.152 35.8168 175.969 36 175.743 36L175.706 35.9967L175.672 36C175.474 36 175.308 35.8597 175.27 35.6733L175.262 35.5908C175.262 35.4915 175.27 35.3934 175.285 35.2967C175.105 34.7001 174.366 34.0792 173.016 33.4678C172.845 33.3887 172.56 33.2354 172.199 33.0027C171.602 32.6178 171.006 32.1455 170.449 31.5809C168.936 30.0483 167.992 28.1383 167.894 25.8359C165.564 25.7509 163.633 24.8051 162.085 23.2823C161.52 22.7259 161.047 22.1304 160.662 21.5342C160.429 21.1737 160.275 20.8898 160.196 20.7183C159.584 19.372 158.963 18.6344 158.366 18.451C158.269 18.4681 158.17 18.4761 158.07 18.4761C157.844 18.4761 157.66 18.2929 157.66 18.0669L157.663 18.0306L157.66 17.996C157.66 17.7983 157.801 17.6333 157.987 17.5951L158.07 17.5868C158.169 17.5868 158.268 17.5947 158.364 17.6103C158.962 17.4302 159.584 16.6924 160.196 15.3446C160.275 15.173 160.429 14.8892 160.662 14.5287C161.047 13.9325 161.52 13.337 162.085 12.7806C163.603 11.2866 165.491 10.348 167.764 10.2331L167.763 10.2563L167.764 10.2283C167.847 7.89724 168.795 5.96588 170.321 4.41914C170.878 3.85451 171.475 3.38215 172.072 2.9973C172.433 2.7646 172.717 2.61131 172.889 2.53225C174.462 1.81957 175.205 1.09411 175.205 0.4092C175.205 0.183205 175.388 0 175.615 0C175.625 0 175.634 0.000350666 175.644 0.00104024ZM175.642 1.55064C175.206 2.17823 174.394 2.74906 173.229 3.27651C173.199 3.29057 173.135 3.32235 173.043 3.37222C172.885 3.45743 172.707 3.56153 172.516 3.68489C171.967 4.03885 171.417 4.47431 170.905 4.99359C169.482 6.43499 168.619 8.22639 168.579 10.4043C168.624 10.4693 168.649 10.5469 168.649 10.6304C168.649 10.8564 168.465 11.0396 168.239 11.0396C165.986 11.0396 164.139 11.9084 162.661 13.3635C162.141 13.8752 161.705 14.4242 161.35 14.9726C161.227 15.1636 161.122 15.3405 161.037 15.4982C160.987 15.5906 160.955 15.6544 160.941 15.6849C160.438 16.7933 159.895 17.5825 159.301 18.0328C159.895 18.4804 160.438 19.2696 160.941 20.3779C160.955 20.4084 160.987 20.4723 161.037 20.5646C161.122 20.7224 161.227 20.8992 161.35 21.0903C161.705 21.6386 162.141 22.1876 162.661 22.6994C164.139 24.1545 165.986 25.0233 168.239 25.0233L168.288 25.0268C168.291 25.0268 168.293 25.0267 168.296 25.0267C168.522 25.0267 168.706 25.2099 168.706 25.4359C168.706 27.6862 169.575 29.5299 171.033 31.0064C171.545 31.5257 172.095 31.9612 172.644 32.3151C172.835 32.4385 173.012 32.5426 173.17 32.6278C173.263 32.6777 173.327 32.7094 173.357 32.7235C174.467 33.2263 175.258 33.7686 175.708 34.3619C176.157 33.7686 176.947 33.2263 178.057 32.7235C178.087 32.7094 178.151 32.6777 178.244 32.6278C178.402 32.5426 178.579 32.4385 178.77 32.3151C179.319 31.9612 179.869 31.5257 180.382 31.0064C181.839 29.5299 182.709 27.6862 182.709 25.4359C182.709 25.2378 182.85 25.0726 183.037 25.0348C183.067 25.0271 183.099 25.0233 183.131 25.0233C185.385 25.0233 187.231 24.1545 188.71 22.6994C189.23 22.1876 189.666 21.6386 190.02 21.0903C190.144 20.8992 190.248 20.7224 190.333 20.5646C190.383 20.4723 190.415 20.4084 190.429 20.3779C190.957 19.2153 191.529 18.4039 192.157 17.9663C191.529 17.5314 190.957 16.72 190.429 15.5573C190.415 15.5268 190.383 15.463 190.333 15.3706C190.248 15.2129 190.144 15.036 190.02 14.8449C189.666 14.2966 189.23 13.7476 188.71 13.2359C187.274 11.8229 185.491 10.9627 183.326 10.9142C183.265 10.9528 183.194 10.9733 183.118 10.9733C182.892 10.9733 182.709 10.7901 182.709 10.5641C182.709 8.31382 181.839 6.47008 180.382 4.99359C179.869 4.47431 179.319 4.03885 178.77 3.68489C178.579 3.56153 178.402 3.45743 178.244 3.37222C178.151 3.32235 178.087 3.29057 178.057 3.27651C176.893 2.74906 176.08 2.17823 175.642 1.55064Z" fill="white"/>
</g>
<path opacity="0.55" d="M188.324 5.62225L188.344 5.64073C188.503 5.79954 188.503 6.05703 188.344 6.21584C187.862 6.69714 187.874 7.72848 188.478 9.33321C188.543 9.50931 188.634 9.8165 188.724 10.2333C188.873 10.9227 188.96 11.6731 188.954 12.4609C188.938 14.6029 188.255 16.611 186.698 18.2995C188.25 19.9862 188.932 21.9917 188.947 24.1308C188.953 24.9186 188.866 25.669 188.718 26.3584C188.628 26.7752 188.536 27.0824 188.471 27.2585C187.953 28.6354 187.87 29.5901 188.162 30.1375C188.243 30.193 188.317 30.2563 188.387 30.3261C188.546 30.4849 188.546 30.7424 188.387 30.9012L188.359 30.9244L188.337 30.951C188.198 31.09 187.983 31.1073 187.825 31.0031L187.761 30.951C187.691 30.8807 187.627 30.8058 187.57 30.7262C187.022 30.4354 186.066 30.5179 184.689 31.0348C184.513 31.0998 184.205 31.1915 183.788 31.2813C183.098 31.4298 182.346 31.5163 181.557 31.5106C179.416 31.495 177.409 30.8153 175.72 29.2663C174.022 30.8415 171.999 31.5323 169.84 31.548C169.051 31.5538 168.3 31.4672 167.61 31.3187C167.192 31.2289 166.885 31.1372 166.708 31.0722C165.33 30.5548 164.373 30.4726 163.825 30.7637C163.77 30.8443 163.706 30.9187 163.636 30.9885C163.477 31.1473 163.22 31.1473 163.061 30.9885L163.037 30.9607L163.011 30.9387C162.872 30.7997 162.854 30.5852 162.959 30.4273L163.011 30.3636C163.081 30.2933 163.156 30.2295 163.236 30.1722C163.527 29.6254 163.444 28.6712 162.927 27.296C162.862 27.1199 162.77 26.8127 162.68 26.3959C162.531 25.7065 162.445 24.9561 162.45 24.1683C162.466 22.053 163.132 20.0684 164.648 18.3931L164.877 18.6299C163.13 16.8857 162.37 14.7741 162.354 12.5132C162.348 11.7254 162.435 10.975 162.583 10.2856C162.673 9.86873 162.765 9.56154 162.83 9.38544C163.434 7.78071 163.446 6.74937 162.964 6.26807C162.805 6.10926 162.805 5.85177 162.964 5.69296C162.971 5.68601 162.978 5.67937 162.985 5.67303L163.004 5.65309C163.163 5.49427 163.421 5.49427 163.58 5.65309C164.062 6.13439 165.095 6.12263 166.702 5.51954C166.878 5.45455 167.186 5.3628 167.603 5.27301C168.293 5.1245 169.045 5.03796 169.834 5.04371C171.955 5.05917 173.945 5.72654 175.624 7.24548C177.316 5.69003 179.328 5.00712 181.474 4.99148C182.263 4.98573 183.015 5.07227 183.705 5.22078C184.122 5.31057 184.43 5.40232 184.606 5.46731C186.213 6.0704 187.246 6.08216 187.728 5.60086C187.887 5.44204 188.145 5.44204 188.304 5.60085C188.311 5.6078 188.317 5.61494 188.324 5.62225ZM187.232 6.70995C186.546 6.83363 185.672 6.70184 184.615 6.33527L184.322 6.22949L184.248 6.20439C184.215 6.19358 184.173 6.18049 184.123 6.16556C183.952 6.11457 183.755 6.06346 183.533 6.01586C182.898 5.87928 182.206 5.79949 181.48 5.80478C179.477 5.81938 177.618 6.46604 176.062 7.95188C176.047 8.0214 176.012 8.08544 175.959 8.13847C175.8 8.29728 175.542 8.29728 175.383 8.13847C173.799 6.55717 171.891 5.87205 169.828 5.85701C169.102 5.85173 168.409 5.93151 167.774 6.06809C167.553 6.11569 167.355 6.1668 167.184 6.2178C167.134 6.23272 167.093 6.24581 167.059 6.25662L166.986 6.28172C165.797 6.728 164.824 6.89711 164.075 6.76368C164.198 7.44836 164.067 8.32151 163.699 9.37692L163.594 9.66927L163.568 9.74276C163.558 9.77596 163.544 9.81774 163.53 9.86771C163.478 10.0385 163.427 10.2359 163.38 10.4568C163.243 11.0909 163.163 11.7827 163.168 12.5072C163.183 14.5182 163.837 16.3825 165.341 17.9411C165.418 17.9559 165.491 17.9929 165.549 18.0516C165.708 18.2104 165.708 18.4679 165.549 18.6267C163.966 20.208 163.28 22.1141 163.265 24.1742C163.259 24.8987 163.339 25.5905 163.476 26.2246C163.524 26.4455 163.575 26.643 163.626 26.8137C163.656 26.9137 163.678 26.9808 163.69 27.0121C164.116 28.1444 164.29 29.08 164.189 29.8134C164.922 29.711 165.859 29.8845 166.993 30.31C167.024 30.3216 167.091 30.3441 167.191 30.3739C167.362 30.4249 167.56 30.4761 167.781 30.5237C168.416 30.6602 169.109 30.74 169.834 30.7347C171.897 30.7197 173.806 30.0346 175.39 28.4533L175.423 28.4256C175.426 28.4223 175.429 28.4191 175.432 28.4158C175.591 28.257 175.849 28.257 176.008 28.4158C177.591 29.9971 179.5 30.6823 181.563 30.6973C182.289 30.7026 182.981 30.6228 183.616 30.4862C183.838 30.4386 184.035 30.3875 184.206 30.3365C184.306 30.3067 184.374 30.2841 184.405 30.2726C185.539 29.8471 186.476 29.6735 187.21 29.774C187.108 29.0426 187.281 28.1069 187.708 26.9747C187.719 26.9434 187.742 26.8762 187.772 26.7763C187.823 26.6055 187.874 26.4081 187.921 26.1871C188.058 25.5531 188.138 24.8613 188.133 24.1367C188.118 22.0767 187.432 20.1705 185.848 18.5892C185.708 18.449 185.691 18.2319 185.799 18.0737C185.814 18.0484 185.833 18.0245 185.855 18.0025C187.438 16.4212 188.125 14.5151 188.14 12.455C188.145 11.7305 188.065 11.0387 187.928 10.4046C187.881 10.1836 187.829 9.98623 187.778 9.81548C187.763 9.76551 187.75 9.72373 187.739 9.69053L187.714 9.61704C187.267 8.42959 187.098 7.45838 187.232 6.70995Z" fill="white"/>
<path d="M183.585 10.5297C183.744 10.6885 183.744 10.946 183.585 11.1048C183.44 11.2487 183.299 11.3553 183.126 11.4359C183.002 11.7142 182.956 12.1824 182.916 13.149C182.871 14.1984 182.792 14.7467 182.531 15.2697C182.134 16.0633 181.232 17.0082 179.818 18.1271C181.465 19.4204 182.512 20.4966 182.967 21.3823C183.252 21.9384 183.347 22.5222 183.415 23.6376C183.5 25.0509 183.576 25.4741 183.864 25.7613C184.003 25.9003 184.02 26.1148 183.916 26.2726L183.864 26.3364L183.8 26.3885C183.642 26.4927 183.427 26.4753 183.288 26.3364C183 26.0492 182.577 25.973 181.161 25.8877C180.044 25.8204 179.46 25.7256 178.903 25.4406C178.014 24.9856 176.933 23.9356 175.636 22.2836C174.48 23.7525 173.509 24.6859 172.696 25.0908C172.172 25.3518 171.623 25.431 170.572 25.4752C169.261 25.5303 168.865 25.5943 168.612 25.847C168.453 26.0058 168.195 26.0058 168.036 25.847C168.022 25.8321 168.008 25.8164 167.996 25.7999L167.949 25.7599C167.79 25.6011 167.79 25.3436 167.949 25.1848C168.202 24.9321 168.266 24.5374 168.322 23.2277C168.366 22.1783 168.445 21.63 168.706 21.107C169.109 20.302 170.031 19.3412 171.481 18.2011C170.008 17.0148 169.061 16.0175 168.635 15.1874C168.35 14.6314 168.255 14.0475 168.188 12.9321C168.102 11.5188 168.026 11.0957 167.738 10.8084C167.599 10.6695 167.582 10.455 167.686 10.2971L167.738 10.2334C167.897 10.0746 168.155 10.0746 168.314 10.2334C168.602 10.5206 169.026 10.5967 170.441 10.682C171.558 10.7494 172.143 10.8442 172.699 11.1292C173.573 11.5764 174.632 12.5985 175.9 14.2019C177.093 12.6708 178.092 11.7008 178.925 11.2858C179.449 11.0249 179.998 10.9457 181.049 10.9015C181.836 10.8684 182.293 10.8321 182.588 10.7537C182.625 10.7071 182.667 10.6621 182.712 10.6168C182.802 10.5266 182.924 10.4876 183.042 10.4999C183.202 10.3715 183.436 10.3814 183.585 10.5297ZM182.217 11.6414C181.92 11.6742 181.551 11.6944 181.083 11.7141C180.148 11.7534 179.674 11.8219 179.289 12.0136C178.544 12.3844 177.545 13.3791 176.322 14.9897C176.304 15.0805 176.253 15.1633 176.174 15.2232C175.996 15.3594 175.74 15.3252 175.604 15.1466C174.247 13.3717 173.145 12.271 172.328 11.8529C171.906 11.6372 171.396 11.5544 170.392 11.4939C169.707 11.4526 169.222 11.4138 168.854 11.3485C168.921 11.7147 168.959 12.1989 169.001 12.8831C169.061 13.8855 169.144 14.3955 169.36 14.8165C169.743 15.5625 170.698 16.547 172.218 17.7462C172.34 17.7473 172.459 17.8028 172.537 17.9064C172.57 17.9496 172.592 17.9973 172.606 18.0465L172.659 18.0876C172.837 18.2238 172.872 18.479 172.735 18.6575C172.599 18.8361 172.343 18.8703 172.164 18.7341L172.142 18.717C170.69 19.8432 169.785 20.7696 169.435 21.4701C169.243 21.8544 169.175 22.3283 169.135 23.2619C169.106 23.9572 169.076 24.433 169.011 24.7878C169.365 24.7222 169.842 24.6919 170.538 24.6626C171.473 24.6233 171.947 24.5548 172.332 24.3631C173.083 23.989 174.093 22.9803 175.33 21.3449C175.466 21.1657 175.721 21.1302 175.901 21.2655C175.976 21.3224 176.026 21.4003 176.049 21.4849L175.999 21.4231C177.355 23.198 178.458 24.2987 179.274 24.7168C179.696 24.9326 180.207 25.0154 181.21 25.0759C181.896 25.1172 182.38 25.1559 182.747 25.2224C182.682 24.855 182.643 24.3709 182.602 23.6866C182.541 22.6842 182.458 22.1743 182.242 21.7533C181.823 20.9376 180.721 19.8369 178.944 18.4822L179.122 18.6201C178.969 18.6576 178.801 18.6039 178.7 18.4702C178.564 18.291 178.6 18.036 178.779 17.9006C180.417 16.6651 181.427 15.6564 181.802 14.9066C181.994 14.5223 182.062 14.0484 182.102 13.1148C182.13 12.4532 182.159 11.9904 182.217 11.6414Z" fill="white" fill-opacity="0.7"/>
<path d="M175.553 7.18652C175.776 7.18652 175.956 7.37027 175.956 7.59692C175.956 7.80269 175.932 7.98008 175.867 8.16102C175.977 8.44843 176.273 8.815 176.922 9.53246C177.627 10.3128 177.956 10.7607 178.14 11.3201C178.42 12.1726 178.45 13.4975 178.241 15.3156C180.305 15.0763 181.798 15.1002 182.745 15.3993C183.346 15.5892 183.831 15.9317 184.676 16.666C185.747 17.5963 186.103 17.8394 186.514 17.8394C186.741 17.8394 186.925 18.0198 186.925 18.2423V18.2923C186.925 18.5148 186.741 18.6952 186.514 18.6952C186.103 18.6952 185.747 18.9383 184.676 19.8686C183.831 20.6029 183.346 20.9454 182.745 21.1353C181.796 21.4352 180.297 21.4585 178.227 21.2176C178.451 23.0998 178.426 24.4654 178.14 25.337C177.956 25.8964 177.627 26.3442 176.922 27.1246C176.041 28.0986 175.81 28.4259 175.81 28.7865C175.81 29.0132 175.629 29.1969 175.406 29.1969C175.385 29.1969 175.365 29.1953 175.345 29.1923L175.284 29.1969C175.061 29.1969 174.88 29.0132 174.88 28.7865C174.88 28.4259 174.648 28.0986 173.768 27.1246C173.063 26.3442 172.734 25.8964 172.55 25.337C172.266 24.4721 172.239 23.1208 172.458 21.2617C170.592 21.4543 169.224 21.4157 168.337 21.1353C167.736 20.9454 167.251 20.6029 166.405 19.8686C165.335 18.9383 164.978 18.6952 164.567 18.6952C164.34 18.6952 164.156 18.5148 164.156 18.2923L164.157 18.2674C164.157 18.2591 164.156 18.2507 164.156 18.2423C164.156 18.0198 164.34 17.8394 164.567 17.8394C164.978 17.8394 165.335 17.5963 166.405 16.666C167.251 15.9317 167.736 15.5892 168.337 15.3993C169.269 15.1046 170.733 15.077 172.748 15.3048C172.507 13.3513 172.526 11.9396 172.819 11.0465C173.003 10.4871 173.332 10.0392 174.037 9.25886C174.565 8.6743 174.86 8.32268 175.011 8.05699C175.005 7.99718 175.003 7.93526 175.003 7.87052C175.003 7.74156 175.061 7.6265 175.153 7.55126C175.174 7.3464 175.345 7.18652 175.553 7.18652ZM175.374 8.95379C175.19 9.18905 174.946 9.46639 174.631 9.81432C174.004 10.5086 173.72 10.8957 173.584 11.3067C173.336 12.0615 173.322 13.3812 173.555 15.2419L173.589 15.5077L173.585 15.4632C173.698 15.5482 173.762 15.6883 173.742 15.8363C173.712 16.0569 173.505 16.2116 173.28 16.182C171.044 15.8876 169.47 15.8876 168.589 16.1662C168.134 16.31 167.71 16.6092 166.951 17.269C166.411 17.7375 166.029 18.0563 165.712 18.268C166.029 18.4783 166.411 18.7971 166.951 19.2656C167.71 19.9254 168.134 20.2246 168.589 20.3684C169.387 20.6205 170.751 20.6445 172.661 20.4285C172.746 20.3474 172.865 20.3057 172.988 20.3233C173.039 20.3305 173.086 20.347 173.129 20.3709L173.28 20.3526C173.505 20.323 173.712 20.4777 173.742 20.6983C173.772 20.9188 173.614 21.1216 173.389 21.1512L173.282 21.1652C173.053 23.0132 173.068 24.3251 173.315 25.0767C173.451 25.4878 173.735 25.8748 174.362 26.5692C174.83 27.0863 175.142 27.4475 175.346 27.7469C175.548 27.4475 175.86 27.0863 176.328 26.5692C176.955 25.8748 177.239 25.4878 177.374 25.0767C177.632 24.293 177.638 22.9001 177.376 20.9248C177.342 20.8558 177.328 20.7782 177.339 20.6983C177.348 20.6309 177.374 20.5697 177.412 20.518C177.472 20.4159 177.576 20.3411 177.701 20.3233C177.792 20.3105 177.879 20.3291 177.953 20.3708L177.801 20.3526C180.038 20.647 181.611 20.647 182.492 20.3684C182.948 20.2246 183.371 19.9254 184.131 19.2656C184.67 18.7971 185.052 18.4783 185.369 18.2666C185.052 18.0563 184.67 17.7375 184.131 17.269C183.371 16.6092 182.948 16.31 182.492 16.1662C181.651 15.9002 180.178 15.8882 178.1 16.144C178.018 16.2776 177.864 16.3568 177.701 16.3338C177.492 16.3041 177.343 16.1164 177.354 15.9059C177.348 15.8835 177.343 15.8603 177.339 15.8363C177.326 15.742 177.348 15.6509 177.394 15.5753L177.357 15.8707C177.638 13.822 177.638 12.3823 177.374 11.5803C177.239 11.1693 176.955 10.7822 176.328 10.0879C175.883 9.59565 175.578 9.2447 175.374 8.95379Z" fill="white"/>
<path fill-rule="evenodd" clip-rule="evenodd" d="M12.3537 29.2922L7.80235 21.5006H4.443V29.2922H0V6.85547H8.99438C11.0533 6.85547 12.8233 7.5769 14.3043 9.01978C15.7492 10.4627 16.4716 12.2302 16.4716 14.2863C16.4716 15.657 16.0743 16.9556 15.2796 18.146C14.4849 19.3363 13.4374 20.2381 12.137 20.8153L17.1218 29.2561H12.3537V29.2922ZM4.443 11.0037V17.641H8.99438C9.82518 17.641 10.5476 17.3163 11.1617 16.667C11.7758 16.0177 12.0647 15.2241 12.0647 14.3223C12.0647 13.4205 11.7758 12.627 11.1617 11.9777C10.5476 11.3284 9.8613 11.0037 8.99438 11.0037H4.443ZM22.2118 22.9769C22.7536 24.9969 24.2707 25.9709 26.727 25.9709C28.3164 25.9709 29.5084 25.4298 30.3031 24.3837L33.6263 26.2955C32.0369 28.5681 29.7251 29.7224 26.6186 29.7224C23.9817 29.7224 21.8505 28.9288 20.225 27.3055C18.6357 25.7184 17.8049 23.6983 17.8049 21.2455C17.8049 18.8286 18.5996 16.8086 20.1889 15.2215C21.7783 13.5982 23.8011 12.8046 26.2935 12.8046C28.6415 12.8046 30.5921 13.6343 32.1092 15.2575C33.6263 16.8808 34.421 18.9008 34.421 21.2815C34.421 21.8226 34.3849 22.3637 34.2765 22.9769H22.2118ZM22.1756 19.7665H30.3392C30.0864 18.6844 29.6168 17.8547 28.8943 17.3136C28.1719 16.7726 27.305 16.5201 26.3658 16.5201C25.246 16.5201 24.343 16.8086 23.6205 17.3858C22.862 17.9269 22.3924 18.7565 22.1756 19.7665ZM50.6429 14.5719C49.5231 13.3815 48.0782 12.8043 46.3082 12.8043C44.1048 12.8043 42.5154 13.5618 41.504 15.0769V13.2733H37.35V29.2892H41.504V20.6319C41.504 19.2973 41.8291 18.2873 42.4793 17.638C43.1295 16.9526 43.9603 16.628 45.044 16.628C46.0193 16.628 46.7778 16.9165 47.3558 17.4937C47.9337 18.0708 48.2227 18.8644 48.2227 19.9466V29.2892H52.3767V19.4416C52.3767 17.3855 51.7988 15.7622 50.6429 14.5719ZM59.3871 22.9766C59.929 24.9966 61.4461 25.9706 63.9024 25.9706C65.4917 25.9706 66.6838 25.4295 67.4785 24.3834L70.8017 26.2952C69.2123 28.5677 66.9005 29.722 63.794 29.722C61.1571 29.722 59.0259 28.9285 57.4004 27.3052C55.8111 25.7181 54.9802 23.698 54.9802 21.2452C54.9802 18.8283 55.7749 16.8083 57.3643 15.2212C58.9537 13.5979 60.9765 12.8043 63.4689 12.8043C65.8168 12.8043 67.7674 13.634 69.2846 15.2572C70.8017 16.8805 71.5964 18.9005 71.5964 21.2812C71.5964 21.8223 71.5602 22.3634 71.4519 22.9766H59.3871ZM59.3149 19.7662H67.4785C67.2256 18.6841 66.756 17.8544 66.0336 17.3133C65.3111 16.7722 64.4442 16.5197 63.505 16.5197C62.3853 16.5197 61.4822 16.8083 60.7598 17.3855C60.0373 17.9265 59.5677 18.7562 59.3149 19.7662ZM95.9041 13.2702H91.9306L89.2215 23.1539L86.2956 13.2702H82.3944L79.4685 23.1178L76.7233 13.2702H72.3525L77.0845 29.2861H81.1302L84.1644 19.5828L87.1986 29.2861H91.2082L95.9041 13.2702Z" fill="white"/>
<path fill-rule="evenodd" clip-rule="evenodd" d="M121.277 6.49414H121.638V6.85486V29.3276V29.6883H121.277H116.87H116.508V29.3276V16.0532L110.837 25.3597L110.729 25.5401H110.548H110.043H109.826L109.717 25.3597L104.046 16.0893V29.2916V29.6523H103.685H99.2421H98.8809V29.2916V6.85486V6.49414H99.2421H103.793H104.01L104.119 6.6745L110.259 16.7385L116.364 6.6745L116.472 6.49414H116.689H121.277ZM126.519 14.9721C128.18 13.3128 130.312 12.4471 132.876 12.4471C135.333 12.4471 137.392 13.3128 138.981 15.0442C140.57 16.7396 141.365 18.8318 141.365 21.3207C141.365 21.8618 141.293 22.475 141.184 23.0883L141.148 23.3768H140.859H129.264C129.842 24.8918 131.179 25.6494 133.274 25.6494C134.755 25.6494 135.838 25.1804 136.597 24.2065L136.777 23.954L137.066 24.0983L140.39 26.0101L140.715 26.1904L140.498 26.5151C138.836 28.8958 136.38 30.0862 133.201 30.0862C130.456 30.0862 128.217 29.2205 126.555 27.5612C124.857 25.9019 124.026 23.7736 124.026 21.2486C124.026 18.7596 124.857 16.6314 126.519 14.9721ZM130.348 17.6775C129.806 18.1103 129.409 18.6875 129.156 19.4089H136.38C136.163 18.6514 135.766 18.0382 135.188 17.6414C134.502 17.1725 133.743 16.92 132.876 16.92C131.865 16.92 130.998 17.1725 130.348 17.6775Z" fill="#C3DEF2"/>
<g opacity="0.65">
<path d="M146.1 6.85156V7.42871H145.269V9.98981H144.655V7.42871H143.824V6.85156H146.1Z" fill="white"/>
<path d="M149.531 6.85156V9.98981H148.917V7.96979L148.014 9.41266H147.942L147.075 7.96979V9.98981H146.461V6.85156H147.111L148.014 8.33051L148.917 6.85156H149.531Z" fill="white"/>
</g>
</svg>
