<svg width="188" height="35" viewBox="0 0 188 35" fill="none" xmlns="http://www.w3.org/2000/svg">
<g opacity="0.6">
<path d="M170.493 0.00100809L170.519 0C170.739 0 170.916 0.177544 170.916 0.396555C170.916 1.0603 171.637 1.76334 173.161 2.454C173.328 2.53061 173.603 2.67917 173.953 2.90468C174.531 3.27764 175.109 3.73539 175.649 4.28258C177.102 5.75409 178.013 7.58481 178.122 9.7886C180.362 9.88029 182.221 10.7948 183.712 12.262C184.26 12.8012 184.718 13.3783 185.092 13.9561C185.318 14.3054 185.466 14.5805 185.543 14.7467C186.235 16.2691 186.939 16.9883 187.603 16.9883C187.823 16.9883 188 17.1659 188 17.3849C188 17.3945 188 17.404 187.999 17.4134L188 17.4399C188 17.6589 187.823 17.8364 187.603 17.8364C186.939 17.8364 186.235 18.5557 185.543 20.0781C185.466 20.2443 185.318 20.5194 185.092 20.8687C184.718 21.4465 184.26 22.0236 183.712 22.5628C182.222 24.0291 180.364 24.9434 178.125 25.0354C178.031 27.2671 177.116 29.1191 175.649 30.605C175.109 31.1521 174.531 31.6099 173.953 31.9829C173.603 32.2084 173.328 32.3569 173.161 32.4335C171.855 33.0254 171.139 33.6264 170.961 34.204C170.977 34.2984 170.985 34.394 170.985 34.491C170.985 34.71 170.807 34.8875 170.588 34.8875L170.553 34.8844L170.519 34.8875C170.327 34.8875 170.167 34.7516 170.13 34.5709L170.122 34.491C170.122 34.3947 170.13 34.2997 170.145 34.206C169.97 33.6278 169.254 33.0261 167.946 32.4335C167.78 32.3569 167.504 32.2084 167.154 31.9829C166.576 31.6099 165.998 31.1521 165.458 30.605C163.992 29.1198 163.077 27.2687 162.982 25.0375C160.724 24.9551 158.852 24.0385 157.353 22.5628C156.805 22.0236 156.347 21.4465 155.973 20.8687C155.747 20.5194 155.599 20.2443 155.522 20.0781C154.929 18.7734 154.327 18.0586 153.749 17.8808C153.654 17.8974 153.559 17.9051 153.462 17.9051C153.242 17.9051 153.064 17.7276 153.064 17.5086L153.068 17.4734L153.064 17.4399C153.064 17.2483 153.201 17.0884 153.382 17.0514L153.462 17.0433C153.558 17.0433 153.653 17.051 153.747 17.0661C154.326 16.8915 154.928 16.1766 155.522 14.8704C155.599 14.7042 155.747 14.4291 155.973 14.0797C156.347 13.502 156.805 12.9249 157.353 12.3856C158.824 10.9378 160.654 10.0282 162.856 9.9169L162.855 9.93937L162.856 9.91226C162.937 7.6532 163.855 5.78153 165.334 4.28258C165.874 3.73539 166.452 3.27764 167.031 2.90468C167.38 2.67917 167.656 2.53061 167.822 2.454C169.347 1.76334 170.067 1.0603 170.067 0.396555C170.067 0.177544 170.245 0 170.464 0C170.474 0 170.483 0.00033983 170.493 0.00100809ZM170.49 1.50272C170.068 2.11092 169.281 2.66411 168.153 3.17526C168.123 3.18889 168.061 3.21968 167.972 3.26802C167.818 3.35059 167.647 3.45148 167.461 3.57102C166.929 3.91404 166.396 4.33605 165.9 4.83928C164.521 6.23614 163.685 7.97218 163.646 10.0828C163.689 10.1458 163.713 10.221 163.713 10.3019C163.713 10.5209 163.536 10.6985 163.316 10.6985C161.133 10.6985 159.343 11.5404 157.91 12.9505C157.407 13.4465 156.984 13.9785 156.64 14.5099C156.521 14.6951 156.42 14.8664 156.337 15.0193C156.289 15.1088 156.258 15.1707 156.244 15.2002C155.756 16.2744 155.23 17.0392 154.654 17.4756C155.23 17.9093 155.756 18.6741 156.244 19.7482C156.258 19.7778 156.289 19.8396 156.337 19.9291C156.42 20.082 156.521 20.2534 156.64 20.4386C156.984 20.97 157.407 21.502 157.91 21.9979C159.343 23.4081 161.133 24.25 163.316 24.25L163.364 24.2534C163.367 24.2534 163.369 24.2534 163.371 24.2534C163.591 24.2534 163.768 24.4309 163.768 24.6499C163.768 26.8306 164.612 28.6174 166.024 30.0483C166.52 30.5515 167.053 30.9735 167.585 31.3165C167.771 31.4361 167.942 31.5369 168.095 31.6195C168.185 31.6679 168.247 31.6986 168.277 31.7123C169.352 32.1996 170.118 32.7251 170.555 33.3C170.989 32.7251 171.755 32.1996 172.831 31.7123C172.86 31.6986 172.922 31.6679 173.012 31.6195C173.165 31.5369 173.337 31.4361 173.522 31.3165C174.054 30.9735 174.587 30.5515 175.084 30.0483C176.496 28.6174 177.339 26.8306 177.339 24.6499C177.339 24.4579 177.475 24.2978 177.657 24.2612C177.686 24.2537 177.717 24.25 177.749 24.25C179.932 24.25 181.722 23.4081 183.154 21.9979C183.658 21.502 184.081 20.97 184.425 20.4386C184.544 20.2534 184.645 20.082 184.728 19.9291C184.776 19.8396 184.807 19.7778 184.821 19.7482C185.333 18.6215 185.887 17.8351 186.496 17.4111C185.887 16.9897 185.333 16.2033 184.821 15.0766C184.807 15.047 184.776 14.9852 184.728 14.8957C184.645 14.7428 184.544 14.5714 184.425 14.3862C184.081 13.8548 183.658 13.3228 183.154 12.8268C181.763 11.4575 180.036 10.624 177.937 10.5769C177.878 10.6143 177.809 10.6342 177.736 10.6342C177.517 10.6342 177.339 10.4566 177.339 10.2376C177.339 8.0569 176.496 6.27014 175.084 4.83928C174.587 4.33605 174.054 3.91404 173.522 3.57102C173.337 3.45148 173.165 3.35059 173.012 3.26802C172.922 3.21968 172.86 3.18889 172.831 3.17526C171.703 2.66411 170.915 2.11092 170.49 1.50272Z" fill="white"/>
</g>
<path opacity="0.55" d="M182.783 5.44943L182.802 5.46734C182.956 5.62124 182.956 5.87077 182.802 6.02467C182.335 6.4911 182.347 7.49057 182.932 9.04571C182.995 9.21637 183.084 9.51407 183.171 9.91803C183.315 10.5861 183.399 11.3133 183.394 12.0768C183.379 14.1526 182.717 16.0986 181.208 17.7349C182.712 19.3695 183.372 21.313 183.387 23.386C183.393 24.1495 183.309 24.8767 183.165 25.5448C183.078 25.9488 182.988 26.2465 182.925 26.4171C182.423 27.7514 182.344 28.6767 182.626 29.2071C182.704 29.2609 182.776 29.3223 182.844 29.3899C182.998 29.5438 182.998 29.7933 182.844 29.9472L182.817 29.9697L182.796 29.9955C182.661 30.1302 182.453 30.147 182.3 30.046L182.238 29.9955C182.17 29.9274 182.108 29.8548 182.052 29.7777C181.521 29.4958 180.595 29.5758 179.261 30.0767C179.09 30.1396 178.792 30.2285 178.387 30.3156C177.718 30.4595 176.99 30.5433 176.226 30.5378C174.151 30.5227 172.205 29.864 170.568 28.3629C168.923 29.8893 166.963 30.5588 164.871 30.5741C164.106 30.5796 163.378 30.4958 162.709 30.3518C162.304 30.2648 162.006 30.1759 161.835 30.1129C160.499 29.6115 159.573 29.5319 159.042 29.814C158.988 29.8921 158.926 29.9642 158.859 30.0318C158.704 30.1857 158.455 30.1857 158.3 30.0318L158.278 30.0049L158.252 29.9835C158.117 29.8488 158.1 29.641 158.202 29.488L158.252 29.4262C158.32 29.3581 158.393 29.2963 158.47 29.2408C158.753 28.7108 158.672 27.7862 158.171 26.4534C158.108 26.2827 158.019 25.985 157.932 25.5811C157.787 24.913 157.703 24.1858 157.709 23.4223C157.724 21.3724 158.37 19.4491 159.839 17.8256L160.061 18.0551C158.368 16.3648 157.632 14.3184 157.615 12.1274C157.61 11.3639 157.694 10.6367 157.838 9.96864C157.925 9.56468 158.014 9.26698 158.077 9.09633C158.663 7.54119 158.674 6.54172 158.207 6.07529C158.053 5.92139 158.053 5.67186 158.207 5.51796C158.214 5.51122 158.221 5.50478 158.228 5.49864L158.246 5.47931C158.4 5.32541 158.65 5.32541 158.804 5.47931C159.271 5.94574 160.272 5.93435 161.829 5.34989C162 5.28691 162.298 5.198 162.702 5.11098C163.371 4.96706 164.1 4.8832 164.864 4.88877C166.92 4.90375 168.849 5.5505 170.476 7.0225C172.115 5.51512 174.065 4.85331 176.145 4.83815C176.91 4.83258 177.638 4.91645 178.307 5.06036C178.711 5.14738 179.009 5.2363 179.18 5.29927C180.738 5.88373 181.738 5.89512 182.206 5.4287C182.36 5.27479 182.61 5.27479 182.764 5.4287C182.77 5.43543 182.777 5.44235 182.783 5.44943ZM181.725 6.50352C181.06 6.62338 180.213 6.49566 179.189 6.14041L178.905 6.0379L178.834 6.01358C178.801 6.00311 178.761 5.99042 178.712 5.97595C178.547 5.92653 178.355 5.87701 178.141 5.83088C177.525 5.69852 176.854 5.6212 176.151 5.62632C174.209 5.64047 172.408 6.26715 170.901 7.70707C170.886 7.77444 170.852 7.8365 170.8 7.8879C170.646 8.0418 170.396 8.0418 170.242 7.8879C168.707 6.35546 166.858 5.69151 164.858 5.67694C164.155 5.67181 163.484 5.74913 162.869 5.8815C162.654 5.92763 162.463 5.97715 162.297 6.02657C162.248 6.04103 162.208 6.05372 162.176 6.06419L162.104 6.08852C160.952 6.52101 160.009 6.68489 159.283 6.55558C159.403 7.21911 159.275 8.06528 158.92 9.08807L158.817 9.37139L158.793 9.44261C158.782 9.47478 158.769 9.51527 158.755 9.5637C158.705 9.72917 158.656 9.92049 158.61 10.1346C158.477 10.7491 158.4 11.4195 158.405 12.1217C158.419 14.0705 159.053 15.8771 160.511 17.3876C160.585 17.402 160.655 17.4378 160.712 17.4947C160.866 17.6486 160.866 17.8981 160.712 18.052C159.178 19.5844 158.513 21.4317 158.498 23.4281C158.493 24.1302 158.571 24.8006 158.703 25.4151C158.749 25.6292 158.799 25.8206 158.848 25.986C158.877 26.0829 158.899 26.148 158.91 26.1783C159.323 27.2756 159.492 28.1823 159.394 28.893C160.104 28.7938 161.012 28.9619 162.111 29.3743C162.141 29.3855 162.206 29.4073 162.303 29.4363C162.469 29.4857 162.661 29.5352 162.875 29.5813C163.49 29.7137 164.162 29.791 164.865 29.7859C166.864 29.7713 168.714 29.1074 170.249 27.5749L170.28 27.5481C170.283 27.5449 170.286 27.5418 170.29 27.5386C170.444 27.3847 170.694 27.3847 170.848 27.5386C172.382 29.0711 174.232 29.735 176.231 29.7496C176.934 29.7547 177.606 29.6774 178.221 29.545C178.435 29.4989 178.627 29.4494 178.793 29.4C178.89 29.371 178.955 29.3492 178.985 29.338C180.084 28.9256 180.992 28.7575 181.704 28.8548C181.604 28.146 181.773 27.2393 182.186 26.1421C182.197 26.1117 182.219 26.0466 182.248 25.9497C182.297 25.7843 182.347 25.593 182.393 25.3788C182.526 24.7644 182.603 24.0939 182.598 23.3918C182.583 21.3954 181.918 19.5481 180.384 18.0157C180.248 17.8798 180.232 17.6694 180.336 17.5161C180.351 17.4916 180.369 17.4684 180.39 17.4471C181.925 15.9147 182.59 14.0675 182.604 12.071C182.61 11.3689 182.532 10.6985 182.4 10.084C182.353 9.86987 182.304 9.67855 182.254 9.51308C182.24 9.46465 182.227 9.42416 182.217 9.39199L182.192 9.32078C181.759 8.17002 181.595 7.22882 181.725 6.50352Z" fill="white"/>
<path d="M178.187 10.2043C178.341 10.3582 178.341 10.6078 178.187 10.7617C178.047 10.9011 177.91 11.0045 177.743 11.0826C177.622 11.3523 177.578 11.806 177.539 12.7427C177.496 13.7597 177.419 14.2911 177.166 14.7979C176.781 15.567 175.907 16.4827 174.536 17.567C176.132 18.8203 177.148 19.8632 177.588 20.7216C177.865 21.2605 177.957 21.8263 178.022 22.9072C178.105 24.2768 178.179 24.6869 178.458 24.9653C178.592 25.0999 178.609 25.3078 178.508 25.4608L178.458 25.5226L178.396 25.5731C178.242 25.6741 178.034 25.6573 177.899 25.5226C177.621 25.2443 177.21 25.1705 175.839 25.0878C174.756 25.0225 174.19 24.9307 173.65 24.6545C172.788 24.2135 171.741 23.196 170.484 21.5951C169.364 23.0185 168.422 23.9231 167.635 24.3155C167.127 24.5684 166.595 24.6452 165.577 24.688C164.306 24.7415 163.923 24.8035 163.677 25.0483C163.523 25.2022 163.273 25.2022 163.119 25.0483C163.105 25.0339 163.092 25.0186 163.08 25.0027L163.035 24.9639C162.881 24.81 162.881 24.5605 163.035 24.4066C163.28 24.1617 163.342 23.7792 163.396 22.51C163.438 21.493 163.515 20.9616 163.769 20.4548C164.158 19.6746 165.053 18.7436 166.457 17.6387C165.03 16.4891 164.113 15.5226 163.7 14.7182C163.423 14.1793 163.331 13.6135 163.266 12.5325C163.183 11.1629 163.109 10.7528 162.83 10.4745C162.696 10.3398 162.679 10.132 162.78 9.97898L162.83 9.91719C162.985 9.76328 163.234 9.76328 163.389 9.91719C163.667 10.1955 164.078 10.2693 165.449 10.352C166.532 10.4172 167.098 10.5091 167.638 10.7853C168.485 11.2187 169.511 12.2092 170.74 13.7631C171.896 12.2793 172.864 11.3393 173.671 10.9371C174.179 10.6843 174.711 10.6075 175.73 10.5647C176.493 10.5326 176.936 10.4974 177.221 10.4214C177.257 10.3763 177.297 10.3326 177.341 10.2887C177.429 10.2014 177.547 10.1636 177.661 10.1754C177.816 10.0511 178.043 10.0606 178.187 10.2043ZM176.862 11.2817C176.574 11.3135 176.216 11.3331 175.763 11.3521C174.857 11.3902 174.397 11.4566 174.024 11.6424C173.302 12.0018 172.334 12.9657 171.149 14.5266C171.131 14.6145 171.082 14.6948 171.006 14.7528C170.832 14.8849 170.585 14.8517 170.452 14.6786C169.138 12.9586 168.07 11.8919 167.278 11.4867C166.87 11.2776 166.375 11.1974 165.402 11.1387C164.738 11.0987 164.268 11.0612 163.911 10.9979C163.976 11.3527 164.014 11.8219 164.054 12.485C164.112 13.4565 164.193 13.9507 164.402 14.3587C164.773 15.0816 165.699 16.0357 167.172 17.1978C167.29 17.1989 167.405 17.2528 167.481 17.3532C167.512 17.395 167.534 17.4412 167.547 17.4889L167.599 17.5287C167.772 17.6607 167.805 17.908 167.673 18.081C167.541 18.2541 167.293 18.2873 167.12 18.1552L167.098 18.1386C165.691 19.2301 164.814 20.1279 164.475 20.8066C164.289 21.1791 164.222 21.6383 164.184 22.5431C164.156 23.217 164.126 23.678 164.063 24.0219C164.407 23.9583 164.869 23.9289 165.543 23.9005C166.449 23.8624 166.909 23.7961 167.282 23.6103C168.01 23.2478 168.989 22.2702 170.188 20.6853C170.319 20.5117 170.567 20.4773 170.741 20.6085C170.814 20.6635 170.862 20.7391 170.884 20.821L170.835 20.7611C172.15 22.4812 173.218 23.5479 174.01 23.9531C174.418 24.1622 174.913 24.2424 175.886 24.301C176.55 24.3411 177.02 24.3786 177.375 24.443C177.312 24.087 177.274 23.6178 177.234 22.9547C177.176 21.9833 177.095 21.4891 176.886 21.0811C176.48 20.2906 175.412 19.2239 173.689 17.9111L173.862 18.0448C173.714 18.0811 173.551 18.029 173.453 17.8995C173.322 17.7258 173.356 17.4787 173.53 17.3475C175.117 16.1502 176.096 15.1726 176.459 14.446C176.645 14.0736 176.712 13.6143 176.75 12.7095C176.777 12.0684 176.805 11.6199 176.862 11.2817Z" fill="white" fill-opacity="0.42"/>
<path d="M170.406 6.96484C170.622 6.96484 170.797 7.14291 170.797 7.36256C170.797 7.56197 170.773 7.73388 170.71 7.90923C170.816 8.18776 171.104 8.54299 171.732 9.23828C172.416 9.99455 172.734 10.4286 172.913 10.9707C173.184 11.7968 173.213 13.0808 173.011 14.8427C175.011 14.6108 176.458 14.634 177.375 14.9238C177.958 15.1078 178.428 15.4398 179.247 16.1514C180.285 17.0529 180.63 17.2885 181.028 17.2885C181.248 17.2885 181.426 17.4633 181.426 17.679V17.7275C181.426 17.9431 181.248 18.1179 181.028 18.1179C180.63 18.1179 180.285 18.3535 179.247 19.2551C178.428 19.9666 177.958 20.2986 177.375 20.4826C176.456 20.7732 175.003 20.7957 172.997 20.5624C173.214 22.3864 173.19 23.7098 172.913 24.5544C172.734 25.0965 172.416 25.5305 171.732 26.2868C170.879 27.2307 170.654 27.5479 170.654 27.8974C170.654 28.117 170.479 28.2951 170.263 28.2951C170.243 28.2951 170.224 28.2936 170.204 28.2906L170.145 28.2951C169.929 28.2951 169.754 28.117 169.754 27.8974C169.754 27.5479 169.529 27.2307 168.676 26.2868C167.993 25.5305 167.674 25.0965 167.496 24.5544C167.22 23.7163 167.195 22.4067 167.407 20.605C165.598 20.7917 164.272 20.7543 163.412 20.4826C162.83 20.2986 162.36 19.9666 161.541 19.2551C160.503 18.3535 160.157 18.1179 159.76 18.1179C159.54 18.1179 159.361 17.9431 159.361 17.7275L159.362 17.7033C159.362 17.6953 159.361 17.6871 159.361 17.679C159.361 17.4633 159.54 17.2885 159.76 17.2885C160.157 17.2885 160.503 17.0529 161.541 16.1514C162.36 15.4398 162.83 15.1078 163.412 14.9238C164.316 14.6382 165.735 14.6115 167.688 14.8323C167.454 12.9392 167.472 11.571 167.757 10.7055C167.935 10.1634 168.254 9.7294 168.937 8.97314C169.449 8.40665 169.735 8.06589 169.881 7.80841C169.875 7.75045 169.873 7.69044 169.873 7.62771C169.873 7.50273 169.929 7.39122 170.018 7.31831C170.038 7.11978 170.204 6.96484 170.406 6.96484ZM170.233 8.6775C170.054 8.90549 169.817 9.17426 169.513 9.51143C168.905 10.1843 168.629 10.5594 168.498 10.9577C168.258 11.6892 168.244 12.9681 168.469 14.7713L168.503 15.0289L168.499 14.9858C168.608 15.0682 168.67 15.2039 168.651 15.3474C168.621 15.5611 168.421 15.7111 168.203 15.6824C166.036 15.3971 164.511 15.3971 163.657 15.667C163.216 15.8063 162.805 16.0963 162.069 16.7358C161.547 17.1898 161.176 17.4987 160.869 17.7039C161.176 17.9077 161.547 18.2167 162.069 18.6706C162.805 19.3101 163.216 19.6001 163.657 19.7394C164.43 19.9837 165.752 20.0069 167.603 19.7976C167.686 19.719 167.801 19.6787 167.921 19.6957C167.97 19.7026 168.016 19.7186 168.057 19.7418L168.203 19.724C168.421 19.6953 168.621 19.8453 168.651 20.059C168.68 20.2728 168.527 20.4693 168.309 20.498L168.205 20.5116C167.983 22.3024 167.998 23.5738 168.237 24.3022C168.368 24.7006 168.644 25.0756 169.252 25.7485C169.705 26.2497 170.008 26.5997 170.205 26.8899C170.401 26.5997 170.704 26.2497 171.157 25.7485C171.765 25.0756 172.04 24.7006 172.171 24.3022C172.421 23.5427 172.426 22.1928 172.173 20.2786C172.14 20.2117 172.126 20.1365 172.137 20.059C172.146 19.9938 172.171 19.9345 172.207 19.8844C172.265 19.7854 172.366 19.7129 172.488 19.6957C172.575 19.6833 172.66 19.7013 172.731 19.7417L172.585 19.724C174.752 20.0093 176.277 20.0093 177.131 19.7394C177.572 19.6001 177.982 19.3101 178.718 18.6706C179.241 18.2167 179.612 17.9077 179.918 17.7025C179.612 17.4987 179.241 17.1898 178.718 16.7358C177.982 16.0963 177.572 15.8063 177.131 15.667C176.315 15.4092 174.888 15.3976 172.874 15.6455C172.795 15.775 172.646 15.8518 172.488 15.8294C172.285 15.8007 172.141 15.6188 172.151 15.4147C172.145 15.3931 172.14 15.3706 172.137 15.3474C172.124 15.2559 172.145 15.1677 172.19 15.0944L172.155 15.3806C172.426 13.3952 172.426 12.0001 172.171 11.2229C172.04 10.8245 171.765 10.4495 171.157 9.77658C170.725 9.29953 170.43 8.95942 170.233 8.6775Z" fill="white"/>
<path fill-rule="evenodd" clip-rule="evenodd" d="M12.2493 28.3869L7.83859 20.8362H4.58305V28.3869H0.277344V6.64355H8.99378C10.9891 6.64355 12.7044 7.3427 14.1396 8.74098C15.5399 10.1393 16.24 11.8522 16.24 13.8447C16.24 15.1731 15.8549 16.4316 15.0848 17.5851C14.3147 18.7387 13.2995 19.6127 12.0393 20.172L16.8701 28.352H12.2493V28.3869ZM4.58305 10.6636V17.0957H8.99378C9.79891 17.0957 10.499 16.7811 11.0941 16.1519C11.6892 15.5227 11.9693 14.7536 11.9693 13.8797C11.9693 13.0058 11.6892 12.2367 11.0941 11.6075C10.499 10.9782 9.83391 10.6636 8.99378 10.6636H4.58305ZM21.8025 22.267C22.3276 24.2246 23.7978 25.1685 26.1782 25.1685C27.7185 25.1685 28.8737 24.6441 29.6438 23.6303L32.8643 25.4831C31.3241 27.6854 29.0837 28.804 26.0732 28.804C23.5178 28.804 21.4524 28.0349 19.8772 26.4619C18.3369 24.9238 17.5318 22.9662 17.5318 20.5891C17.5318 18.2469 18.3019 16.2893 19.8422 14.7512C21.3824 13.1782 23.3428 12.4091 25.7582 12.4091C28.0335 12.4091 29.9238 13.2131 31.3941 14.7862C32.8643 16.3593 33.6345 18.3169 33.6345 20.624C33.6345 21.1484 33.5994 21.6727 33.4944 22.267H21.8025ZM21.7675 19.1558H29.6788C29.4338 18.1071 28.9787 17.3031 28.2786 16.7787C27.5785 16.2544 26.7383 16.0097 25.8282 16.0097C24.743 16.0097 23.8678 16.2893 23.1677 16.8487C22.4326 17.373 21.9775 18.177 21.7675 19.1558ZM49.3568 14.122C48.2716 12.9684 46.8713 12.4091 45.1561 12.4091C43.0207 12.4091 41.4805 13.1432 40.5003 14.6114V12.8635H36.4746V28.3845H40.5003V19.9948C40.5003 18.7014 40.8154 17.7226 41.4455 17.0934C42.0756 16.4292 42.8807 16.1146 43.9309 16.1146C44.876 16.1146 45.6111 16.3942 46.1712 16.9535C46.7313 17.5128 47.0114 18.2819 47.0114 19.3306V28.3845H51.037V18.8412C51.037 16.8487 50.4769 15.2756 49.3568 14.122ZM57.8296 22.267C58.3547 24.2246 59.8249 25.1685 62.2053 25.1685C63.7456 25.1685 64.9008 24.6441 65.6709 23.6303L68.8914 25.4831C67.3512 27.6854 65.1108 28.804 62.1003 28.804C59.5449 28.804 57.4795 28.0349 55.9043 26.4619C54.364 24.9238 53.5589 22.9662 53.5589 20.5891C53.5589 18.2469 54.329 16.2893 55.8693 14.7512C57.4095 13.1782 59.3699 12.4091 61.7853 12.4091C64.0606 12.4091 65.9509 13.2131 67.4212 14.7862C68.8914 16.3593 69.6616 18.3169 69.6616 20.624C69.6616 21.1484 69.6265 21.6727 69.5215 22.267H57.8296ZM57.7596 19.1558H65.6709C65.4259 18.1071 64.9708 17.3031 64.2707 16.7787C63.5706 16.2544 62.7304 16.0097 61.8203 16.0097C60.7351 16.0097 59.8599 16.2893 59.1598 16.8487C58.4597 17.373 58.0046 18.177 57.7596 19.1558ZM93.2167 12.8605H89.3661L86.7407 22.4388L83.9052 12.8605H80.1246L77.2891 22.4038L74.6287 12.8605H70.393L74.9787 28.3815H78.8994L81.8399 18.978L84.7803 28.3815H88.666L93.2167 12.8605Z" fill="white"/>
<path fill-rule="evenodd" clip-rule="evenodd" d="M117.803 6.29297H118.153V6.64254V28.4209V28.7704H117.803H113.532H113.182V28.4209V15.5566L107.687 24.5756L107.582 24.7504H107.406H106.916H106.706L106.601 24.5756L101.105 15.5916V28.3859V28.7355H100.755H96.4497H96.0996V28.3859V6.64254V6.29297H96.4497H100.86H101.07L101.175 6.46775L107.126 16.2208L113.042 6.46775L113.147 6.29297H113.357H117.803ZM122.884 14.5095C124.495 12.9015 126.56 12.0625 129.045 12.0625C131.426 12.0625 133.421 12.9015 134.961 14.5794C136.501 16.2224 137.272 18.2499 137.272 20.662C137.272 21.1863 137.202 21.7806 137.097 22.3749L137.062 22.6545H136.782H125.545C126.105 24.1227 127.4 24.8568 129.43 24.8568C130.866 24.8568 131.916 24.4024 132.651 23.4585L132.826 23.2138L133.106 23.3537L136.326 25.2064L136.642 25.3812L136.431 25.6958C134.821 28.003 132.441 29.1565 129.36 29.1565C126.7 29.1565 124.53 28.3176 122.919 26.7095C121.274 25.1015 120.469 23.039 120.469 20.592C120.469 18.18 121.274 16.1175 122.884 14.5095ZM126.595 17.1313C126.07 17.5508 125.685 18.1101 125.44 18.8092H132.441C132.231 18.0751 131.846 17.4809 131.286 17.0963C130.621 16.6419 129.885 16.3972 129.045 16.3972C128.065 16.3972 127.225 16.6419 126.595 17.1313Z" fill="white"/>
<g opacity="0.65">
<path d="M141.862 6.64062V7.19994H141.056V9.6819H140.461V7.19994H139.656V6.64062H141.862Z" fill="white"/>
<path d="M145.186 6.64062V9.6819H144.591V7.7243L143.716 9.12258H143.646L142.806 7.7243V9.6819H142.211V6.64062H142.841L143.716 8.07387L144.591 6.64062H145.186Z" fill="white"/>
</g>
</svg>
