<svg width="194" height="36" viewBox="0 0 194 36" fill="none" xmlns="http://www.w3.org/2000/svg">
<g opacity="0.6">
<path d="M175.867 0.00104024L175.894 0C176.121 0 176.304 0.183205 176.304 0.4092C176.304 1.09411 177.047 1.81957 178.62 2.53225C178.792 2.61131 179.076 2.7646 179.437 2.9973C180.034 3.38215 180.631 3.85451 181.188 4.41914C182.686 5.93757 183.627 7.82667 183.739 10.1007C186.051 10.1953 187.969 11.139 189.508 12.653C190.073 13.2094 190.546 13.8049 190.931 14.4011C191.164 14.7616 191.318 15.0454 191.397 15.217C192.111 16.7879 192.837 17.5301 193.523 17.5301C193.749 17.5301 193.933 17.7133 193.933 17.9393C193.933 17.9491 193.933 17.959 193.932 17.9687L193.933 17.996C193.933 18.222 193.749 18.4052 193.523 18.4052C192.837 18.4052 192.111 19.1474 191.397 20.7183C191.318 20.8898 191.164 21.1737 190.931 21.5342C190.546 22.1304 190.073 22.7259 189.508 23.2823C187.97 24.7953 186.053 25.7388 183.742 25.8337C183.645 28.1365 182.701 30.0477 181.188 31.5809C180.631 32.1455 180.034 32.6178 179.437 33.0027C179.076 33.2354 178.792 33.3887 178.62 33.4678C177.272 34.0785 176.534 34.6987 176.35 35.2946C176.367 35.3921 176.375 35.4908 176.375 35.5908C176.375 35.8168 176.192 36 175.965 36L175.929 35.9967L175.894 36C175.696 36 175.531 35.8597 175.493 35.6733L175.484 35.5908C175.484 35.4915 175.492 35.3934 175.508 35.2967C175.328 34.7001 174.589 34.0792 173.239 33.4678C173.067 33.3887 172.783 33.2354 172.422 33.0027C171.825 32.6178 171.229 32.1455 170.672 31.5809C169.159 30.0483 168.215 28.1383 168.117 25.8359C165.787 25.7509 163.855 24.8051 162.308 23.2823C161.743 22.7259 161.27 22.1304 160.884 21.5342C160.651 21.1737 160.498 20.8898 160.419 20.7183C159.807 19.372 159.186 18.6344 158.589 18.451C158.492 18.4681 158.393 18.4761 158.293 18.4761C158.066 18.4761 157.883 18.2929 157.883 18.0669L157.886 18.0306L157.883 17.996C157.883 17.7983 158.023 17.6333 158.21 17.5951L158.293 17.5868C158.392 17.5868 158.49 17.5947 158.587 17.6103C159.185 17.4302 159.806 16.6924 160.419 15.3446C160.498 15.173 160.651 14.8892 160.884 14.5287C161.27 13.9325 161.743 13.337 162.308 12.7806C163.826 11.2866 165.714 10.348 167.986 10.2331L167.985 10.2563L167.987 10.2283C168.07 7.89724 169.017 5.96588 170.544 4.41914C171.101 3.85451 171.697 3.38215 172.294 2.9973C172.655 2.7646 172.94 2.61131 173.111 2.53225C174.684 1.81957 175.428 1.09411 175.428 0.4092C175.428 0.183205 175.611 0 175.837 0C175.847 0 175.857 0.000350666 175.867 0.00104024ZM175.865 1.55064C175.429 2.17823 174.616 2.74906 173.452 3.27651C173.422 3.29057 173.358 3.32235 173.265 3.37222C173.107 3.45743 172.93 3.56153 172.739 3.68489C172.19 4.03885 171.64 4.47431 171.127 4.99359C169.705 6.43499 168.842 8.22639 168.802 10.4043C168.846 10.4693 168.871 10.5469 168.871 10.6304C168.871 10.8564 168.688 11.0396 168.462 11.0396C166.208 11.0396 164.362 11.9084 162.883 13.3635C162.363 13.8752 161.927 14.4242 161.573 14.9726C161.449 15.1636 161.345 15.3405 161.26 15.4982C161.21 15.5906 161.178 15.6544 161.164 15.6849C160.66 16.7933 160.117 17.5825 159.523 18.0328C160.117 18.4804 160.66 19.2696 161.164 20.3779C161.178 20.4084 161.21 20.4723 161.26 20.5646C161.345 20.7224 161.449 20.8992 161.573 21.0903C161.927 21.6386 162.363 22.1876 162.883 22.6994C164.362 24.1545 166.208 25.0233 168.462 25.0233L168.511 25.0268C168.513 25.0268 168.516 25.0267 168.518 25.0267C168.745 25.0267 168.928 25.2099 168.928 25.4359C168.928 27.6862 169.798 29.5299 171.255 31.0064C171.768 31.5257 172.317 31.9612 172.867 32.3151C173.058 32.4385 173.235 32.5426 173.393 32.6278C173.485 32.6777 173.549 32.7094 173.58 32.7235C174.69 33.2263 175.48 33.7686 175.931 34.3619C176.379 33.7686 177.17 33.2263 178.279 32.7235C178.31 32.7094 178.374 32.6777 178.466 32.6278C178.624 32.5426 178.801 32.4385 178.993 32.3151C179.542 31.9612 180.092 31.5257 180.604 31.0064C182.061 29.5299 182.931 27.6862 182.931 25.4359C182.931 25.2378 183.072 25.0726 183.259 25.0348C183.289 25.0271 183.321 25.0233 183.354 25.0233C185.607 25.0233 187.454 24.1545 188.932 22.6994C189.452 22.1876 189.888 21.6386 190.243 21.0903C190.366 20.8992 190.471 20.7224 190.556 20.5646C190.606 20.4723 190.638 20.4084 190.652 20.3779C191.18 19.2153 191.752 18.4039 192.38 17.9663C191.752 17.5314 191.18 16.72 190.652 15.5573C190.638 15.5268 190.606 15.463 190.556 15.3706C190.471 15.2129 190.366 15.036 190.243 14.8449C189.888 14.2966 189.452 13.7476 188.932 13.2359C187.497 11.8229 185.714 10.9627 183.549 10.9142C183.488 10.9528 183.417 10.9733 183.341 10.9733C183.115 10.9733 182.931 10.7901 182.931 10.5641C182.931 8.31382 182.061 6.47008 180.604 4.99359C180.092 4.47431 179.542 4.03885 178.993 3.68489C178.801 3.56153 178.624 3.45743 178.466 3.37222C178.374 3.32235 178.31 3.29057 178.279 3.27651C177.115 2.74906 176.303 2.17823 175.865 1.55064Z" fill="white"/>
</g>
<path opacity="0.55" d="M188.546 5.62225L188.566 5.64073C188.725 5.79954 188.725 6.05703 188.566 6.21584C188.084 6.69714 188.096 7.72848 188.7 9.33321C188.765 9.50931 188.857 9.8165 188.947 10.2333C189.096 10.9227 189.182 11.6731 189.177 12.4609C189.161 14.6029 188.478 16.611 186.921 18.2995C188.473 19.9862 189.154 21.9917 189.17 24.1308C189.176 24.9186 189.089 25.669 188.94 26.3584C188.85 26.7752 188.759 27.0824 188.693 27.2585C188.175 28.6354 188.093 29.5901 188.385 30.1375C188.465 30.193 188.54 30.2563 188.61 30.3261C188.769 30.4849 188.769 30.7424 188.61 30.9012L188.582 30.9244L188.56 30.951C188.421 31.09 188.206 31.1073 188.048 31.0031L187.984 30.951C187.913 30.8807 187.85 30.8058 187.792 30.7262C187.245 30.4354 186.289 30.5179 184.912 31.0348C184.736 31.0998 184.428 31.1915 184.011 31.2813C183.32 31.4298 182.569 31.5163 181.78 31.5106C179.639 31.495 177.631 30.8153 175.942 29.2663C174.245 30.8415 172.222 31.5323 170.063 31.548C169.274 31.5538 168.523 31.4672 167.832 31.3187C167.415 31.2289 167.107 31.1372 166.931 31.0722C165.552 30.5548 164.596 30.4726 164.048 30.7637C163.992 30.8443 163.929 30.9187 163.859 30.9885C163.7 31.1473 163.442 31.1473 163.283 30.9885L163.26 30.9607L163.233 30.9387C163.094 30.7997 163.077 30.5852 163.181 30.4273L163.233 30.3636C163.304 30.2933 163.379 30.2295 163.458 30.1722C163.75 29.6254 163.667 28.6712 163.149 27.296C163.084 27.1199 162.993 26.8127 162.903 26.3959C162.754 25.7065 162.667 24.9561 162.673 24.1683C162.688 22.053 163.355 20.0684 164.871 18.3931L165.1 18.6299C163.353 16.8857 162.593 14.7741 162.576 12.5132C162.571 11.7254 162.657 10.975 162.806 10.2856C162.896 9.86873 162.988 9.56154 163.053 9.38544C163.657 7.78071 163.669 6.74937 163.187 6.26807C163.028 6.10926 163.028 5.85177 163.187 5.69296C163.194 5.68601 163.201 5.67937 163.208 5.67303L163.227 5.65309C163.386 5.49427 163.643 5.49427 163.803 5.65309C164.284 6.13439 165.317 6.12263 166.924 5.51954C167.101 5.45455 167.408 5.3628 167.826 5.27301C168.516 5.1245 169.267 5.03796 170.056 5.04371C172.178 5.05917 174.168 5.72654 175.847 7.24548C177.539 5.69003 179.551 5.00712 181.697 4.99148C182.486 4.98573 183.237 5.07227 183.928 5.22078C184.345 5.31057 184.653 5.40232 184.829 5.46731C186.436 6.0704 187.469 6.08216 187.951 5.60086C188.11 5.44204 188.367 5.44204 188.527 5.60085C188.533 5.6078 188.54 5.61494 188.546 5.62225ZM187.454 6.70995C186.769 6.83363 185.894 6.70184 184.837 6.33527L184.545 6.22949L184.471 6.20439C184.438 6.19358 184.396 6.18049 184.346 6.16556C184.175 6.11457 183.977 6.06346 183.756 6.01586C183.121 5.87928 182.428 5.79949 181.703 5.80478C179.699 5.81938 177.841 6.46604 176.285 7.95188C176.27 8.0214 176.235 8.08544 176.181 8.13847C176.022 8.29728 175.765 8.29728 175.606 8.13847C174.022 6.55717 172.113 5.87205 170.05 5.85701C169.325 5.85173 168.632 5.93151 167.997 6.06809C167.776 6.11569 167.578 6.1668 167.407 6.2178C167.357 6.23272 167.315 6.24581 167.282 6.25662L167.208 6.28172C166.019 6.728 165.047 6.89711 164.297 6.76368C164.421 7.44836 164.289 8.32151 163.922 9.37692L163.816 9.66927L163.791 9.74276C163.78 9.77596 163.767 9.81774 163.752 9.86771C163.701 10.0385 163.65 10.2359 163.602 10.4568C163.465 11.0909 163.386 11.7827 163.391 12.5072C163.406 14.5182 164.06 16.3825 165.564 17.9411C165.641 17.9559 165.713 17.9929 165.772 18.0516C165.931 18.2104 165.931 18.4679 165.772 18.6267C164.189 20.208 163.502 22.1141 163.487 24.1742C163.482 24.8987 163.562 25.5905 163.699 26.2246C163.746 26.4455 163.798 26.643 163.849 26.8137C163.879 26.9137 163.901 26.9808 163.913 27.0121C164.339 28.1444 164.513 29.08 164.412 29.8134C165.144 29.711 166.081 29.8845 167.215 30.31C167.247 30.3216 167.314 30.3441 167.414 30.3739C167.585 30.4249 167.783 30.4761 168.004 30.5237C168.639 30.6602 169.332 30.74 170.057 30.7347C172.12 30.7197 174.029 30.0346 175.612 28.4533L175.645 28.4256C175.648 28.4223 175.651 28.4191 175.655 28.4158C175.814 28.257 176.072 28.257 176.231 28.4158C177.814 29.9971 179.723 30.6823 181.786 30.6973C182.511 30.7026 183.204 30.6228 183.839 30.4862C184.06 30.4386 184.258 30.3875 184.429 30.3365C184.529 30.3067 184.596 30.2841 184.628 30.2726C185.762 29.8471 186.698 29.6735 187.433 29.774C187.33 29.0426 187.504 28.1069 187.93 26.9747C187.942 26.9434 187.964 26.8762 187.994 26.7763C188.045 26.6055 188.096 26.4081 188.144 26.1871C188.281 25.5531 188.361 24.8613 188.355 24.1367C188.34 22.0767 187.654 20.1705 186.071 18.5892C185.93 18.449 185.914 18.2319 186.021 18.0737C186.037 18.0484 186.056 18.0245 186.078 18.0025C187.661 16.4212 188.347 14.5151 188.362 12.455C188.368 11.7305 188.288 11.0387 188.151 10.4046C188.103 10.1836 188.052 9.98623 188.001 9.81548C187.986 9.76551 187.973 9.72373 187.962 9.69053L187.937 9.61704C187.49 8.42959 187.321 7.45838 187.454 6.70995Z" fill="white"/>
<path d="M183.807 10.5297C183.966 10.6885 183.966 10.946 183.807 11.1048C183.663 11.2487 183.521 11.3553 183.349 11.4359C183.224 11.7142 183.179 12.1824 183.138 13.149C183.094 14.1984 183.015 14.7467 182.753 15.2697C182.357 16.0633 181.454 17.0082 180.04 18.1271C181.687 19.4204 182.735 20.4966 183.189 21.3823C183.475 21.9384 183.57 22.5222 183.637 23.6376C183.723 25.0509 183.799 25.4741 184.086 25.7613C184.226 25.9003 184.243 26.1148 184.139 26.2726L184.086 26.3364L184.023 26.3885C183.865 26.4927 183.65 26.4753 183.511 26.3364C183.223 26.0492 182.799 25.973 181.384 25.8877C180.267 25.8204 179.682 25.7256 179.126 25.4406C178.236 24.9856 177.156 23.9356 175.858 22.2836C174.702 23.7525 173.731 24.6859 172.918 25.0908C172.395 25.3518 171.846 25.431 170.795 25.4752C169.483 25.5303 169.088 25.5943 168.835 25.847C168.676 26.0058 168.418 26.0058 168.259 25.847C168.244 25.8321 168.231 25.8164 168.219 25.7999L168.172 25.7599C168.013 25.6011 168.013 25.3436 168.172 25.1848C168.425 24.9321 168.489 24.5374 168.544 23.2277C168.588 22.1783 168.668 21.63 168.929 21.107C169.331 20.302 170.254 19.3412 171.703 18.2011C170.231 17.0148 169.284 16.0175 168.858 15.1874C168.573 14.6314 168.478 14.0475 168.41 12.9321C168.325 11.5188 168.249 11.0957 167.961 10.8084C167.822 10.6695 167.805 10.455 167.909 10.2971L167.961 10.2334C168.12 10.0746 168.378 10.0746 168.537 10.2334C168.825 10.5206 169.248 10.5967 170.664 10.682C171.781 10.7494 172.365 10.8442 172.922 11.1292C173.796 11.5764 174.855 12.5985 176.123 14.2019C177.316 12.6708 178.315 11.7008 179.148 11.2858C179.672 11.0249 180.221 10.9457 181.271 10.9015C182.059 10.8684 182.516 10.8321 182.81 10.7537C182.848 10.7071 182.889 10.6621 182.935 10.6168C183.025 10.5266 183.147 10.4876 183.265 10.4999C183.424 10.3715 183.659 10.3814 183.807 10.5297ZM182.44 11.6414C182.142 11.6742 181.774 11.6944 181.306 11.7141C180.371 11.7534 179.896 11.8219 179.511 12.0136C178.767 12.3844 177.768 13.3791 176.545 14.9897C176.526 15.0805 176.476 15.1633 176.397 15.2232C176.218 15.3594 175.963 15.3252 175.826 15.1466C174.47 13.3717 173.367 12.271 172.551 11.8529C172.129 11.6372 171.618 11.5544 170.614 11.4939C169.929 11.4526 169.444 11.4138 169.077 11.3485C169.143 11.7147 169.182 12.1989 169.223 12.8831C169.284 13.8855 169.367 14.3955 169.583 14.8165C169.966 15.5625 170.921 16.547 172.441 17.7462C172.563 17.7473 172.681 17.8028 172.76 17.9064C172.792 17.9496 172.815 17.9973 172.828 18.0465L172.881 18.0876C173.06 18.2238 173.094 18.479 172.958 18.6575C172.821 18.8361 172.566 18.8703 172.387 18.7341L172.365 18.717C170.912 19.8432 170.008 20.7696 169.658 21.4701C169.466 21.8544 169.397 22.3283 169.358 23.2619C169.329 23.9572 169.298 24.433 169.233 24.7878C169.588 24.7222 170.064 24.6919 170.761 24.6626C171.696 24.6233 172.17 24.5548 172.555 24.3631C173.306 23.989 174.316 22.9803 175.553 21.3449C175.689 21.1657 175.944 21.1302 176.123 21.2655C176.199 21.3224 176.249 21.4003 176.271 21.4849L176.221 21.4231C177.578 23.198 178.68 24.2987 179.497 24.7168C179.919 24.9326 180.429 25.0154 181.433 25.0759C182.118 25.1172 182.603 25.1559 182.97 25.2224C182.904 24.855 182.866 24.3709 182.824 23.6866C182.764 22.6842 182.681 22.1743 182.465 21.7533C182.046 20.9376 180.944 19.8369 179.166 18.4822L179.345 18.6201C179.192 18.6576 179.024 18.6039 178.923 18.4702C178.787 18.291 178.823 18.036 179.002 17.9006C180.64 16.6651 181.65 15.6564 182.024 14.9066C182.216 14.5223 182.285 14.0484 182.324 13.1148C182.352 12.4532 182.381 11.9904 182.44 11.6414Z" fill="white" fill-opacity="0.7"/>
<path d="M175.775 7.18652C175.998 7.18652 176.179 7.37027 176.179 7.59692C176.179 7.80269 176.154 7.98008 176.09 8.16102C176.199 8.44843 176.496 8.815 177.144 9.53246C177.849 10.3128 178.179 10.7607 178.362 11.3201C178.643 12.1726 178.672 13.4975 178.464 15.3156C180.527 15.0763 182.021 15.1002 182.967 15.3993C183.568 15.5892 184.053 15.9317 184.898 16.666C185.969 17.5963 186.326 17.8394 186.737 17.8394C186.964 17.8394 187.148 18.0198 187.148 18.2423V18.2923C187.148 18.5148 186.964 18.6952 186.737 18.6952C186.326 18.6952 185.969 18.9383 184.898 19.8686C184.053 20.6029 183.568 20.9454 182.967 21.1353C182.018 21.4352 180.52 21.4585 178.45 21.2176C178.673 23.0998 178.649 24.4654 178.362 25.337C178.179 25.8964 177.849 26.3442 177.144 27.1246C176.264 28.0986 176.032 28.4259 176.032 28.7865C176.032 29.0132 175.852 29.1969 175.629 29.1969C175.608 29.1969 175.587 29.1953 175.568 29.1923L175.506 29.1969C175.284 29.1969 175.103 29.0132 175.103 28.7865C175.103 28.4259 174.871 28.0986 173.991 27.1246C173.286 26.3442 172.957 25.8964 172.773 25.337C172.489 24.4721 172.462 23.1208 172.681 21.2617C170.814 21.4543 169.447 21.4157 168.559 21.1353C167.958 20.9454 167.473 20.6029 166.628 19.8686C165.557 18.9383 165.2 18.6952 164.79 18.6952C164.563 18.6952 164.379 18.5148 164.379 18.2923L164.38 18.2674C164.379 18.2591 164.379 18.2507 164.379 18.2423C164.379 18.0198 164.563 17.8394 164.79 17.8394C165.2 17.8394 165.557 17.5963 166.628 16.666C167.473 15.9317 167.958 15.5892 168.559 15.3993C169.492 15.1046 170.955 15.077 172.971 15.3048C172.73 13.3513 172.748 11.9396 173.042 11.0465C173.226 10.4871 173.555 10.0392 174.26 9.25886C174.788 8.6743 175.083 8.32268 175.234 8.05699C175.228 7.99718 175.225 7.93526 175.225 7.87052C175.225 7.74156 175.284 7.6265 175.375 7.55126C175.396 7.3464 175.568 7.18652 175.775 7.18652ZM175.597 8.95379C175.413 9.18905 175.168 9.46639 174.854 9.81432C174.227 10.5086 173.942 10.8957 173.807 11.3067C173.559 12.0615 173.544 13.3812 173.777 15.2419L173.812 15.5077L173.808 15.4632C173.92 15.5482 173.985 15.6883 173.965 15.8363C173.934 16.0569 173.728 16.2116 173.503 16.182C171.266 15.8876 169.693 15.8876 168.811 16.1662C168.356 16.31 167.933 16.6092 167.173 17.269C166.634 17.7375 166.251 18.0563 165.935 18.268C166.251 18.4783 166.634 18.7971 167.173 19.2656C167.933 19.9254 168.356 20.2246 168.811 20.3684C169.609 20.6205 170.974 20.6445 172.883 20.4285C172.969 20.3474 173.087 20.3057 173.211 20.3233C173.262 20.3305 173.309 20.347 173.351 20.3709L173.503 20.3526C173.728 20.323 173.934 20.4777 173.965 20.6983C173.995 20.9188 173.837 21.1216 173.612 21.1512L173.504 21.1652C173.276 23.0132 173.291 24.3251 173.538 25.0767C173.673 25.4878 173.958 25.8748 174.585 26.5692C175.052 27.0863 175.365 27.4475 175.568 27.7469C175.77 27.4475 176.083 27.0863 176.55 26.5692C177.178 25.8748 177.462 25.4878 177.597 25.0767C177.855 24.293 177.861 22.9001 177.599 20.9248C177.565 20.8558 177.551 20.7782 177.562 20.6983C177.571 20.6309 177.597 20.5697 177.634 20.518C177.694 20.4159 177.798 20.3411 177.924 20.3233C178.014 20.3105 178.101 20.3291 178.175 20.3708L178.024 20.3526C180.26 20.647 181.834 20.647 182.715 20.3684C183.17 20.2246 183.594 19.9254 184.353 19.2656C184.893 18.7971 185.275 18.4783 185.591 18.2666C185.275 18.0563 184.893 17.7375 184.353 17.269C183.594 16.6092 183.17 16.31 182.715 16.1662C181.873 15.9002 180.401 15.8882 178.322 16.144C178.241 16.2776 178.087 16.3568 177.924 16.3338C177.715 16.3041 177.566 16.1164 177.577 15.9059C177.571 15.8835 177.565 15.8603 177.562 15.8363C177.549 15.742 177.57 15.6509 177.617 15.5753L177.58 15.8707C177.861 13.822 177.861 12.3823 177.597 11.5803C177.462 11.1693 177.178 10.7822 176.55 10.0879C176.105 9.59565 175.801 9.2447 175.597 8.95379Z" fill="white"/>
<path fill-rule="evenodd" clip-rule="evenodd" d="M12.5764 29.2922L8.025 21.5006H4.66566V29.2922H0.222656V6.85547H9.21703C11.276 6.85547 13.046 7.57691 14.527 9.01978C15.9718 10.4627 16.6943 12.2302 16.6943 14.2863C16.6943 15.657 16.2969 16.9556 15.5023 18.146C14.7076 19.3363 13.66 20.2381 12.3596 20.8153L17.3445 29.2561H12.5764V29.2922ZM4.66566 11.0037V17.641H9.21703C10.0478 17.641 10.7703 17.3163 11.3844 16.667C11.9984 16.0177 12.2874 15.2241 12.2874 14.3223C12.2874 13.4205 11.9984 12.627 11.3844 11.9777C10.7703 11.3284 10.084 11.0037 9.21703 11.0037H4.66566ZM22.4344 22.9769C22.9762 24.9969 24.4934 25.9709 26.9497 25.9709C28.539 25.9709 29.7311 25.4298 30.5257 24.3837L33.849 26.2955C32.2596 28.5681 29.9478 29.7224 26.8413 29.7224C24.2044 29.7224 22.0732 28.9288 20.4477 27.3055C18.8583 25.7184 18.0275 23.6984 18.0275 21.2455C18.0275 18.8287 18.8222 16.8086 20.4116 15.2215C22.001 13.5982 24.0238 12.8047 26.5162 12.8047C28.8641 12.8047 30.8147 13.6343 32.3318 15.2575C33.849 16.8808 34.6437 18.9008 34.6437 21.2815C34.6437 21.8226 34.6075 22.3637 34.4992 22.9769H22.4344ZM22.3983 19.7665H30.5619C30.309 18.6844 29.8394 17.8547 29.117 17.3136C28.3945 16.7726 27.5276 16.5201 26.5884 16.5201C25.4687 16.5201 24.5656 16.8086 23.8432 17.3858C23.0846 17.9269 22.615 18.7565 22.3983 19.7665ZM50.8655 14.5719C49.7458 13.3815 48.3009 12.8043 46.5309 12.8043C44.3274 12.8043 42.7381 13.5618 41.7267 15.0769V13.2733H37.5726V29.2892H41.7267V20.6319C41.7267 19.2973 42.0518 18.2873 42.702 17.638C43.3522 16.9526 44.183 16.628 45.2666 16.628C46.2419 16.628 47.0005 16.9165 47.5784 17.4937C48.1564 18.0708 48.4454 18.8644 48.4454 19.9466V29.2892H52.5994V19.4416C52.5994 17.3855 52.0214 15.7622 50.8655 14.5719ZM59.6098 22.9766C60.1516 24.9966 61.6687 25.9706 64.125 25.9706C65.7144 25.9706 66.9064 25.4295 67.7011 24.3834L71.0243 26.2952C69.435 28.5677 67.1232 29.722 64.0167 29.722C61.3798 29.722 59.2486 28.9285 57.6231 27.3052C56.0337 25.7181 55.2029 23.698 55.2029 21.2452C55.2029 18.8283 55.9976 16.8083 57.587 15.2212C59.1763 13.5979 61.1992 12.8043 63.6916 12.8043C66.0395 12.8043 67.9901 13.634 69.5072 15.2572C71.0243 16.8805 71.819 18.9005 71.819 21.2812C71.819 21.8223 71.7829 22.3634 71.6745 22.9766H59.6098ZM59.5375 19.7662H67.7011C67.4483 18.6841 66.9787 17.8544 66.2562 17.3133C65.5338 16.7722 64.6669 16.5197 63.7277 16.5197C62.6079 16.5197 61.7049 16.8083 60.9824 17.3855C60.26 17.9265 59.7904 18.7562 59.5375 19.7662ZM96.1267 13.2702H92.1533L89.4441 23.1539L86.5182 13.2702H82.6171L79.6912 23.1178L76.9459 13.2702H72.5752L77.3071 29.2861H81.3528L84.3871 19.5828L87.4213 29.2861H91.4308L96.1267 13.2702Z" fill="white"/>
<path fill-rule="evenodd" clip-rule="evenodd" d="M121.499 6.49414H121.86V6.85486V29.3276V29.6883H121.499H117.092H116.731V29.3276V16.0532L111.06 25.3597L110.952 25.5401H110.771H110.265H110.048L109.94 25.3597L104.269 16.0893V29.2916V29.6523H103.908H99.4647H99.1035V29.2916V6.85486V6.49414H99.4647H104.016H104.233L104.341 6.6745L110.482 16.7385L116.587 6.6745L116.695 6.49414H116.912H121.499ZM126.742 14.9721C128.403 13.3128 130.534 12.4471 133.099 12.4471C135.555 12.4471 137.614 13.3128 139.204 15.0442C140.793 16.7396 141.588 18.8318 141.588 21.3207C141.588 21.8618 141.515 22.475 141.407 23.0883L141.371 23.3768H141.082H129.487C130.065 24.8918 131.401 25.6494 133.496 25.6494C134.977 25.6494 136.061 25.1804 136.82 24.2065L137 23.954L137.289 24.0983L140.612 26.0101L140.937 26.1904L140.721 26.5151C139.059 28.8958 136.603 30.0862 133.424 30.0862C130.679 30.0862 128.439 29.2205 126.778 27.5612C125.08 25.9019 124.249 23.7736 124.249 21.2486C124.249 18.7596 125.08 16.6314 126.742 14.9721ZM130.57 17.6775C130.029 18.1103 129.631 18.6875 129.378 19.4089H136.603C136.386 18.6514 135.989 18.0382 135.411 17.6414C134.724 17.1725 133.966 16.92 133.099 16.92C132.088 16.92 131.221 17.1725 130.57 17.6775Z" fill="#C3DEF2"/>
<g opacity="0.65">
<path d="M146.323 6.85156V7.42871H145.492V9.98981H144.878V7.42871H144.047V6.85156H146.323Z" fill="white"/>
<path d="M149.754 6.85156V9.98981H149.14V7.96979L148.237 9.41266H148.165L147.298 7.96979V9.98981H146.684V6.85156H147.334L148.237 8.33051L149.14 6.85156H149.754Z" fill="white"/>
</g>
</svg>
