<svg width="25" height="17" viewBox="0 0 25 17" fill="none" xmlns="http://www.w3.org/2000/svg">
<path d="M22.3906 0.0625H2.60938C1.44866 0.0625 0.5 1.00698 0.5 2.17188V14.8281C0.5 15.9934 1.44927 16.9375 2.60938 16.9375H22.3906C23.5513 16.9375 24.5 15.993 24.5 14.8281V2.17188C24.5 1.0067 23.5509 0.0625 22.3906 0.0625ZM22.0667 1.46875C21.3847 2.15298 13.374 10.1898 13.0449 10.52C12.77 10.7957 12.2301 10.7959 11.9551 10.52L2.93328 1.46875H22.0667ZM1.90625 14.5696V2.43039L7.95617 8.5L1.90625 14.5696ZM2.93328 15.5312L8.94894 9.496L10.9592 11.5128C11.783 12.3393 13.2174 12.3389 14.0409 11.5128L16.0511 9.49605L22.0667 15.5312H2.93328ZM23.0938 14.5696L17.0438 8.5L23.0938 2.43039V14.5696Z" fill="white"/>
</svg>
