<svg width="24" height="24" viewBox="0 0 24 24" fill="none" xmlns="http://www.w3.org/2000/svg">
<g clip-path="url(#clip0_2845_26331)">
<path d="M6 4.80156C6 4.13884 6.53728 3.60156 7.2 3.60156H22.8C23.4627 3.60156 24 4.13884 24 4.80156C24 5.46428 23.4627 6.00156 22.8 6.00156H7.2C6.53728 6.00156 6 5.46423 6 4.80156ZM22.8 10.8016H1.2C0.537281 10.8016 0 11.3389 0 12.0016C0 12.6643 0.537281 13.2016 1.2 13.2016H22.8C23.4627 13.2016 24 12.6643 24 12.0016C24 11.3389 23.4627 10.8016 22.8 10.8016ZM22.8 18.0016H12C11.3373 18.0016 10.8 18.5388 10.8 19.2016C10.8 19.8642 11.3373 20.4016 12 20.4016H22.8C23.4627 20.4016 24 19.8642 24 19.2016C24 18.5388 23.4627 18.0016 22.8 18.0016Z" fill="white"/>
</g>
<defs>
<clipPath id="clip0_2845_26331">
<rect width="24" height="24" fill="white"/>
</clipPath>
</defs>
</svg>
