<svg width="54" height="54" viewBox="0 0 54 54" fill="none" xmlns="http://www.w3.org/2000/svg">
<circle cx="27" cy="27" r="25.5" stroke="#C3DEF2" stroke-width="3"/>
<g clip-path="url(#clip0_2646_23064)">
<path d="M27.2357 27.5943C24.0036 27.5943 21.373 24.9638 21.373 21.7317C21.373 18.4997 24.0036 15.8691 27.2357 15.8691C30.4677 15.8691 33.0983 18.4997 33.0983 21.7317C33.0983 24.9638 30.4677 27.5943 27.2357 27.5943ZM27.2357 17.3985C24.8498 17.3985 22.9024 19.3459 22.9024 21.7317C22.9024 24.1176 24.8498 26.065 27.2357 26.065C29.6215 26.065 31.5689 24.1176 31.5689 21.7317C31.5689 19.3459 29.6215 17.3985 27.2357 17.3985Z" fill="white"/>
<path d="M35.994 37.7895C35.5759 37.7895 35.2293 37.4428 35.2293 37.0248C35.2293 33.5073 31.6404 30.6524 27.2358 30.6524C22.8312 30.6524 19.2423 33.5073 19.2423 37.0248C19.2423 37.4428 18.8956 37.7895 18.4776 37.7895C18.0595 37.7895 17.7129 37.4428 17.7129 37.0248C17.7129 32.6712 21.9849 29.123 27.2358 29.123C32.4867 29.123 36.7586 32.6712 36.7586 37.0248C36.7586 37.4428 36.412 37.7895 35.994 37.7895Z" fill="white"/>
</g>
<defs>
<clipPath id="clip0_2646_23064">
<rect width="24.4688" height="24.4688" fill="white" transform="translate(15 15)"/>
</clipPath>
</defs>
</svg>
