<svg width="54" height="54" viewBox="0 0 54 54" fill="none" xmlns="http://www.w3.org/2000/svg">
<circle cx="27" cy="27" r="25.5" stroke="#C3DEF2" stroke-width="3"/>
<g clip-path="url(#clip0_2646_23014)">
<g clip-path="url(#clip1_2646_23014)">
<path d="M39.1961 31.0347C39.1587 31.0007 38.4096 30.3252 37.2659 29.6734C39.2797 26.5596 39.4616 23.0005 39.4693 22.8222C39.4781 22.6214 39.4022 22.4261 39.26 22.284C39.1179 22.1418 38.9219 22.0664 38.7218 22.0747C38.6033 22.0799 36.993 22.1619 35.0125 22.8065C34.7945 20.4418 34.0676 18.6891 34.0327 18.6061C33.9548 18.4209 33.8026 18.2768 33.6134 18.2091C33.4242 18.1414 33.2151 18.1562 33.0373 18.25C32.9635 18.2889 31.4397 19.1025 29.8517 20.6418C28.9112 18.8049 27.8432 17.6222 27.7636 17.5353C27.6278 17.3871 27.436 17.3027 27.235 17.3027C27.034 17.3027 26.8422 17.3871 26.7064 17.5353C26.6269 17.6222 25.5588 18.8049 24.6183 20.6418C23.0303 19.1025 21.5065 18.2889 21.4327 18.25C21.2549 18.1562 21.046 18.1414 20.8567 18.2091C20.6674 18.2768 20.5152 18.4209 20.4373 18.6061C20.4024 18.6891 19.6756 20.4418 19.4575 22.8065C17.477 22.1619 15.8666 22.0799 15.7482 22.0747C15.5478 22.0661 15.3521 22.1418 15.21 22.284C15.0678 22.4261 14.9919 22.6214 15.0007 22.8222C15.0085 23.0005 15.1903 26.5596 17.2042 29.6734C16.0604 30.3252 15.3113 31.0007 15.2739 31.0347C15.0279 31.2584 14.968 31.6218 15.1292 31.9126C15.2203 32.0771 17.4029 35.9493 20.9225 36.5295C21.2261 36.5795 21.5367 36.6045 21.8535 36.6045C22.6477 36.6045 23.481 36.4475 24.3417 36.1348C25.1006 35.859 25.865 35.4694 26.6176 34.9758C26.9544 35.0137 27.1644 35.0242 27.2044 35.0259C27.2136 35.0263 27.2226 35.0265 27.2317 35.0266C27.2323 35.0266 27.233 35.0267 27.2337 35.0267C27.2341 35.0267 27.2345 35.0266 27.2349 35.0266H27.235C27.2354 35.0266 27.2358 35.0267 27.2362 35.0267C27.2369 35.0267 27.2375 35.0266 27.2383 35.0266C27.2473 35.0265 27.2564 35.0264 27.2656 35.0259C27.3056 35.0242 27.5155 35.0137 27.8523 34.9758C28.6049 35.4694 29.3694 35.8591 30.1283 36.1348C30.989 36.4475 31.8222 36.6045 32.6165 36.6045C32.9332 36.6045 33.2439 36.5795 33.5475 36.5295C37.067 35.9493 39.2495 32.0771 39.3407 31.9126C39.5019 31.6218 39.4421 31.2584 39.1961 31.0347ZM34.8493 30.4058C33.0112 32.2439 30.4988 33.0289 28.8636 33.3595C29.8559 31.8884 31.1734 29.4177 31.2849 26.553C33.4624 24.4793 36.4964 23.8076 37.9473 23.5981C37.7351 25.0804 37.042 28.2131 34.8493 30.4058ZM32.9878 19.9576C33.2202 20.7101 33.5277 21.9317 33.6156 23.34C32.8036 23.6995 31.9746 24.1608 31.1937 24.7519C31.0596 23.7828 30.8 22.8714 30.4807 22.0438C31.4041 21.0784 32.3589 20.3733 32.9878 19.9576ZM27.235 19.1615C28.1332 20.3631 29.8592 23.0747 29.8592 26.1646C29.8592 29.2559 28.1317 31.9684 27.2342 33.1691C26.336 31.971 24.6109 29.2657 24.6109 26.1646C24.6109 23.0747 26.3371 20.3629 27.235 19.1615ZM21.4822 19.9576C22.1113 20.3733 23.066 21.0784 23.9893 22.0438C23.6699 22.8715 23.4104 23.7829 23.2763 24.7519C22.4954 24.1608 21.6664 23.6995 20.8544 23.34C20.9423 21.9316 21.2499 20.7099 21.4822 19.9576ZM23.1851 26.553C23.2966 29.4176 24.6142 31.8883 25.6065 33.3595C23.971 33.0288 21.4588 32.2438 19.6208 30.4058C17.4359 28.2209 16.739 25.0828 16.5244 23.5983C17.9763 23.8082 21.0085 24.4801 23.1851 26.553ZM21.1558 35.1147C18.9936 34.7583 17.3603 32.6911 16.7016 31.7204C17.0236 31.4764 17.4969 31.1466 18.0668 30.834C18.2374 31.0338 18.4169 31.2296 18.607 31.4196C20.3856 33.1983 22.6479 34.1025 24.4063 34.5608C23.447 34.9895 22.2931 35.3022 21.1558 35.1147ZM33.3143 35.1147C32.177 35.3021 31.0231 34.9895 30.0637 34.5607C31.8222 34.1025 34.0845 33.1982 35.8631 31.4196C36.0531 31.2296 36.2327 31.0338 36.4033 30.834C36.9732 31.1466 37.4465 31.4765 37.7684 31.7204C37.1093 32.6916 35.4762 34.7584 33.3143 35.1147Z" fill="white"/>
</g>
</g>
<defs>
<clipPath id="clip0_2646_23014">
<rect width="24.4688" height="24.4688" fill="white" transform="translate(15 15)"/>
</clipPath>
<clipPath id="clip1_2646_23014">
<rect width="24.47" height="24.47" fill="white" transform="translate(15 14.7188)"/>
</clipPath>
</defs>
</svg>
