<svg width="259" height="48" viewBox="0 0 259 48" fill="none" xmlns="http://www.w3.org/2000/svg">
<g opacity="0.6">
<path d="M234.801 0.00138699L234.837 0C235.139 0 235.384 0.244273 235.384 0.5456C235.384 1.45882 236.375 2.42609 238.472 3.37633C238.701 3.48175 239.08 3.68614 239.562 3.9964C240.358 4.50954 241.153 5.13934 241.896 5.89218C243.894 7.91677 245.148 10.4356 245.298 13.4676C248.38 13.5938 250.938 14.852 252.989 16.8706C253.743 17.6125 254.373 18.4065 254.887 19.2015C255.198 19.6821 255.402 20.0606 255.508 20.2893C256.46 22.3838 257.428 23.3734 258.343 23.3734C258.644 23.3734 258.889 23.6177 258.889 23.919C258.889 23.9322 258.889 23.9453 258.888 23.9582L258.889 23.9947C258.889 24.296 258.644 24.5403 258.343 24.5403C257.428 24.5403 256.46 25.5298 255.508 27.6244C255.402 27.8531 255.198 28.2316 254.887 28.7122C254.373 29.5071 253.743 30.3011 252.989 31.0431C250.939 33.0604 248.383 34.3184 245.301 34.445C245.172 37.5154 243.913 40.0635 241.896 42.1078C241.153 42.8607 240.358 43.4905 239.562 44.0036C239.08 44.3139 238.701 44.5183 238.472 44.6237C236.675 45.438 235.69 46.2649 235.445 47.0595C235.468 47.1894 235.478 47.321 235.478 47.4544C235.478 47.7557 235.234 48 234.932 48L234.884 47.9956L234.837 48C234.573 48 234.353 47.813 234.302 47.5644L234.291 47.4544C234.291 47.322 234.302 47.1913 234.322 47.0623C234.082 46.2668 233.097 45.439 231.297 44.6237C231.068 44.5183 230.689 44.3139 230.208 44.0036C229.412 43.4905 228.617 42.8607 227.874 42.1078C225.857 40.0645 224.599 37.5177 224.468 34.4478C221.361 34.3345 218.786 33.0734 216.723 31.0431C215.969 30.3011 215.338 29.5071 214.824 28.7122C214.514 28.2316 214.309 27.8531 214.203 27.6244C213.388 25.8294 212.56 24.8459 211.764 24.6013C211.634 24.6241 211.502 24.6348 211.369 24.6348C211.067 24.6348 210.822 24.3905 210.822 24.0892L210.827 24.0408L210.822 23.9947C210.822 23.731 211.01 23.511 211.259 23.4602L211.369 23.4491C211.501 23.4491 211.632 23.4595 211.761 23.4804C212.558 23.2402 213.387 22.2565 214.203 20.4594C214.309 20.2307 214.514 19.8522 214.824 19.3716C215.338 18.5767 215.969 17.7827 216.723 17.0408C218.747 15.0488 221.264 13.7973 224.293 13.6442L224.292 13.6751L224.294 13.6378C224.405 10.5297 225.668 7.95451 227.704 5.89218C228.446 5.13934 229.242 4.50954 230.038 3.9964C230.519 3.68614 230.898 3.48175 231.127 3.37633C233.224 2.42609 234.215 1.45882 234.215 0.5456C234.215 0.244273 234.46 0 234.762 0C234.775 0 234.788 0.000467555 234.801 0.00138699ZM234.798 2.06752C234.217 2.9043 233.134 3.66541 231.581 4.36869C231.541 4.38743 231.455 4.4298 231.332 4.4963C231.121 4.60991 230.885 4.74871 230.63 4.91318C229.898 5.38513 229.165 5.96575 228.482 6.65812C226.585 8.57999 225.435 10.9685 225.381 13.8724C225.44 13.959 225.474 14.0626 225.474 14.1739C225.474 14.4752 225.229 14.7195 224.927 14.7195C221.923 14.7195 219.461 15.8778 217.49 17.818C216.796 18.5003 216.215 19.2323 215.742 19.9634C215.578 20.2182 215.439 20.454 215.325 20.6643C215.258 20.7875 215.216 20.8726 215.197 20.9132C214.526 22.3911 213.802 23.4434 213.009 24.0438C213.802 24.6405 214.526 25.6927 215.197 27.1706C215.216 27.2113 215.258 27.2964 215.325 27.4195C215.439 27.6299 215.578 27.8656 215.742 28.1204C216.215 28.8515 216.796 29.5835 217.49 30.2659C219.461 32.206 221.923 33.3644 224.927 33.3644L224.993 33.3691C224.996 33.369 225 33.369 225.003 33.369C225.305 33.369 225.549 33.6132 225.549 33.9146C225.549 36.9149 226.709 39.3732 228.652 41.3419C229.335 42.0342 230.069 42.6149 230.801 43.0868C231.056 43.2513 231.292 43.3901 231.503 43.5037C231.626 43.5702 231.711 43.6126 231.752 43.6313C233.232 44.3018 234.285 45.0248 234.887 45.8158C235.484 45.0248 236.538 44.3018 238.018 43.6313C238.059 43.6126 238.144 43.5702 238.267 43.5037C238.478 43.3901 238.714 43.2513 238.969 43.0868C239.701 42.6149 240.434 42.0342 241.117 41.3419C243.06 39.3732 244.22 36.9149 244.22 33.9146C244.22 33.6504 244.408 33.4301 244.658 33.3798C244.698 33.3695 244.74 33.3644 244.784 33.3644C247.788 33.3644 250.25 32.206 252.222 30.2659C252.915 29.5835 253.496 28.8515 253.969 28.1204C254.134 27.8656 254.273 27.6299 254.386 27.4195C254.453 27.2964 254.495 27.2113 254.514 27.1706C255.218 25.6204 255.981 24.5385 256.819 23.9551C255.981 23.3752 255.218 22.2933 254.514 20.7431C254.495 20.7024 254.453 20.6173 254.386 20.4942C254.273 20.2838 254.134 20.048 253.969 19.7933C253.496 19.0622 252.915 18.3302 252.222 17.6478C250.307 15.7638 247.93 14.617 245.043 14.5522C244.962 14.6037 244.868 14.631 244.767 14.631C244.465 14.631 244.22 14.3868 244.22 14.0854C244.22 11.0851 243.06 8.62677 241.117 6.65812C240.434 5.96575 239.701 5.38513 238.969 4.91318C238.714 4.74871 238.478 4.60991 238.267 4.4963C238.144 4.4298 238.059 4.38743 238.018 4.36869C236.465 3.66541 235.382 2.9043 234.798 2.06752Z" fill="#3A0F3F"/>
</g>
<path opacity="0.55" d="M251.711 7.49666L251.738 7.5213C251.95 7.73305 251.95 8.07636 251.738 8.28811C251.095 8.92984 251.111 10.305 251.916 12.4446C252.003 12.6794 252.125 13.089 252.245 13.6448C252.443 14.564 252.559 15.5645 252.551 16.6149C252.53 19.4709 251.62 22.1483 249.544 24.3996C251.613 26.6486 252.521 29.3226 252.542 32.1747C252.55 33.2251 252.434 34.2257 252.236 35.1449C252.116 35.7007 251.994 36.1102 251.907 36.345C251.216 38.1808 251.106 39.4538 251.495 40.1837C251.603 40.2576 251.702 40.3421 251.795 40.4351C252.007 40.6469 252.007 40.9902 251.795 41.202L251.758 41.2329L251.729 41.2683C251.543 41.4536 251.257 41.4768 251.046 41.3378L250.961 41.2683C250.867 41.1746 250.782 41.0747 250.705 40.9686C249.975 40.5808 248.701 40.6909 246.865 41.38C246.63 41.4667 246.22 41.589 245.663 41.7087C244.743 41.9067 243.741 42.0221 242.689 42.0145C239.834 41.9936 237.157 41.0874 234.906 39.0221C232.642 41.1223 229.945 42.0434 227.066 42.0644C226.015 42.072 225.013 41.9566 224.092 41.7586C223.536 41.6389 223.125 41.5166 222.89 41.4299C221.052 40.74 219.777 40.6305 219.046 41.0186C218.972 41.1261 218.888 41.2252 218.795 41.3183C218.583 41.53 218.239 41.53 218.027 41.3183L217.996 41.2813L217.96 41.2519C217.775 41.0666 217.751 40.7806 217.891 40.5701L217.96 40.4851C218.054 40.3914 218.154 40.3064 218.26 40.23C218.649 39.5008 218.538 38.2286 217.848 36.395C217.762 36.1602 217.639 35.7506 217.519 35.1948C217.321 34.2756 217.205 33.2751 217.213 32.2247C217.234 29.4043 218.122 26.7581 220.144 24.5244L220.449 24.8401C218.12 22.5146 217.106 19.6991 217.084 16.6846C217.077 15.6341 217.192 14.6336 217.391 13.7144C217.51 13.1586 217.633 12.749 217.72 12.5142C218.525 10.3746 218.541 8.99949 217.898 8.35775C217.686 8.146 217.686 7.80269 217.898 7.59094C217.907 7.58168 217.917 7.57282 217.927 7.56437L217.951 7.53777C218.163 7.32602 218.507 7.32603 218.719 7.53777C219.362 8.17951 220.739 8.16384 222.881 7.35971C223.116 7.27306 223.527 7.15073 224.083 7.03101C225.004 6.833 226.006 6.71761 227.057 6.72527C229.886 6.74589 232.54 7.63572 234.779 9.66097C237.034 7.58703 239.716 6.67649 242.578 6.65563C243.63 6.64797 244.632 6.76336 245.552 6.96136C246.109 7.08109 246.519 7.20342 246.754 7.29007C248.897 8.0942 250.274 8.10987 250.917 7.46813C251.129 7.25638 251.472 7.25638 251.684 7.46813C251.694 7.4774 251.703 7.48691 251.711 7.49666ZM250.255 8.94693C249.341 9.11183 248.175 8.93611 246.766 8.44735L246.375 8.30631L246.277 8.27284C246.233 8.25843 246.177 8.24098 246.11 8.22108C245.882 8.15308 245.619 8.08494 245.324 8.02148C244.477 7.83936 243.553 7.73298 242.586 7.74003C239.915 7.7595 237.437 8.62172 235.363 10.6028C235.342 10.6955 235.295 10.7809 235.224 10.8516C235.012 11.0634 234.669 11.0634 234.457 10.8516C232.345 8.74322 229.8 7.82972 227.05 7.80968C226.082 7.80263 225.158 7.90901 224.312 8.09112C224.017 8.15458 223.753 8.22272 223.525 8.29072C223.459 8.31062 223.403 8.32808 223.358 8.34248L223.26 8.37595C221.675 8.97099 220.378 9.19647 219.379 9.01856C219.544 9.93148 219.368 11.0957 218.879 12.5029L218.737 12.8927L218.704 12.9907C218.689 13.0349 218.672 13.0906 218.652 13.1573C218.584 13.3849 218.516 13.6482 218.452 13.9428C218.27 14.7882 218.163 15.7106 218.17 16.6766C218.19 19.3579 219.062 21.8436 221.067 23.9218C221.171 23.9415 221.267 23.9909 221.345 24.0691C221.557 24.2808 221.557 24.6241 221.345 24.8359C219.234 26.9443 218.319 29.4858 218.299 32.2326C218.292 33.1986 218.398 34.121 218.581 34.9664C218.644 35.261 218.713 35.5243 218.781 35.7519C218.821 35.8852 218.851 35.9748 218.866 36.0165C219.434 37.5262 219.666 38.7737 219.532 39.7515C220.508 39.6149 221.758 39.8463 223.269 40.4137C223.311 40.4291 223.401 40.4591 223.534 40.4989C223.762 40.5669 224.026 40.6351 224.321 40.6985C225.167 40.8806 226.091 40.987 227.059 40.98C229.809 40.9599 232.354 40.0464 234.466 37.938L234.509 37.9012C234.513 37.8968 234.518 37.8924 234.522 37.8881C234.734 37.6764 235.078 37.6764 235.29 37.8881C237.401 39.9965 239.946 40.91 242.697 40.93C243.664 40.9371 244.588 40.8307 245.434 40.6486C245.73 40.5851 245.993 40.517 246.221 40.449C246.355 40.4092 246.444 40.3792 246.486 40.3638C247.998 39.7964 249.247 39.565 250.226 39.699C250.089 38.7238 250.321 37.4763 250.889 35.9666C250.905 35.9248 250.935 35.8353 250.975 35.702C251.043 35.4743 251.111 35.2111 251.175 34.9165C251.357 34.0711 251.463 33.1487 251.456 32.1827C251.436 29.4359 250.522 26.8944 248.41 24.786C248.223 24.599 248.201 24.3096 248.344 24.0986C248.365 24.0649 248.39 24.033 248.419 24.0037C250.531 21.8953 251.445 19.3538 251.465 16.607C251.472 15.641 251.366 14.7185 251.184 13.8731C251.12 13.5785 251.052 13.3153 250.984 13.0876C250.964 13.021 250.946 12.9653 250.932 12.921L250.898 12.823C250.302 11.2398 250.077 9.94483 250.255 8.94693Z" fill="#3A0F3F"/>
<path d="M245.387 14.0392C245.599 14.251 245.599 14.5943 245.387 14.806C245.195 14.9979 245.006 15.1401 244.775 15.2476C244.61 15.6186 244.549 16.2429 244.495 17.5316C244.436 18.9308 244.33 19.6619 243.982 20.3593C243.453 21.4174 242.25 22.6773 240.364 24.1692C242.56 25.8935 243.957 27.3284 244.563 28.5094C244.944 29.2509 245.07 30.0293 245.16 31.5165C245.274 33.4009 245.376 33.9651 245.759 34.3481C245.945 34.5334 245.968 34.8194 245.829 35.0298L245.759 35.1149L245.674 35.1843C245.463 35.3233 245.177 35.3001 244.991 35.1148C244.608 34.7319 244.043 34.6304 242.156 34.5166C240.667 34.4269 239.887 34.3005 239.145 33.9205C237.959 33.3138 236.518 31.9138 234.788 29.7112C233.247 31.6697 231.952 32.9142 230.869 33.4541C230.17 33.802 229.438 33.9077 228.037 33.9666C226.288 34.0401 225.761 34.1255 225.424 34.4624C225.212 34.6741 224.868 34.6741 224.656 34.4624C224.636 34.4425 224.618 34.4215 224.602 34.3996L224.54 34.3462C224.328 34.1345 224.328 33.7911 224.54 33.5794C224.877 33.2425 224.962 32.7163 225.036 30.9699C225.095 29.5708 225.201 28.8396 225.549 28.1423C226.086 27.0689 227.316 25.788 229.249 24.2678C227.285 22.6861 226.023 21.3563 225.455 20.2496C225.074 19.5082 224.948 18.7297 224.858 17.2425C224.744 15.3581 224.642 14.7939 224.259 14.4109C224.073 14.2257 224.05 13.9396 224.189 13.7292L224.259 13.6442C224.471 13.4324 224.814 13.4324 225.026 13.6442C225.41 14.0271 225.975 14.1286 227.862 14.2424C229.351 14.3321 230.131 14.4585 230.873 14.8385C232.038 15.4349 233.45 16.7976 235.141 18.9356C236.731 16.8941 238.064 15.6007 239.174 15.0474C239.873 14.6996 240.605 14.5939 242.006 14.535C243.056 14.4908 243.665 14.4424 244.058 14.3379C244.107 14.2758 244.163 14.2158 244.223 14.1554C244.344 14.0351 244.507 13.9832 244.664 13.9995C244.876 13.8284 245.189 13.8415 245.387 14.0392ZM243.564 15.5215C243.167 15.5653 242.676 15.5922 242.052 15.6185C240.805 15.6709 240.172 15.7622 239.659 16.0178C238.667 16.5123 237.334 17.8385 235.704 19.986C235.679 20.1069 235.611 20.2174 235.506 20.2973C235.268 20.4789 234.927 20.4333 234.745 20.1952C232.937 17.8287 231.467 16.361 230.378 15.8036C229.816 15.5159 229.135 15.4055 227.797 15.3248C226.883 15.2698 226.236 15.2181 225.746 15.131C225.835 15.6193 225.886 16.2648 225.942 17.1771C226.022 18.5137 226.133 19.1936 226.421 19.755C226.932 20.7497 228.205 22.0624 230.232 23.6613C230.394 23.6627 230.552 23.7368 230.657 23.8749C230.7 23.9325 230.731 23.996 230.748 24.0617L230.819 24.1164C231.057 24.2981 231.103 24.6384 230.921 24.8764C230.739 25.1145 230.398 25.1601 230.16 24.9785L230.131 24.9556C228.194 26.4573 226.988 27.6925 226.521 28.6264C226.265 29.1388 226.174 29.7707 226.121 31.0156C226.082 31.9427 226.041 32.577 225.955 33.0501C226.428 32.9626 227.063 32.9222 227.991 32.8831C229.238 32.8307 229.871 32.7394 230.384 32.4838C231.385 31.985 232.732 30.6401 234.381 28.4595C234.562 28.2206 234.903 28.1732 235.142 28.3537C235.242 28.4295 235.309 28.5335 235.339 28.6462L235.272 28.5638C237.081 30.9303 238.551 32.398 239.64 32.9554C240.202 33.2431 240.883 33.3535 242.221 33.4342C243.135 33.4893 243.781 33.5409 244.27 33.6295C244.183 33.1397 244.131 32.4942 244.076 31.5819C243.995 30.2453 243.885 29.5654 243.597 29.004C243.039 27.9165 241.569 26.4488 239.199 24.6426L239.437 24.8265C239.233 24.8765 239.009 24.8049 238.874 24.6266C238.693 24.3877 238.741 24.0477 238.98 23.8672C241.164 22.2198 242.51 20.8748 243.01 19.8752C243.266 19.3627 243.357 18.7309 243.41 17.486C243.447 16.6039 243.485 15.9868 243.564 15.5215Z" fill="#3A0F3F" fill-opacity="0.42"/>
<path d="M234.68 9.58203C234.977 9.58203 235.218 9.82702 235.218 10.1292C235.218 10.4036 235.185 10.6401 235.099 10.8814C235.245 11.2646 235.64 11.7533 236.505 12.7099C237.445 13.7504 237.884 14.3476 238.129 15.0935C238.503 16.2301 238.542 17.9967 238.264 20.4208C241.016 20.1017 243.007 20.1336 244.269 20.5323C245.07 20.7855 245.717 21.2423 246.844 22.2213C248.272 23.4617 248.747 23.7859 249.295 23.7859C249.597 23.7859 249.843 24.0264 249.843 24.323V24.3898C249.843 24.6864 249.597 24.927 249.295 24.927C248.747 24.927 248.272 25.2511 246.844 26.4915C245.717 27.4705 245.07 27.9273 244.269 28.1805C243.004 28.5802 241.006 28.6113 238.245 28.2902C238.544 30.7998 238.511 32.6205 238.129 33.7826C237.884 34.5285 237.445 35.1256 236.505 36.1661C235.331 37.4648 235.022 37.9012 235.022 38.3821C235.022 38.6843 234.781 38.9293 234.484 38.9293C234.456 38.9293 234.429 38.9271 234.403 38.923L234.321 38.9293C234.024 38.9293 233.783 38.6843 233.783 38.3821C233.783 37.9012 233.474 37.4648 232.3 36.1661C231.36 35.1256 230.921 34.5285 230.676 33.7826C230.297 32.6295 230.262 30.8277 230.554 28.3489C228.065 28.6057 226.241 28.5543 225.058 28.1805C224.257 27.9273 223.61 27.4705 222.483 26.4915C221.055 25.2511 220.58 24.927 220.032 24.927C219.73 24.927 219.484 24.6864 219.484 24.3898L219.485 24.3566C219.485 24.3455 219.484 24.3343 219.484 24.323C219.484 24.0264 219.73 23.7859 220.032 23.7859C220.58 23.7859 221.055 23.4617 222.483 22.2213C223.61 21.2423 224.257 20.7855 225.058 20.5323C226.302 20.1394 228.253 20.1027 230.94 20.4064C230.619 17.8018 230.644 15.9195 231.035 14.7287C231.28 13.9828 231.719 13.3856 232.659 12.3451C233.363 11.5657 233.756 11.0969 233.958 10.7427C233.949 10.6629 233.946 10.5803 233.946 10.494C233.946 10.3221 234.024 10.1687 234.146 10.0683C234.174 9.79521 234.403 9.58203 234.68 9.58203ZM234.442 11.9384C234.196 12.2521 233.87 12.6219 233.451 13.0858C232.615 14.0115 232.235 14.5276 232.055 15.0756C231.725 16.082 231.705 17.8416 232.016 20.3225L232.062 20.677L232.056 20.6176C232.206 20.731 232.292 20.9177 232.265 21.1151C232.225 21.4092 231.949 21.6155 231.649 21.576C228.667 21.1835 226.57 21.1835 225.394 21.5549C224.788 21.7466 224.223 22.1456 223.21 23.0254C222.491 23.65 221.981 24.075 221.559 24.3573C221.981 24.6378 222.491 25.0628 223.21 25.6874C224.223 26.5672 224.788 26.9662 225.394 27.1579C226.458 27.494 228.277 27.5259 230.824 27.238C230.937 27.1299 231.096 27.0743 231.261 27.0977C231.328 27.1073 231.391 27.1293 231.448 27.1612L231.649 27.1368C231.949 27.0973 232.225 27.3036 232.265 27.5977C232.306 27.8917 232.095 28.1621 231.795 28.2016L231.652 28.2203C231.347 30.6842 231.367 32.4334 231.697 33.4356C231.877 33.9837 232.256 34.4998 233.093 35.4255C233.716 36.1151 234.132 36.5966 234.403 36.9959C234.673 36.5966 235.09 36.1151 235.713 35.4255C236.549 34.4998 236.929 33.9837 237.109 33.4356C237.452 32.3906 237.46 30.5334 237.111 27.8998C237.065 27.8078 237.047 27.7043 237.062 27.5977C237.074 27.5079 237.108 27.4263 237.158 27.3574C237.238 27.2213 237.377 27.1215 237.545 27.0977C237.665 27.0807 237.781 27.1054 237.88 27.161L237.678 27.1368C240.66 27.5293 242.757 27.5293 243.933 27.1579C244.539 26.9662 245.104 26.5672 246.117 25.6874C246.836 25.0628 247.346 24.6378 247.768 24.3555C247.346 24.075 246.836 23.65 246.117 23.0254C245.104 22.1456 244.539 21.7466 243.933 21.5549C242.81 21.2003 240.847 21.1843 238.076 21.5253C237.967 21.7035 237.762 21.8091 237.545 21.7784C237.266 21.7389 237.067 21.4886 237.082 21.2078C237.073 21.178 237.066 21.1471 237.062 21.1151C237.045 20.9893 237.073 20.8679 237.135 20.767L237.086 21.1609C237.46 18.4293 237.46 16.5097 237.109 15.4404C236.929 14.8924 236.549 14.3763 235.713 13.4506C235.12 12.7942 234.714 12.3263 234.442 11.9384Z" fill="#3A0F3F"/>
<path d="M35.6689 17.0723C38.7995 17.0723 41.401 18.1785 43.4238 20.3428C45.4464 22.5069 46.5058 25.2 46.5059 28.374C46.5059 29.0954 46.4579 29.8172 46.3135 30.6348H30.2266C30.949 33.3281 32.9722 34.6269 36.2471 34.627C38.3662 34.627 39.956 33.9055 41.0156 32.5107L45.4463 35.0596C43.3271 38.0896 40.2445 39.6289 36.1025 39.6289C32.5868 39.6288 29.7454 38.5705 27.5781 36.4062C25.459 34.29 24.3516 31.5967 24.3516 28.3262C24.3516 25.1038 25.4112 22.4101 27.5303 20.2939C29.6493 18.13 32.3461 17.0724 35.6689 17.0723ZM85.2373 17.0723C88.3678 17.0723 90.9684 18.1785 92.9912 20.3428C95.0139 22.507 96.0731 25.2 96.0732 28.374C96.0732 29.0954 96.0253 29.8172 95.8809 30.6348H79.7949C80.5174 33.3281 82.5404 34.627 85.8154 34.627C87.9343 34.6269 89.5235 33.9054 90.583 32.5107L95.0137 35.0596C92.8946 38.0895 89.8127 39.6288 85.6709 39.6289C82.155 39.6289 79.3128 38.5706 77.1455 36.4062C75.0265 34.2901 73.9189 31.5966 73.9189 28.3262C73.919 25.1038 74.9785 22.4101 77.0977 20.2939C79.2168 18.1298 81.9142 17.0723 85.2373 17.0723ZM12.6035 9.13965C15.3488 9.13965 17.7089 10.1016 19.6836 12.0254C21.6101 13.9492 22.5732 16.3064 22.5732 19.0479C22.5732 20.8752 22.0437 22.6064 20.9844 24.1934C19.9248 25.7805 18.5278 26.9834 16.7939 27.7529L23.4404 39.0068H17.083V39.0557L11.0146 28.667H6.53516V39.0557H0.611328V9.13965H12.6035ZM62.3584 17.0723C64.7182 17.0724 66.6447 17.8416 68.1377 19.4287C69.6788 21.0159 70.4492 23.1805 70.4492 25.9219V39.0518H64.9102V26.5947C64.9101 25.1519 64.5255 24.0937 63.7549 23.3242C62.9843 22.5547 61.9723 22.1699 60.6719 22.1699C59.2273 22.17 58.1197 22.603 57.2529 23.5166C56.386 24.3823 55.9521 25.7292 55.9521 27.5088V39.0518H50.4141V17.6973H55.9521V20.1016C57.3007 18.0817 59.4206 17.0723 62.3584 17.0723ZM106.568 30.8232L110.47 17.6934H115.671L119.572 30.8711L123.185 17.6934H128.482L122.222 39.0479H116.875L112.829 26.1094L108.784 39.0479H103.39L97.0801 17.6934H102.908L106.568 30.8232ZM35.7656 22.0254C34.2728 22.0254 33.0687 22.4103 32.1055 23.1797C31.0941 23.9011 30.4677 25.0078 30.1787 26.3545H41.0635C40.7263 24.9116 40.1 23.8054 39.1367 23.084C38.1735 22.3627 37.0178 22.0254 35.7656 22.0254ZM85.2852 22.0254C83.7923 22.0254 82.5882 22.4103 81.625 23.1797C80.6617 23.9011 80.0354 25.0078 79.6982 26.3545H90.583C90.2459 24.9116 89.6195 23.8054 88.6562 23.084C87.693 22.3627 86.5373 22.0254 85.2852 22.0254ZM6.53516 23.5205H12.6035C13.7112 23.5205 14.6744 23.0873 15.4932 22.2217C16.3119 21.356 16.6972 20.298 16.6973 19.0957C16.6973 17.8933 16.3119 16.8354 15.4932 15.9697C14.6744 15.104 13.7594 14.6709 12.6035 14.6709H6.53516V23.5205Z" fill="#3A0F3F"/>
<path d="M177.775 16.5947C181.05 16.5947 183.796 17.7491 185.915 20.0576C188.034 22.3181 189.094 25.1081 189.094 28.4268C189.094 29.1481 188.998 29.9657 188.854 30.7832L188.805 31.168H172.96C173.731 33.1878 175.512 34.1982 178.306 34.1982C180.28 34.1982 181.725 33.5727 182.736 32.2744L182.978 31.9375L183.362 32.1299L187.794 34.6787L188.228 34.9189L187.938 35.3525C185.723 38.5268 182.447 40.1133 178.209 40.1133C174.549 40.1132 171.563 38.9592 169.348 36.7471C167.084 34.5347 165.976 31.6968 165.976 28.3301C165.976 25.0117 167.084 22.1743 169.299 19.9619C171.514 17.7496 174.356 16.5948 177.775 16.5947ZM139.431 8.89746L147.618 22.3164L155.758 8.89746L155.902 8.65723H162.79V39.583H155.95V21.4023L148.389 33.8115L148.245 34.0518H147.041L146.896 33.8115L139.335 21.4512V39.5352H132.447V8.65723H139.286L139.431 8.89746ZM177.775 22.5586C176.427 22.5587 175.271 22.8951 174.404 23.5684C173.682 24.1454 173.153 24.9152 172.815 25.877H182.447C182.158 24.8671 181.629 24.0495 180.858 23.5205C179.943 22.8953 178.931 22.5586 177.775 22.5586Z" fill="#626262"/>
<g opacity="0.65">
<path d="M195.411 9.13477V9.9043H194.303V13.3191H193.485V9.9043H192.377V9.13477H195.411Z" fill="#3A0F3F"/>
<path d="M199.986 9.13477V13.3191H199.168V10.6257L197.964 12.5496H197.867L196.711 10.6257V13.3191H195.893V9.13477H196.76L197.964 11.1067L199.168 9.13477H199.986Z" fill="#3A0F3F"/>
</g>
</svg>
