<svg width="130" height="24" viewBox="0 0 130 24" fill="none" xmlns="http://www.w3.org/2000/svg">
<g opacity="0.6">
<path d="M117.099 0.000693493L117.117 0C117.268 0 117.39 0.122137 117.39 0.2728C117.39 0.729408 117.886 1.21305 118.934 1.68817C119.049 1.74087 119.238 1.84307 119.479 1.9982C119.877 2.25477 120.275 2.56967 120.646 2.94609C121.645 3.95838 122.272 5.21778 122.347 6.73382C123.888 6.7969 125.167 7.42601 126.193 8.4353C126.569 8.80627 126.885 9.20327 127.142 9.60073C127.297 9.84105 127.399 10.0303 127.452 10.1446C127.928 11.1919 128.412 11.6867 128.87 11.6867C129.02 11.6867 129.143 11.8088 129.143 11.9595C129.143 11.9661 129.143 11.9726 129.142 11.9791L129.143 11.9973C129.143 12.148 129.02 12.2701 128.87 12.2701C128.412 12.2701 127.928 12.7649 127.452 13.8122C127.399 13.9266 127.297 14.1158 127.142 14.3561C126.885 14.7536 126.569 15.1506 126.193 15.5215C125.168 16.5302 123.89 17.1592 122.349 17.2225C122.284 18.7577 121.655 20.0318 120.646 21.0539C120.275 21.4303 119.877 21.7452 119.479 22.0018C119.238 22.1569 119.049 22.2591 118.934 22.3118C118.036 22.719 117.543 23.1324 117.421 23.5298C117.432 23.5947 117.437 23.6605 117.437 23.7272C117.437 23.8779 117.315 24 117.164 24L117.14 23.9978L117.117 24C116.985 24 116.875 23.9065 116.849 23.7822L116.844 23.7272C116.844 23.661 116.849 23.5956 116.859 23.5311C116.739 23.1334 116.247 22.7195 115.347 22.3118C115.232 22.2591 115.043 22.1569 114.802 22.0018C114.404 21.7452 114.007 21.4303 113.635 21.0539C112.627 20.0322 111.998 18.7588 111.932 17.2239C110.379 17.1673 109.091 16.5367 108.06 15.5215C107.683 15.1506 107.367 14.7536 107.11 14.3561C106.955 14.1158 106.853 13.9266 106.8 13.8122C106.392 12.9147 105.978 12.4229 105.58 12.3007C105.515 12.3121 105.449 12.3174 105.383 12.3174C105.232 12.3174 105.109 12.1952 105.109 12.0446L105.112 12.0204L105.109 11.9973C105.109 11.8655 105.203 11.7555 105.327 11.7301L105.383 11.7245C105.449 11.7245 105.514 11.7298 105.579 11.7402C105.977 11.6201 106.392 11.1283 106.8 10.2297C106.853 10.1154 106.955 9.92612 107.11 9.6858C107.367 9.28835 107.683 8.89135 108.06 8.52038C109.072 7.52442 110.33 6.89865 111.845 6.82208L111.844 6.83754L111.845 6.81889C111.901 5.26483 112.532 3.97726 113.55 2.94609C113.921 2.56967 114.319 2.25477 114.717 1.9982C114.958 1.84307 115.147 1.74087 115.262 1.68817C116.31 1.21305 116.806 0.729408 116.806 0.2728C116.806 0.122137 116.928 0 117.079 0C117.086 0 117.092 0.000233777 117.099 0.000693493ZM117.097 1.03376C116.807 1.45215 116.265 1.83271 115.489 2.18434C115.469 2.19372 115.426 2.2149 115.364 2.24815C115.259 2.30495 115.141 2.37436 115.013 2.45659C114.647 2.69256 114.281 2.98288 113.939 3.32906C112.991 4.28999 112.416 5.48426 112.389 6.93622C112.418 6.97952 112.435 7.03128 112.435 7.08694C112.435 7.2376 112.313 7.35974 112.162 7.35974C110.66 7.35974 109.429 7.93892 108.443 8.90898C108.096 9.25015 107.806 9.61615 107.569 9.9817C107.487 10.1091 107.418 10.227 107.361 10.3322C107.327 10.3937 107.306 10.4363 107.297 10.4566C106.961 11.1955 106.599 11.7217 106.203 12.0219C106.599 12.3202 106.961 12.8464 107.297 13.5853C107.306 13.6056 107.327 13.6482 107.361 13.7097C107.418 13.8149 107.487 13.9328 107.569 14.0602C107.806 14.4258 108.096 14.7918 108.443 15.1329C109.429 16.103 110.66 16.6822 112.162 16.6822L112.195 16.6845C112.196 16.6845 112.198 16.6845 112.2 16.6845C112.351 16.6845 112.473 16.8066 112.473 16.9573C112.473 18.4575 113.053 19.6866 114.024 20.6709C114.366 21.0171 114.732 21.3074 115.099 21.5434C115.226 21.6256 115.344 21.695 115.45 21.7519C115.511 21.7851 115.554 21.8063 115.574 21.8157C116.314 22.1509 116.841 22.5124 117.142 22.9079C117.44 22.5124 117.967 22.1509 118.707 21.8157C118.728 21.8063 118.77 21.7851 118.832 21.7519C118.937 21.695 119.055 21.6256 119.183 21.5434C119.549 21.3074 119.915 21.0171 120.257 20.6709C121.228 19.6866 121.808 18.4575 121.808 16.9573C121.808 16.8252 121.902 16.7151 122.027 16.6899C122.047 16.6847 122.068 16.6822 122.09 16.6822C123.592 16.6822 124.823 16.103 125.809 15.1329C126.156 14.7918 126.446 14.4258 126.683 14.0602C126.765 13.9328 126.835 13.8149 126.891 13.7097C126.925 13.6482 126.946 13.6056 126.955 13.5853C127.307 12.8102 127.689 12.2692 128.108 11.9776C127.689 11.6876 127.307 11.1466 126.955 10.3715C126.946 10.3512 126.925 10.3087 126.891 10.2471C126.835 10.1419 126.765 10.024 126.683 9.89663C126.446 9.53108 126.156 9.16508 125.809 8.82391C124.852 7.8819 123.663 7.3085 122.22 7.27611C122.179 7.30184 122.132 7.31551 122.082 7.31551C121.931 7.31551 121.808 7.19338 121.808 7.04271C121.808 5.54254 121.228 4.31339 120.257 3.32906C119.915 2.98288 119.549 2.69256 119.183 2.45659C119.055 2.37436 118.937 2.30495 118.832 2.24815C118.77 2.2149 118.728 2.19372 118.707 2.18434C117.931 1.83271 117.389 1.45215 117.097 1.03376Z" fill="white"/>
</g>
<path opacity="0.55" d="M125.552 3.74882L125.565 3.76114C125.671 3.86701 125.671 4.03867 125.565 4.14454C125.244 4.46541 125.252 5.15297 125.654 6.22279C125.698 6.34019 125.759 6.54498 125.819 6.82288C125.918 7.28247 125.976 7.78274 125.972 8.30794C125.962 9.73595 125.506 11.0746 124.468 12.2003C125.503 13.3248 125.957 14.6618 125.967 16.0879C125.971 16.6131 125.914 17.1133 125.814 17.5729C125.754 17.8508 125.693 18.0556 125.65 18.173C125.304 19.0909 125.25 19.7274 125.444 20.0923C125.498 20.1293 125.547 20.1715 125.594 20.2181C125.7 20.3239 125.7 20.4956 125.594 20.6015L125.575 20.6169L125.561 20.6347C125.468 20.7273 125.325 20.7389 125.219 20.6694L125.177 20.6347C125.13 20.5878 125.087 20.5379 125.049 20.4848C124.684 20.2909 124.047 20.3459 123.129 20.6905C123.011 20.7338 122.806 20.795 122.528 20.8548C122.068 20.9539 121.567 21.0115 121.041 21.0077C119.613 20.9973 118.275 20.5442 117.149 19.5115C116.017 20.5616 114.669 21.0222 113.23 21.0327C112.704 21.0365 112.203 20.9788 111.742 20.8798C111.464 20.8199 111.259 20.7588 111.141 20.7155C110.222 20.3705 109.585 20.3157 109.219 20.5098C109.182 20.5635 109.14 20.6131 109.094 20.6596C108.988 20.7655 108.816 20.7655 108.71 20.6596L108.694 20.6411L108.676 20.6264C108.584 20.5338 108.572 20.3908 108.642 20.2855L108.676 20.243C108.723 20.1962 108.773 20.1537 108.826 20.1155C109.021 19.7509 108.966 19.1148 108.62 18.198C108.577 18.0806 108.516 17.8758 108.456 17.5979C108.357 17.1383 108.299 16.638 108.303 16.1128C108.313 14.7026 108.757 13.3796 109.768 12.2627L109.921 12.4206C108.756 11.2578 108.249 9.85002 108.238 8.34276C108.235 7.81756 108.292 7.31729 108.392 6.8577C108.451 6.5798 108.513 6.37501 108.556 6.25761C108.959 5.18779 108.967 4.50023 108.645 4.17936C108.539 4.07349 108.539 3.90183 108.645 3.79596C108.65 3.79133 108.655 3.7869 108.66 3.78267L108.672 3.76937C108.778 3.6635 108.95 3.6635 109.056 3.76937C109.377 4.09024 110.066 4.08241 111.137 3.68034C111.255 3.63702 111.46 3.57585 111.738 3.51599C112.198 3.41699 112.699 3.35929 113.225 3.36313C114.639 3.37343 115.966 3.81835 117.086 4.83097C118.213 3.794 119.555 3.33873 120.985 3.3283C121.511 3.32447 122.012 3.38217 122.473 3.48117C122.751 3.54103 122.956 3.6022 123.073 3.64552C124.145 4.04759 124.833 4.05542 125.155 3.73455C125.261 3.62868 125.432 3.62868 125.539 3.73455C125.543 3.73919 125.548 3.74394 125.552 3.74882ZM124.824 4.47395C124.367 4.5564 123.784 4.46854 123.079 4.22416L122.884 4.15364L122.835 4.13691C122.813 4.12971 122.785 4.12098 122.751 4.11103C122.637 4.07703 122.506 4.04296 122.358 4.01123C121.935 3.92017 121.473 3.86698 120.989 3.87051C119.654 3.88024 118.415 4.31135 117.378 5.3019C117.367 5.34825 117.344 5.39094 117.308 5.4263C117.202 5.53217 117.031 5.53217 116.925 5.4263C115.869 4.3721 114.596 3.91535 113.221 3.90533C112.737 3.9018 112.276 3.95499 111.852 4.04605C111.705 4.07778 111.573 4.11185 111.459 4.14585C111.426 4.1558 111.398 4.16453 111.376 4.17173L111.326 4.18846C110.534 4.48598 109.885 4.59872 109.386 4.50977C109.468 4.96623 109.38 5.54833 109.136 6.25193L109.065 6.44683L109.048 6.49582C109.041 6.51796 109.032 6.54581 109.022 6.57913C108.988 6.69296 108.954 6.82457 108.922 6.97188C108.831 7.39458 108.778 7.85579 108.781 8.33881C108.791 9.67945 109.227 10.9223 110.23 11.9614C110.282 11.9713 110.33 11.9959 110.369 12.035C110.475 12.1409 110.475 12.3126 110.369 12.4184C109.313 13.4726 108.856 14.7434 108.846 16.1168C108.842 16.5998 108.896 17.061 108.987 17.4837C109.018 17.631 109.053 17.7626 109.087 17.8765C109.107 17.9431 109.122 17.9879 109.129 18.0087C109.413 18.7636 109.529 19.3873 109.462 19.8763C109.95 19.808 110.575 19.9236 111.331 20.2073C111.352 20.215 111.397 20.2301 111.463 20.25C111.577 20.2839 111.709 20.318 111.857 20.3498C112.28 20.4408 112.742 20.494 113.226 20.4905C114.601 20.4804 115.873 20.0237 116.929 18.9695L116.951 18.9511C116.953 18.9489 116.955 18.9467 116.957 18.9445C117.063 18.8387 117.235 18.8387 117.341 18.9445C118.397 19.9987 119.669 20.4555 121.045 20.4655C121.528 20.469 121.99 20.4158 122.414 20.3248C122.561 20.2931 122.693 20.259 122.807 20.225C122.874 20.2051 122.918 20.1901 122.939 20.1824C123.695 19.8987 124.32 19.783 124.809 19.85C124.741 19.3624 124.857 18.7386 125.141 17.9838C125.149 17.9629 125.164 17.9181 125.184 17.8515C125.218 17.7377 125.252 17.6061 125.284 17.4587C125.375 17.036 125.428 16.5748 125.424 16.0918C125.414 14.7184 124.957 13.4477 123.901 12.3935C123.808 12.3 123.797 12.1553 123.868 12.0498C123.879 12.0329 123.891 12.017 123.906 12.0023C124.962 10.9481 125.419 9.67737 125.429 8.30399C125.433 7.82097 125.379 7.35976 125.288 6.93706C125.256 6.78975 125.222 6.65814 125.188 6.5443C125.178 6.51099 125.169 6.48314 125.162 6.461L125.145 6.41201C124.848 5.62038 124.735 4.9729 124.824 4.47395Z" fill="white"/>
<path d="M122.39 7.01912C122.496 7.125 122.496 7.29665 122.39 7.40253C122.294 7.49846 122.199 7.56955 122.084 7.6233C122.001 7.80883 121.971 8.12097 121.944 8.76533C121.914 9.46492 121.861 9.83049 121.687 10.1791C121.423 10.7082 120.821 11.3382 119.878 12.0841C120.976 12.9463 121.675 13.6637 121.978 14.2542C122.168 14.6249 122.231 15.0142 122.276 15.7578C122.333 16.7 122.384 16.9821 122.576 17.1735C122.669 17.2662 122.68 17.4092 122.611 17.5144L122.576 17.557L122.533 17.5917C122.428 17.6612 122.285 17.6496 122.192 17.5569C122 17.3655 121.718 17.3147 120.774 17.2578C120.03 17.2129 119.64 17.1497 119.269 16.9597C118.676 16.6564 117.955 15.9564 117.09 14.8551C116.32 15.8343 115.672 16.4566 115.131 16.7266C114.781 16.9005 114.415 16.9534 113.715 16.9828C112.84 17.0196 112.577 17.0622 112.408 17.2307C112.302 17.3366 112.13 17.3366 112.024 17.2307C112.014 17.2208 112.005 17.2103 111.997 17.1993L111.966 17.1726C111.86 17.0667 111.86 16.8951 111.966 16.7892C112.135 16.6208 112.178 16.3576 112.214 15.4845C112.244 14.7849 112.297 14.4193 112.471 14.0707C112.739 13.534 113.354 12.8935 114.321 12.1334C113.339 11.3426 112.708 10.6777 112.424 10.1243C112.233 9.75359 112.17 9.36437 112.125 8.62076C112.068 7.67858 112.017 7.39645 111.826 7.20498C111.733 7.11234 111.721 6.96934 111.791 6.8641L111.826 6.82159C111.932 6.71572 112.104 6.71572 112.21 6.82159C112.401 7.01307 112.684 7.06382 113.627 7.1207C114.372 7.16559 114.762 7.22878 115.133 7.41878C115.715 7.71695 116.421 8.39832 117.267 9.46731C118.062 8.44657 118.728 7.79988 119.283 7.52323C119.633 7.34929 119.999 7.29646 120.699 7.267C121.224 7.24493 121.529 7.22073 121.725 7.16847C121.75 7.13743 121.778 7.10739 121.808 7.0772C121.868 7.01708 121.95 6.9911 122.028 6.99925C122.134 6.91371 122.291 6.92028 122.39 7.01912ZM121.478 7.76027C121.28 7.78217 121.034 7.79562 120.722 7.80874C120.099 7.83495 119.782 7.8806 119.526 8.00842C119.03 8.25564 118.363 8.91874 117.548 9.99251C117.536 10.053 117.502 10.1082 117.45 10.1481C117.33 10.239 117.16 10.2161 117.069 10.0971C116.165 8.91385 115.43 8.18001 114.885 7.90131C114.604 7.75747 114.264 7.70227 113.595 7.66192C113.138 7.63439 112.815 7.60857 112.569 7.56502C112.614 7.80915 112.64 8.13192 112.667 8.58808C112.708 9.25637 112.763 9.59633 112.907 9.87699C113.162 10.3744 113.799 11.0307 114.812 11.8301C114.893 11.8309 114.972 11.8679 115.025 11.937C115.046 11.9658 115.062 11.9975 115.07 12.0304L115.106 12.0577C115.225 12.1486 115.248 12.3187 115.157 12.4377C115.066 12.5567 114.895 12.5796 114.776 12.4887L114.762 12.4773C113.793 13.2281 113.19 13.8458 112.957 14.3127C112.829 14.5689 112.783 14.8849 112.757 15.5073C112.737 15.9708 112.717 16.288 112.674 16.5246C112.91 16.4808 113.228 16.4606 113.692 16.4411C114.315 16.4149 114.632 16.3692 114.888 16.2414C115.389 15.992 116.062 15.3195 116.887 14.2293C116.977 14.1098 117.148 14.0861 117.267 14.1764C117.317 14.2143 117.351 14.2662 117.366 14.3226L117.332 14.2814C118.237 15.4647 118.972 16.1985 119.516 16.4772C119.797 16.6211 120.138 16.6763 120.807 16.7166C121.264 16.7441 121.587 16.77 121.831 16.8143C121.788 16.5694 121.762 16.2466 121.734 15.7904C121.694 15.1222 121.639 14.7822 121.495 14.5015C121.216 13.9578 120.481 13.2239 119.296 12.3208L119.415 12.4128C119.313 12.4378 119.201 12.4019 119.133 12.3128C119.043 12.1934 119.067 12.0234 119.186 11.9331C120.278 11.1094 120.952 10.4369 121.201 9.93709C121.329 9.68089 121.375 9.36496 121.401 8.74252C121.42 8.30147 121.439 7.99293 121.478 7.76027Z" fill="white" fill-opacity="0.7"/>
<path d="M117.037 4.78906C117.186 4.78906 117.306 4.91156 117.306 5.06266C117.306 5.19984 117.29 5.3181 117.247 5.43873C117.32 5.63033 117.517 5.87471 117.95 6.35302C118.42 6.87327 118.639 7.17184 118.762 7.54478C118.949 8.11308 118.968 8.99641 118.829 10.2084C120.205 10.0489 121.201 10.0648 121.832 10.2642C122.232 10.3908 122.556 10.6192 123.119 11.1087C123.833 11.7289 124.071 11.891 124.345 11.891C124.496 11.891 124.619 12.0112 124.619 12.1596V12.1929C124.619 12.3413 124.496 12.4615 124.345 12.4615C124.071 12.4615 123.833 12.6236 123.119 13.2438C122.556 13.7333 122.232 13.9617 121.832 14.0883C121.199 14.2882 120.2 14.3037 118.82 14.1431C118.969 15.3979 118.953 16.3083 118.762 16.8894C118.639 17.2623 118.42 17.5609 117.95 18.0811C117.363 18.7305 117.208 18.9487 117.208 19.1891C117.208 19.3402 117.088 19.4627 116.939 19.4627C116.925 19.4627 116.912 19.4616 116.899 19.4596L116.858 19.4627C116.709 19.4627 116.589 19.3402 116.589 19.1891C116.589 18.9487 116.434 18.7305 115.847 18.0811C115.377 17.5609 115.158 17.2623 115.035 16.8894C114.846 16.3128 114.828 15.4119 114.974 14.1725C113.73 14.3009 112.818 14.2752 112.226 14.0883C111.826 13.9617 111.502 13.7333 110.939 13.2438C110.225 12.6236 109.987 12.4615 109.713 12.4615C109.562 12.4615 109.439 12.3413 109.439 12.1929L109.44 12.1763C109.44 12.1708 109.439 12.1652 109.439 12.1596C109.439 12.0112 109.562 11.891 109.713 11.891C109.987 11.891 110.225 11.7289 110.939 11.1087C111.502 10.6192 111.826 10.3908 112.226 10.2642C112.848 10.0678 113.824 10.0494 115.167 10.2013C115.007 8.89895 115.019 7.95777 115.215 7.36238C115.337 6.98944 115.557 6.69087 116.027 6.17062C116.379 5.78091 116.575 5.5465 116.676 5.36937C116.672 5.3295 116.67 5.28822 116.67 5.24506C116.67 5.15909 116.709 5.08238 116.77 5.03222C116.784 4.89565 116.899 4.78906 117.037 4.78906ZM116.918 5.96724C116.795 6.12408 116.632 6.30897 116.423 6.54092C116.005 7.00381 115.815 7.26183 115.725 7.53587C115.56 8.03906 115.55 8.91885 115.705 10.1593L115.728 10.3365L115.725 10.3068C115.8 10.3635 115.843 10.4569 115.83 10.5556C115.81 10.7026 115.672 10.8058 115.522 10.7861C114.031 10.5898 112.982 10.5898 112.394 10.7755C112.091 10.8713 111.809 11.0708 111.302 11.5107C110.943 11.823 110.688 12.0356 110.477 12.1767C110.688 12.3169 110.943 12.5295 111.302 12.8418C111.809 13.2817 112.091 13.4811 112.394 13.577C112.926 13.7451 113.836 13.761 115.109 13.617C115.166 13.563 115.245 13.5352 115.328 13.5469C115.361 13.5517 115.393 13.5627 115.421 13.5786L115.522 13.5664C115.672 13.5467 115.81 13.6499 115.83 13.7969C115.85 13.9439 115.745 14.0791 115.595 14.0988L115.523 14.1082C115.371 15.3401 115.381 16.2148 115.546 16.7159C115.636 16.9899 115.825 17.2479 116.244 17.7108C116.555 18.0556 116.763 18.2964 116.899 18.496C117.034 18.2964 117.242 18.0556 117.554 17.7108C117.972 17.2479 118.162 16.9899 118.252 16.7159C118.423 16.1934 118.427 15.2648 118.253 13.9479C118.23 13.9019 118.221 13.8502 118.228 13.7969C118.234 13.752 118.251 13.7112 118.277 13.6767C118.316 13.6087 118.386 13.5588 118.47 13.5469C118.53 13.5384 118.588 13.5508 118.637 13.5786L118.536 13.5664C120.027 13.7627 121.076 13.7627 121.664 13.577C121.967 13.4811 122.249 13.2817 122.756 12.8418C123.115 12.5295 123.37 12.3169 123.581 12.1758C123.37 12.0356 123.115 11.823 122.756 11.5107C122.249 11.0708 121.967 10.8713 121.664 10.7755C121.102 10.5982 120.121 10.5902 118.735 10.7607C118.681 10.8498 118.578 10.9026 118.47 10.8872C118.33 10.8675 118.231 10.7423 118.238 10.6019C118.234 10.5871 118.23 10.5716 118.228 10.5556C118.22 10.4927 118.234 10.432 118.265 10.3816L118.24 10.5785C118.427 9.21269 118.427 8.25291 118.252 7.71827C118.162 7.44423 117.972 7.18621 117.554 6.72332C117.257 6.39515 117.054 6.16118 116.918 5.96724Z" fill="white"/>
<path fill-rule="evenodd" clip-rule="evenodd" d="M8.23582 19.5281L5.20157 14.3338H2.962V19.5281H0V4.57031H5.99625C7.36889 4.57031 8.54887 5.05127 9.53621 6.01319C10.4995 6.9751 10.9811 8.15345 10.9811 9.52418C10.9811 10.438 10.7162 11.3037 10.1864 12.0973C9.65661 12.8909 8.95825 13.4921 8.09133 13.8769L11.4146 19.5041H8.23582V19.5281ZM2.962 7.33582V11.7606H5.99625C6.55012 11.7606 7.03175 11.5442 7.44113 11.1113C7.85051 10.6785 8.04316 10.1494 8.04316 9.54823C8.04316 8.94703 7.85051 8.41798 7.44113 7.98511C7.03175 7.55225 6.5742 7.33582 5.99625 7.33582H2.962ZM14.8075 15.318C15.1687 16.6646 16.1801 17.3139 17.8176 17.3139C18.8772 17.3139 19.6719 16.9532 20.2017 16.2558L22.4172 17.5304C21.3576 19.0454 19.8164 19.8149 17.7454 19.8149C15.9875 19.8149 14.5667 19.2859 13.483 18.2037C12.4234 17.1456 11.8696 15.7989 11.8696 14.1637C11.8696 12.5525 12.3993 11.2058 13.4589 10.1477C14.5185 9.06551 15.8671 8.53646 17.5287 8.53646C19.094 8.53646 20.3943 9.08956 21.4058 10.1717C22.4172 11.2539 22.947 12.6006 22.947 14.1877C22.947 14.5484 22.9229 14.9092 22.8506 15.318H14.8075ZM14.7834 13.1777H20.2258C20.0572 12.4563 19.7442 11.9032 19.2625 11.5424C18.7809 11.1817 18.2029 11.0134 17.5768 11.0134C16.8303 11.0134 16.2283 11.2058 15.7466 11.5905C15.2409 11.9513 14.9279 12.5044 14.7834 13.1777ZM33.7627 9.7148C33.0162 8.92122 32.053 8.53646 30.873 8.53646C29.404 8.53646 28.3444 9.04146 27.6702 10.0515V8.84908H24.9008V19.5263H27.6702V13.7549C27.6702 12.8651 27.8869 12.1917 28.3204 11.7589C28.7538 11.302 29.3077 11.0855 30.0301 11.0855C30.6803 11.0855 31.186 11.2779 31.5713 11.6627C31.9566 12.0475 32.1493 12.5765 32.1493 13.2979V19.5263H34.9186V12.9613C34.9186 11.5905 34.5333 10.5084 33.7627 9.7148ZM39.5913 15.318C39.9526 16.6646 40.964 17.3139 42.6015 17.3139C43.6611 17.3139 44.4558 16.9532 44.9856 16.2558L47.201 17.5304C46.1415 19.0454 44.6003 19.8149 42.5293 19.8149C40.7713 19.8149 39.3505 19.2859 38.2669 18.2037C37.2073 17.1456 36.6534 15.7989 36.6534 14.1637C36.6534 12.5525 37.1832 11.2058 38.2428 10.1477C39.3024 9.06551 40.6509 8.53646 42.3125 8.53646C43.8778 8.53646 45.1782 9.08956 46.1896 10.1717C47.201 11.2539 47.7308 12.6006 47.7308 14.1877C47.7308 14.5484 47.7067 14.9092 47.6345 15.318H39.5913ZM39.5432 13.1777H44.9856C44.817 12.4563 44.5039 11.9032 44.0223 11.5424C43.5407 11.1817 42.9627 11.0134 42.3366 11.0134C41.5901 11.0134 40.988 11.2058 40.5064 11.5905C40.0248 11.9513 39.7117 12.5044 39.5432 13.1777ZM63.9352 8.84701H61.2862L59.4801 15.4361L57.5295 8.84701H54.9287L52.9782 15.4121L51.148 8.84701H48.2341L51.3888 19.5243H54.0859L56.1087 13.0554L58.1316 19.5243H60.8046L63.9352 8.84701Z" fill="white"/>
<path fill-rule="evenodd" clip-rule="evenodd" d="M80.8523 4.33203H81.0931V4.57251V19.5544V19.7948H80.8523H77.9144H77.6736V19.5544V10.7047L73.8928 16.9091L73.8206 17.0293H73.7002H73.363H73.2185L73.1463 16.9091L69.3655 10.7288V19.5303V19.7708H69.1247H66.1627H65.9219V19.5303V4.57251V4.33203H66.1627H69.1969H69.3414L69.4137 4.45227L73.5075 11.1616L77.5772 4.45227L77.6495 4.33203H77.794H80.8523ZM84.3439 9.98413C85.4517 8.87793 86.8724 8.30078 88.5822 8.30078C90.2197 8.30078 91.5924 8.87793 92.652 10.0322C93.7115 11.1625 94.2413 12.5573 94.2413 14.2166C94.2413 14.5773 94.1932 14.9861 94.1209 15.3949L94.0968 15.5873H93.9042H86.1741C86.5594 16.5973 87.4504 17.1023 88.8471 17.1023C89.8344 17.1023 90.5569 16.7897 91.0626 16.1404L91.183 15.9721L91.3756 16.0683L93.5911 17.3428L93.8079 17.463L93.6634 17.6795C92.5556 19.2666 90.9181 20.0602 88.799 20.0602C86.9688 20.0602 85.4757 19.4831 84.368 18.3769C83.2362 17.2706 82.6823 15.8518 82.6823 14.1685C82.6823 12.5092 83.2362 11.0903 84.3439 9.98413ZM86.8965 11.7877C86.5353 12.0763 86.2704 12.4611 86.1018 12.942H90.9181C90.7736 12.437 90.5087 12.0282 90.1234 11.7637C89.6659 11.4511 89.1602 11.2827 88.5822 11.2827C87.9079 11.2827 87.33 11.4511 86.8965 11.7877Z" fill="#C3DEF2"/>
<g opacity="0.65">
<path d="M97.3999 4.57031V4.95508H96.8461V6.66248H96.4367V4.95508H95.8828V4.57031H97.3999Z" fill="white"/>
<path d="M99.6875 4.57031V6.66248H99.2782V5.3158L98.6761 6.27771H98.628L98.05 5.3158V6.66248H97.6406V4.57031H98.0741L98.6761 5.55628L99.2782 4.57031H99.6875Z" fill="white"/>
</g>
</svg>
